<?xml version="1.0" standalone="no"?>
<!DOCTYPE svg PUBLIC "-//W3C//DTD SVG 1.1//EN" "http://www.w3.org/Graphics/SVG/1.1/DTD/svg11.dtd" >
<svg xmlns="http://www.w3.org/2000/svg" xmlns:xlink="http://www.w3.org/1999/xlink" version="1.1">
<metadata>
Created by FontForge 20161003 at Thu Aug  1 07:34:22 2019
 By www-data
[c] Copyright 1995-2006, The Font Bureau, Inc. All rights reserved.
</metadata>
<defs>
<font id="ModernoFBRegular" horiz-adv-x="481" >
  <font-face 
    font-family="ModernoFBRegular"
    font-weight="400"
    font-stretch="normal"
    units-per-em="1000"
    panose-1="2 0 6 3 9 0 0 2 0 4"
    ascent="750"
    descent="-250"
    x-height="488"
    cap-height="701"
    bbox="-78.7812 -236 1084 920"
    underline-thickness="20"
    underline-position="-153"
    unicode-range="U+0020-FB02"
  />
<missing-glyph horiz-adv-x="500" 
 />
    <glyph glyph-name="fi" unicode="fi" horiz-adv-x="528" 
d="M15 0v16q48 0 59 10t11 50v393h-75v19h75v23q0 94 50 149.5t144 55.5q54 0 97 -22t43 -62q0 -25 -14.5 -40.5t-39.5 -15.5q-23 0 -37.5 11t-14.5 33q0 21 17.5 35.5t17.5 19.5q0 11 -24 18t-44 7q-49 0 -75.5 -35t-26.5 -93v-84h118q84 0 146 8v-422q0 -40 9.5 -49
t57.5 -9v-16h-223v16q41 0 52 10t11 50v329q0 44 -9 54t-45 10h-117v-397q0 -36 11 -46t54 -10v-16h-228z" />
    <glyph glyph-name="fl" unicode="fl" horiz-adv-x="528" 
d="M15 0v16q48 0 59 10.5t11 53.5v389h-74v19h74v25q0 96 48.5 149.5t140.5 53.5q32 0 101 -23q25 1 67 16v-631q0 -42 12 -52t63 -10v-16h-227v16q36 0 47.5 11t11.5 52v500q-49 0 -49 43q0 17 16 33t16 20q0 11 -19.5 18t-38.5 7q-51 0 -73.5 -33t-22.5 -100v-79h107v-19
h-107v-397q0 -37 11.5 -46.5t55.5 -9.5v-16h-230z" />
    <glyph glyph-name="f_f_l" unicode="ffl" horiz-adv-x="792" 
d="M394 659q48 57 143 57q35 0 101 -23q26 1 68 16v-631q0 -42 12 -52t63 -10v-16h-232v16q39 0 51 11t12 52v501q-48 0 -48 44q0 15 15.5 31t15.5 20q0 11 -19 18t-38 7q-51 0 -74 -32t-23 -99v-81h108v-19h-108v-397q0 -37 11.5 -46.5t53.5 -9.5v-16h-218v16
q38 0 49.5 10.5t11.5 52.5v390h-171v-393q0 -41 12 -50.5t62 -9.5v-16h-238v16q48 0 59.5 10t11.5 53v390h-75v19h75v11q2 96 53 149.5t142 53.5q81 0 114 -43zM353 564q-42 4 -42 42q0 16 8.5 26.5t17.5 17t9 12.5q0 11 -23 18t-42 7q-50 0 -76.5 -35t-26.5 -96v-68h171v25
q0 30 4 51z" />
    <glyph glyph-name="f_f_i" unicode="ffi" horiz-adv-x="792" 
d="M395 657q51 59 147 59q54 0 97.5 -22t43.5 -62q0 -25 -15 -40.5t-40 -15.5q-23 0 -37.5 11t-14.5 33q0 21 18 35.5t18 19.5q0 11 -23 18t-45 7q-49 0 -76 -35t-27 -93v-84h119q82 0 146 8v-422q0 -39 12 -48.5t61 -9.5v-16h-230v16q40 0 51.5 10t11.5 50v329q0 44 -9 54
t-45 10h-117v-397q0 -36 11 -46t54 -10v-16h-218v16q38 0 49.5 10.5t11.5 52.5v390h-171v-393q0 -41 12 -50.5t62 -9.5v-16h-238v16q48 0 59.5 10t11.5 53v390h-75v19h75v11q2 96 53 149.5t142 53.5q34 0 66.5 -11.5t48.5 -33.5zM353 564q-43 4 -43 42q0 16 9 26.5t18 17
t9 12.5q0 11 -23 18t-42 7q-50 0 -76.5 -35t-26.5 -96v-68h171v23q0 30 4 53z" />
    <glyph glyph-name="f_f" unicode="ff" horiz-adv-x="551" 
d="M391 662q39 54 105 54q43 0 77.5 -23.5t34.5 -63.5q0 -27 -15.5 -43t-40.5 -16q-21 0 -35 13t-14 34t20.5 36.5t20.5 22.5q0 12 -14.5 18.5t-33.5 6.5q-32 0 -50 -20t-18 -54q0 -26 5 -51q7 -42 8 -88h105v-19h-105v-393q0 -41 16 -50.5t79 -9.5v-16h-248v16
q38 0 49.5 10.5t11.5 52.5v390h-171v-393q0 -41 12 -50.5t62 -9.5v-16h-238v16q48 0 59.5 10t11.5 53v390h-75v19h75v9q2 97 52.5 151t142.5 54q78 0 111 -40zM354 564q-19 1 -31.5 12t-12.5 30q0 16 9 26.5t18 17t9 12.5q0 11 -23 18t-42 7q-50 0 -76.5 -35t-26.5 -96v-68
h171v8q0 31 5 68z" />
    <glyph glyph-name=".notdef" horiz-adv-x="500" 
 />
    <glyph glyph-name=".null" horiz-adv-x="0" 
 />
    <glyph glyph-name="nonmarkingreturn" horiz-adv-x="333" 
 />
    <glyph glyph-name="space" unicode=" " horiz-adv-x="227" 
 />
    <glyph glyph-name="space" unicode="&#xa0;" horiz-adv-x="227" 
 />
    <glyph glyph-name="exclam" unicode="!" horiz-adv-x="265" 
d="M126 188q0 117 -18 233q-3 22 -12.5 68.5t-16 84t-6.5 59.5q0 82 62 82q61 0 61 -82q0 -20 -6.5 -57t-15.5 -84t-13 -71q-16 -101 -16 -233h-19zM135 -12q-28 0 -46.5 18t-18.5 46q0 27 19 46.5t46 19.5t45.5 -19.5t18.5 -46.5q0 -28 -18 -46t-46 -18z" />
    <glyph glyph-name="quotedbl" unicode="&#x22;" horiz-adv-x="299" 
d="M213 407q-3 77 -19 148q-19 95 -19 106q0 24 12 39.5t33 15.5q46 0 46 -56q0 -20 -20 -105q-14 -66 -19 -148h-14zM74 407q-3 77 -19 148q-19 95 -19 106q0 24 12 39.5t33 15.5q46 0 46 -56q0 -13 -19 -105q-15 -64 -20 -148h-14z" />
    <glyph glyph-name="numbersign" unicode="#" horiz-adv-x="678" 
d="M106 -2q45 122 75 213h-164q5 13 13.5 35.5t12.5 35.5h163q40 112 51 145h-175q5 13 13.5 35.5t12.5 35.5h175q36 97 77 214h27q-12 -36 -75 -214h164q33 89 75 214h29q-40 -120 -75 -214h156q-5 -13 -13.5 -35.5t-12.5 -35.5h-155q-30 -82 -51 -145h167
q-4 -13 -12.5 -35.5t-13.5 -35.5h-167q-23 -66 -76 -213h-28q27 75 75 213h-164q-11 -32 -23.5 -67.5t-28 -78.5t-23.5 -67h-29zM235 282h164q40 112 51 145h-163q-49 -139 -52 -145z" />
    <glyph glyph-name="dollar" unicode="$" 
d="M224 -77v78q-75 3 -135.5 40.5t-60.5 105.5q0 32 15.5 53.5t46.5 21.5q25 0 41.5 -16.5t16.5 -42.5q0 -20 -10.5 -35.5t-21 -26t-10.5 -18.5q0 -29 38.5 -45.5t79.5 -18.5v298q-92 29 -143.5 73t-51.5 117q0 83 54 133t141 55v57h27v-57q68 -4 126 -36.5t58 -90.5
q0 -29 -14 -46.5t-42 -17.5q-24 0 -39 16t-15 41q0 17 11 37.5t11 29.5q0 23 -32.5 36t-63.5 14v-267q99 -32 154 -80.5t55 -129.5q0 -87 -61 -141.5t-148 -58.5v-78h-27zM224 418v260q-55 -3 -92 -35.5t-37 -87.5q0 -54 33.5 -83.5t95.5 -53.5zM251 18q63 4 97.5 43
t34.5 104q0 56 -34 89t-98 56v-292z" />
    <glyph glyph-name="percent" unicode="%" horiz-adv-x="774" 
d="M242 0q106 291 226 594q-45 -29 -87 -29q-48 0 -84 25q16 -48 16 -115q0 -54 -13 -103t-48 -87t-86 -38t-84.5 37.5t-46 85.5t-12.5 102q0 39 7.5 78t23.5 75t45.5 58.5t68.5 22.5q60 0 101 -59q14 -21 18 -29q34 -37 95 -37q24 0 52 11.5t44 27.5q2 4 10.5 27t14.5 38
q4 12 17 12q14 0 14 -18q0 -5 -5 -17.5t-17.5 -40.5t-22.5 -54q-43 -109 -120.5 -315t-94.5 -252h-32zM603 -8q-50 0 -84 38t-46.5 86t-12.5 101q0 40 7.5 78.5t23.5 74.5t45.5 58.5t68.5 22.5q51 0 85 -39t46.5 -88.5t12.5 -103.5t-12.5 -103t-47 -87t-86.5 -38zM168 261
q46 0 57 70q9 55 9 145q0 89 -9 145q-11 72 -58 72q-46 0 -57 -69q-8 -53 -8 -157q0 -88 9 -143q12 -63 57 -63zM605 6q46 0 57 69q9 55 9 145t-9 146q-11 71 -58 71q-46 0 -57 -68q-8 -49 -8 -162q0 -86 9 -139q12 -62 57 -62z" />
    <glyph glyph-name="ampersand" unicode="&#x26;" horiz-adv-x="672" 
d="M540 -14q-79 0 -137 82q-77 -79 -181 -79q-84 0 -141 50t-57 139q0 42 17 77t48.5 61t63 44t73.5 35q-33 87 -33 151q0 68 42 113t109 45q55 0 92.5 -28t37.5 -81q0 -94 -157 -179q55 -131 142 -268q78 103 78 167q0 54 -75 54v16h213v-17q-48 0 -70 -21
q-9 -8 -21.5 -29.5t-30 -54.5t-18.5 -34q-20 -38 -65 -97q36 -53 65.5 -75t66.5 -22q38 0 65 29l10 -11q-59 -67 -137 -67zM311 431q114 69 115 158q0 40 -18 69.5t-54 29.5q-37 0 -57.5 -29.5t-20.5 -68.5q0 -74 35 -159zM273 36q65 2 119 46q-45 64 -89 147t-70 151
q-122 -59 -122 -165q0 -85 44 -132.5t118 -46.5z" />
    <glyph glyph-name="quotesingle" unicode="'" horiz-adv-x="160" 
d="M74 407q-3 77 -19 148q-19 95 -19 106q0 24 12 39.5t33 15.5q46 0 46 -56q0 -13 -19 -105q-15 -64 -20 -148h-14z" />
    <glyph glyph-name="parenleft" unicode="(" horiz-adv-x="355" 
d="M324 -202q-117 66 -181.5 191t-64.5 265q0 147 61.5 265t184.5 190v-18q-48 -38 -79 -89t-45 -112.5t-18.5 -113.5t-4.5 -122q0 -79 10 -155t45.5 -160.5t91.5 -121.5v-19z" />
    <glyph glyph-name="parenright" unicode=")" horiz-adv-x="355" 
d="M32 -202v18q48 38 79 89t45 112.5t18.5 113.5t4.5 122q0 79 -10 155t-45.5 160.5t-91.5 121.5v19q117 -66 181.5 -191t64.5 -265q0 -147 -61.5 -265t-184.5 -190z" />
    <glyph glyph-name="asterisk" unicode="*" horiz-adv-x="379" 
d="M184 559q-6 25 -23.5 58.5t-17.5 52.5q0 22 13.5 34t35.5 12q20 0 32 -13t12 -33q0 -17 -17.5 -51.5t-23.5 -59.5h-11zM329 531q-15 -5 -52.5 0.5t-64.5 3.5l-4 10q20 14 48 41t45 33q21 7 37 -2t22 -30q6 -18 -3 -34t-28 -22zM49 531q-18 6 -27 22t-3 34q13 46 59 32
q17 -6 45 -33t48 -41l-4 -10q-27 2 -64.5 -3.5t-53.5 -0.5zM296 393q-15 -12 -33 -8.5t-31 19.5q-10 13 -17.5 49.5t-19.5 61.5l9 7q21 -16 55 -32t46 -30q29 -40 -9 -67zM81 393q-38 27 -8 67q11 14 45 30t55 32l9 -7q-11 -24 -18.5 -61t-17.5 -50q-13 -16 -31 -19.5
t-34 8.5z" />
    <glyph glyph-name="plus" unicode="+" horiz-adv-x="636" 
d="M291 102v220h-214v53h214v219h54v-219h213v-53h-213v-220h-54z" />
    <glyph glyph-name="comma" unicode="," horiz-adv-x="222" 
d="M78 -156l-14 14q28 27 56 68.5t28 69.5q0 9 -6 9q-4 0 -16 -5t-24 -5q-28 0 -44 16t-16 43t19.5 45.5t46.5 18.5q35 0 54.5 -26.5t19.5 -62.5q0 -85 -104 -185z" />
    <glyph glyph-name="hyphen" unicode="-" horiz-adv-x="306" 
d="M20 219v77h266v-77h-266z" />
    <glyph glyph-name="hyphen" unicode="&#xad;" horiz-adv-x="306" 
d="M20 219v77h266v-77h-266z" />
    <glyph glyph-name="period" unicode="." horiz-adv-x="222" 
d="M111 -11q-28 0 -46 18t-18 46q0 27 18.5 46t45.5 19t46 -19t19 -46q0 -28 -18.5 -46t-46.5 -18z" />
    <glyph glyph-name="slash" unicode="/" horiz-adv-x="325" 
d="M-24 -93l301 810h38l-302 -810h-37z" />
    <glyph glyph-name="zero" unicode="0" horiz-adv-x="518" 
d="M259 -9q-60 0 -106 30.5t-72.5 83t-39 114t-12.5 130.5q0 67 13.5 129t40 114t72 83t104.5 31t105 -31t72.5 -83.5t39.5 -114t13 -129.5q0 -67 -13.5 -129t-40.5 -114t-72.5 -83t-103.5 -31zM259 8q39 0 64.5 25.5t38.5 75t18 105.5t5 134q0 77 -5 134t-18 106.5
t-39 75.5t-64 26q-39 0 -64.5 -25.5t-38.5 -76t-17.5 -106.5t-4.5 -135q0 -78 4.5 -133.5t17.5 -105t38.5 -75t64.5 -25.5z" />
    <glyph glyph-name="one" unicode="1" horiz-adv-x="340" 
d="M6 0v16q83 0 101.5 15t18.5 77v413q0 39 -14 49q-13 10 -105 10v15q39 5 61.5 9.5t51.5 16t48 33t30 53.5h20v-608q0 -55 18.5 -69t98.5 -14v-16h-329z" />
    <glyph glyph-name="two" unicode="2" horiz-adv-x="462" 
d="M14 -1q-1 78 68 164q21 30 55.5 64.5t63 61.5t55.5 60t42.5 74t15.5 89q0 171 -134 171q-46 0 -85 -35.5t-30 -76.5q2 -8 20 -13t38 -8.5t36.5 -17.5t16.5 -38q0 -29 -18.5 -47t-46.5 -18q-41 0 -64 33t-23 80q0 74 54 119t133 45q91 0 150 -48.5t59 -139.5
q0 -27 -8 -52.5t-16.5 -44t-31 -42t-34 -35t-43.5 -34.5t-42 -29.5t-46 -30.5q-44 -29 -82 -72.5t-57 -90.5q41 8 125 8q19 0 62 -3.5t62 -3.5q52 0 71 16.5t30 68.5h16l-26 -172q-12 -2 -36 -2q-34 0 -99.5 4t-98.5 4q-112 0 -152 -8z" />
    <glyph glyph-name="three" unicode="3" horiz-adv-x="454" 
d="M194 -9q-73 0 -128.5 43t-55.5 116q0 32 19.5 55t51.5 23q27 0 43.5 -17t16.5 -44q0 -29 -29 -54t-29 -39q0 -28 34 -46.5t75 -18.5q127 0 127 194q0 37 -4 63.5t-15.5 53t-36 40t-61.5 13.5q-19 0 -49 -7t-35 -7q-22 0 -22 15q0 20 28 20q13 0 40 -1.5t41 -1.5
q31 0 51.5 12.5t30 36t13 46.5t3.5 53q0 76 -26 112.5t-85 36.5q-36 0 -68 -18.5t-32 -44.5q0 -8 10.5 -15.5t22.5 -13t22.5 -18.5t10.5 -31q0 -23 -18 -37t-42 -14q-29 0 -48 23t-19 54q0 63 54 98t116 35q87 0 146 -43.5t59 -120.5q0 -65 -45.5 -105t-114.5 -53
q87 -10 133.5 -59.5t46.5 -124.5q0 -89 -65.5 -149t-166.5 -60z" />
    <glyph glyph-name="four" unicode="4" horiz-adv-x="461" 
d="M152 0v16q55 0 77 5.5t28 18.5t6 47v99h-256v22l300 493h48v-485h93v-30h-93v-101q0 -46 16 -57.5t77 -11.5v-16h-296zM32 216h231v378z" />
    <glyph glyph-name="five" unicode="5" horiz-adv-x="446" 
d="M191 -10q-70 0 -121.5 39.5t-51.5 109.5q0 33 20 58t52 25q27 0 44 -17t17 -43q0 -19 -10.5 -34.5t-23 -23t-23 -16t-10.5 -16.5q0 -29 31.5 -46.5t66.5 -17.5q132 0 132 218q0 38 -3.5 67.5t-13.5 64.5t-35 54.5t-62 19.5q-48 0 -86.5 -33.5t-51.5 -71.5l-18 6
q7 72 11 199q4 114 2 169h16q68 -39 160 -39q88 0 145 31h11q0 -3 -5 -13q-60 -112 -216 -112q-55 0 -95 16q0 -107 -10 -222q25 43 67.5 66.5t91.5 23.5q92 0 145 -61.5t53 -164.5t-65 -169.5t-164 -66.5z" />
    <glyph glyph-name="six" unicode="6" horiz-adv-x="484" 
d="M254 -9q-43 0 -78 14t-59 39t-41 57.5t-26.5 73t-14 81.5t-4.5 87q0 63 13 124t40 116t75 89t111 34q65 0 113.5 -33.5t48.5 -90.5q0 -29 -15.5 -48t-44.5 -19q-25 0 -41 15.5t-16 41.5q0 17 10.5 30.5t21.5 23t11 16.5q0 22 -27 35.5t-60 13.5q-70 0 -102 -69
q-33 -69 -33 -292q31 117 145 117q82 0 134 -61.5t52 -151.5q0 -104 -59.5 -173.5t-153.5 -69.5zM252 6q33 0 56.5 19t35 51.5t16.5 65t5 68.5q0 213 -105 213q-35 0 -60 -20t-38 -54t-18.5 -69.5t-5.5 -73.5q0 -34 4.5 -65t16 -63.5t35.5 -52t58 -19.5z" />
    <glyph glyph-name="seven" unicode="7" horiz-adv-x="422" 
d="M155 -10q-65 0 -65 97q0 145 183 362q67 82 108 159h-259q-53 0 -69 -16t-28 -74h-16l21 182h393q-4 -38 -19 -76.5t-27.5 -60t-41.5 -66.5q-71 -110 -101.5 -185t-30.5 -164q0 -17 5 -49.5t5 -48.5q0 -26 -15.5 -43t-42.5 -17z" />
    <glyph glyph-name="eight" unicode="8" 
d="M234 -9q-93 0 -152 47.5t-58 138.5q0 58 42 104t101 71q-122 71 -122 174q0 80 58.5 129.5t143.5 49.5q75 0 132.5 -41t57.5 -112q0 -92 -135 -156q155 -82 155 -202q0 -94 -65.5 -148.5t-157.5 -54.5zM285 405q44 26 72 64.5t28 83.5q0 61 -36.5 98.5t-97.5 37.5
q-55 0 -93.5 -33t-38.5 -88q0 -22 8.5 -41.5t19 -33t31 -28t34 -22t38.5 -20.5t35 -18zM232 8q63 0 107 39.5t44 103.5q0 54 -38 92q-22 21 -46.5 37t-61 34.5t-54.5 28.5q-49 -24 -75 -67t-26 -96q0 -78 40.5 -125t109.5 -47z" />
    <glyph glyph-name="nine" unicode="9" horiz-adv-x="485" 
d="M213 -9q-66 0 -115.5 32.5t-49.5 88.5q0 29 15.5 48.5t44.5 19.5q25 0 41 -15.5t16 -41.5q0 -17 -10.5 -30.5t-21.5 -23t-11 -16.5q0 -22 28.5 -35t62.5 -12q69 1 100 63q36 74 36 296q-32 -115 -145 -115q-82 0 -134 61.5t-52 151.5q0 104 59.5 173.5t153.5 69.5
q64 0 109.5 -29.5t69 -82t34 -111t10.5 -129.5q0 -65 -13.5 -126.5t-41 -116t-75.5 -87.5t-111 -33zM226 274q46 0 74.5 36.5t37.5 81.5t9 99q0 34 -4.5 65t-16 63.5t-35.5 52t-58 19.5q-32 0 -55.5 -19.5t-35.5 -51.5t-17 -64.5t-5 -68.5q0 -40 4.5 -74t15.5 -67.5
t33 -52.5t53 -19z" />
    <glyph glyph-name="colon" unicode=":" horiz-adv-x="242" 
d="M121 369q-28 0 -46 18t-18 46q0 27 18.5 46.5t45.5 19.5t46 -19.5t19 -46.5q0 -28 -18.5 -46t-46.5 -18zM121 -11q-28 0 -46 18t-18 46q0 27 18.5 46t45.5 19t46 -19t19 -46q0 -28 -18.5 -46t-46.5 -18z" />
    <glyph glyph-name="semicolon" unicode=";" horiz-adv-x="242" 
d="M121 369q-28 0 -46 18t-18 46q0 27 18.5 46.5t45.5 19.5t46 -19.5t19 -46.5q0 -28 -18.5 -46t-46.5 -18zM89 -155l-15 13q28 27 56 68.5t28 69.5q0 9 -6 9q-4 0 -16 -5t-24 -5q-28 0 -44 16t-16 43t19.5 45.5t46.5 18.5q35 0 54.5 -26.5t19.5 -62.5q0 -85 -103 -184z" />
    <glyph glyph-name="less" unicode="&#x3c;" horiz-adv-x="636" 
d="M553 136l-482 183v57l482 183v-25l-395 -186l395 -187v-25z" />
    <glyph glyph-name="equal" unicode="=" horiz-adv-x="636" 
d="M77 402v53h481v-53h-481zM77 241v53h481v-53h-481z" />
    <glyph glyph-name="greater" unicode="&#x3e;" horiz-adv-x="636" 
d="M69 136v25l395 187l-395 186v25l482 -183v-57z" />
    <glyph glyph-name="question" unicode="?" horiz-adv-x="439" 
d="M146 182v27q0 40 12.5 72t26 47.5t36.5 35.5q42 37 60 75t18 101q0 156 -128 156q-38 0 -71 -21.5t-33 -54.5q0 -7 5 -12.5t9.5 -8t18.5 -9.5l6 -3q42 -18 42 -54q-1 -23 -17.5 -36.5t-39.5 -13.5q-35 0 -53.5 26.5t-18.5 62.5q0 66 51.5 104.5t120.5 38.5q93 0 153 -49
t60 -140q0 -67 -37 -111t-100 -82q-31 -19 -45.5 -30t-30.5 -28.5t-21.5 -39t-5.5 -53.5h-18zM161 -11q-28 0 -46 18t-18 46q0 27 18.5 46t45.5 19t45.5 -19t18.5 -46q0 -28 -18 -46t-46 -18z" />
    <glyph glyph-name="at" unicode="@" horiz-adv-x="916" 
d="M488 -138q-126 0 -225 43t-160 135t-61 222q0 177 136 313q136 135 333 135q162 0 270 -87t108 -240q0 -76 -28.5 -149t-86 -123.5t-129.5 -50.5q-51 0 -76.5 29.5t-23.5 79.5q-58 -108 -146 -108q-71 0 -106 48t-33 117q2 60 32 120.5t85 103t119 42.5q43 0 70 -25.5
t35 -72.5q23 82 26 90h77q-3 -10 -15.5 -53.5t-24 -84.5t-24.5 -87.5t-20.5 -80t-7.5 -44.5q0 -22 13 -35.5t35 -13.5q77 0 139 80q32 42 50.5 102t18.5 120q0 92 -50 163t-128 107t-169 36q-185 0 -302 -127.5t-117 -315.5q0 -181 116 -279q105 -89 270 -89q82 0 164 27.5
t146 76.5l9 -12q-139 -112 -319 -112zM409 80q38 0 72.5 32.5t56 78.5t34 93.5t12.5 81.5q0 43 -20.5 76t-60.5 33q-45 0 -83.5 -52t-58 -119t-19.5 -124q0 -100 67 -100z" />
    <glyph glyph-name="A" unicode="A" horiz-adv-x="692" 
d="M5 0v16q48 0 69.5 23.5t57.5 119.5q15 40 95.5 254.5t112.5 298.5h44q208 -590 220 -624q17 -46 32.5 -59t50.5 -13v-16h-266v16q67 0 79.5 15t-7.5 77q-7 20 -21.5 63t-18.5 56h-273q-19 -53 -32 -90q-29 -75 -16 -98t97 -23v-16h-224zM188 248h258q-20 57 -62 181.5
t-62 181.5q-9 -23 -59.5 -160t-74.5 -203z" />
    <glyph glyph-name="B" unicode="B" horiz-adv-x="643" 
d="M11 0v16q61 0 76 12t15 59v531q0 44 -16 56t-75 12v15h310q45 0 83 -7.5t73.5 -24.5t56 -50.5t20.5 -80.5q0 -75 -42.5 -115t-104.5 -51q25 -2 49 -7.5t51.5 -18.5t48 -31t34 -47.5t13.5 -66.5q0 -55 -22 -95t-60.5 -62.5t-85 -33t-101.5 -10.5h-323zM200 378h111
q79 0 107.5 35.5t28.5 119.5q0 74 -30.5 113.5t-102.5 39.5h-69q-27 0 -36 -15.5t-9 -67.5v-225zM264 16h54q86 0 128.5 38t42.5 137q0 168 -173 168h-116v-271q0 -44 11 -58t53 -14z" />
    <glyph glyph-name="C" unicode="C" horiz-adv-x="664" 
d="M366 -14q-150 0 -241.5 101t-91.5 265q0 165 93 264.5t236 99.5q99 0 166 -43q33 -21 41 -21q23 3 28 54h14q0 -30 1 -84.5t1.5 -98.5t0.5 -83h-16q-1 2 -1.5 8t-0.5 9q-18 116 -78.5 179t-154.5 63q-106 0 -163 -97.5t-57 -249.5t59.5 -246t181.5 -94q100 0 161.5 72.5
t63.5 185.5h18v-14q-2 -72 -28 -131t-86 -99t-147 -40z" />
    <glyph glyph-name="D" unicode="D" horiz-adv-x="695" 
d="M10 0v16q62 0 77 13t15 68v521q0 46 -15.5 57t-76.5 11v15h320q154 0 242 -93t88 -252q0 -165 -86.5 -260.5t-244.5 -95.5h-319zM311 16q59 0 102.5 19.5t68.5 49.5t39.5 76t19 89.5t4.5 100.5q0 335 -234 335q-76 0 -93 -11.5t-17 -60.5v-524q0 -48 18 -61t92 -13z" />
    <glyph glyph-name="E" unicode="E" horiz-adv-x="628" 
d="M10 0v16q63 0 77.5 12.5t14.5 63.5v532q0 41 -15.5 51.5t-76.5 10.5v15h546q6 -102 11 -213h-15l-4 24q-12 105 -56 139.5t-155 34.5h-45q-63 -1 -77 -13.5t-14 -72.5v-219h91q80 0 104.5 27.5t25.5 117.5h17v-313h-17q-2 91 -27 121t-101 30h-93v-276q0 -47 16 -59.5
t71 -12.5h42q66 0 106 8.5t70.5 32.5t45 66t19.5 110h15q-3 -189 -3 -233h-573z" />
    <glyph glyph-name="F" unicode="F" horiz-adv-x="594" 
d="M10 0v16q62 0 77 12.5t15 65.5v528q0 42 -15.5 53t-76.5 11v15h555l2 -224h-17q0 11 -3 29q-10 106 -54.5 143t-157.5 37h-29q-71 0 -88 -11.5t-17 -60.5v-233h73q82 0 107 25t26 118h17v-311h-17q-2 98 -26.5 124.5t-104.5 26.5h-75v-274q0 -50 18 -62t90 -12v-16h-299z
" />
    <glyph glyph-name="G" unicode="G" horiz-adv-x="714" 
d="M354 -14q-143 0 -232 102.5t-89 265.5q0 155 92 258.5t236 103.5q97 0 172 -47q28 -18 38 -18q22 0 35 53h15q2 -164 4 -249h-16q-19 107 -83 175.5t-161 68.5q-59 0 -103.5 -29t-69.5 -79t-37 -109t-12 -127q0 -156 54.5 -253.5t160.5 -97.5q90 0 135.5 57.5t45.5 144.5
v76q0 36 -15.5 44.5t-81.5 8.5v16h260v-16q-48 0 -60 -10t-12 -48v-281h-14q-4 9 -21.5 44.5t-22.5 44.5q-80 -99 -218 -99z" />
    <glyph glyph-name="H" unicode="H" horiz-adv-x="718" 
d="M10 0v16q61 0 76.5 11.5t15.5 58.5v529q0 49 -14 60t-78 11v15h279v-15q-62 0 -75 -11t-13 -58v-223h316v221q0 48 -14 59.5t-73 11.5v15h279v-15q-63 0 -77.5 -11t-14.5 -58v-530q0 -49 14.5 -60t77.5 -11v-16h-279v16q61 0 74 11.5t13 62.5v282h-316v-290
q0 -45 14 -55.5t74 -10.5v-16h-279z" />
    <glyph glyph-name="I" unicode="I" horiz-adv-x="304" 
d="M11 0v16q61 0 76.5 11.5t15.5 58.5v529q0 49 -14 60t-78 11v15h282v-15q-62 0 -76.5 -11t-14.5 -58v-535q0 -45 15.5 -55.5t75.5 -10.5v-16h-282z" />
    <glyph glyph-name="J" unicode="J" horiz-adv-x="496" 
d="M183 -13q-76 0 -122 39.5t-46 109.5q0 40 22 68.5t59 28.5q27 0 44.5 -15.5t17.5 -40.5q0 -42 -42 -58q-3 -1 -11.5 -4.5t-12 -5t-9.5 -5.5t-8.5 -7.5t-5 -9t-2.5 -12.5q0 -31 32 -50.5t76 -19.5q29 0 51 9t35 28.5t21 39t11 52.5t4 55.5t1 60.5v366q0 47 -14.5 58.5
t-78.5 11.5v15h273v-15q-54 0 -67 -11t-13 -60v-369q0 -126 -48.5 -192.5t-166.5 -66.5z" />
    <glyph glyph-name="K" unicode="K" horiz-adv-x="711" 
d="M10 0v16q61 0 76.5 11.5t15.5 58.5v529q0 49 -14 60t-78 11v15h282v-15q-62 0 -76.5 -11t-14.5 -58v-299l73.5 73.5t89 88.5t74.5 75q37 38 53.5 59.5t16.5 38.5q0 21 -17.5 27t-76.5 6v15h258v-15h-24q-30 0 -60.5 -21t-117.5 -108q-39 -39 -114 -111q66 -95 245 -351
q36 -52 55.5 -65.5t58.5 -13.5v-16h-276v16q68 0 77.5 12t-21.5 55q-29 41 -207 291q-52 -50 -87 -85v-207q0 -45 15.5 -55.5t75.5 -10.5v-16h-282z" />
    <glyph glyph-name="L" unicode="L" horiz-adv-x="590" 
d="M10 0v16q63 0 77.5 11.5t14.5 58.5v525q0 50 -15 62.5t-77 12.5v15h285v-15q-64 0 -79 -11.5t-15 -62.5v-525q0 -50 13.5 -60.5t74.5 -10.5h58q96 0 139.5 51t60.5 166l5 33h16q-2 -47 -6.5 -141t-5.5 -125h-546z" />
    <glyph glyph-name="M" unicode="M" horiz-adv-x="846" 
d="M11 0v16q64 0 77.5 13.5t13.5 78.5v505q0 50 -13 61.5t-74 11.5v15h198q10 -31 110 -292t110 -290q9 29 103 291.5t103 290.5h197v-15q-65 0 -78.5 -9t-13.5 -54v-525q0 -58 12 -70t76 -12v-16h-277v16q64 0 77.5 12t13.5 67v565q-11 -38 -117 -333.5t-117 -331.5h-36
q-229 600 -253 673v-562q0 -62 15.5 -76t87.5 -14v-16h-215z" />
    <glyph glyph-name="N" unicode="N" horiz-adv-x="714" 
d="M12 0v16q60 0 75 12.5t15 57.5v529q0 48 -15 59.5t-74 11.5v15h183q11 -16 400 -555v467q0 48 -17 60.5t-84 12.5v15h214v-15q-57 0 -73.5 -12.5t-16.5 -61.5v-617h-32q-52 72 -216.5 300t-247.5 343v-554q0 -42 16 -55t80 -13v-16h-207z" />
    <glyph glyph-name="O" unicode="O" horiz-adv-x="732" 
d="M367 -14q-147 0 -240.5 104t-93.5 264q0 157 94.5 259.5t239.5 102.5q144 0 238.5 -104t94.5 -264q0 -155 -94.5 -258.5t-238.5 -103.5zM365 4q62 0 107.5 31.5t69.5 84t35.5 110.5t11.5 123q0 63 -13 122t-38.5 111t-70 83t-102.5 31q-60 0 -104.5 -31t-69 -83
t-36 -110.5t-11.5 -122.5t11.5 -122.5t36 -111t69.5 -84t104 -31.5z" />
    <glyph glyph-name="P" unicode="P" horiz-adv-x="597" 
d="M10 0v16q63 0 77.5 11t14.5 60v530q0 47 -15 58t-77 11v15h326q100 0 170 -45t70 -140q0 -197 -265 -201q-53 -2 -110 4v-232q0 -49 15.5 -60t87.5 -11v-16h-294zM283 333h20q84 1 123.5 46t39.5 135q0 172 -149 172h-34q-58 0 -70 -15t-12 -79v-255q38 -5 82 -4z" />
    <glyph glyph-name="Q" unicode="Q" horiz-adv-x="732" 
d="M569 -156q-107 0 -140 148q-30 -6 -62 -6q-147 0 -240.5 104t-93.5 264q0 157 94.5 259.5t239.5 102.5q144 0 238.5 -104t94.5 -264q0 -115 -54.5 -204.5t-146.5 -130.5q15 -54 34.5 -80.5t57.5 -25.5q69 0 79 84h15q-4 -60 -32.5 -103.5t-83.5 -43.5zM268 32
q-4 15 -4 38q0 43 25 71t68 28q87 0 128 -119q54 45 79 127t25 176q0 63 -13 122t-38.5 111t-70 83t-102.5 31q-60 0 -104.5 -31t-69 -83t-36 -110.5t-11.5 -122.5q0 -102 30.5 -191t93.5 -130zM365 4q35 0 59 8q-29 118 -83 118q-27 0 -43.5 -21t-16.5 -48q0 -24 5 -40
q36 -17 79 -17z" />
    <glyph glyph-name="R" unicode="R" horiz-adv-x="663" 
d="M542 -7q-36 0 -60.5 16.5t-36.5 48.5t-17 63.5t-7 75.5q-3 87 -26.5 126t-92.5 39h-101v-277q0 -46 14.5 -57.5t78.5 -11.5v-16h-284v16q63 0 77.5 12.5t14.5 62.5v526q0 46 -15 57.5t-77 11.5v15h321q240 0 240 -159q0 -82 -55.5 -123.5t-138.5 -49.5q117 -16 145 -179
q2 -13 4.5 -39t5 -40.5t7.5 -31.5t14 -24.5t22 -7.5q28 0 41 32t13 78h18v-16q0 -64 -24.5 -106t-80.5 -42zM201 380h118q78 0 109.5 37.5t31.5 117.5q0 74 -31 112.5t-103 38.5h-72q-32 0 -42.5 -15t-10.5 -59v-232z" />
    <glyph glyph-name="S" unicode="S" horiz-adv-x="572" 
d="M312 -13q-74 0 -142 44q-10 7 -24 18t-22 16t-12 5q-25 0 -38 -70h-15v287h15l3 -18q19 -116 79.5 -190t156.5 -74q68 0 108 36.5t40 99.5q0 70 -41 104.5t-141 71.5q-112 42 -162.5 88.5t-49.5 129.5q1 87 58.5 133.5t138.5 46.5q67 0 128 -38l17.5 -12.5t17 -11.5
t8.5 -4q21 0 38 52h15v-239h-15q0 6 -2 18q-15 92 -73.5 154.5t-134.5 62.5q-57 0 -92 -32t-35 -87q0 -63 42.5 -96.5t138.5 -68.5q116 -44 167.5 -91t51.5 -135q0 -95 -66 -147.5t-158 -52.5z" />
    <glyph glyph-name="T" unicode="T" horiz-adv-x="661" 
d="M177 0v16q69 0 86.5 12.5t17.5 61.5v529q0 45 -11 56t-61 11q-38 0 -66.5 -13.5t-46 -34.5t-29 -56t-16.5 -68t-8 -80h-16l4 267h599l4 -267h-16q-3 47 -8 80t-16.5 68t-29 56t-46 34.5t-66.5 13.5q-50 0 -60.5 -11t-10.5 -54v-534q0 -47 18 -59t87 -12v-16h-309z" />
    <glyph glyph-name="U" unicode="U" horiz-adv-x="706" 
d="M359 -13q-265 0 -265 266v363q0 45 -14.5 57.5t-68.5 12.5v15h275v-15q-63 0 -78 -12.5t-15 -53.5v-392q0 -100 49.5 -154t149.5 -54t149 64.5t49 165.5v304q0 52 -2 75t-15 38t-30.5 17t-59.5 2v15h220v-15q-24 0 -36 -0.5t-24.5 -5.5t-17 -12t-9 -23.5t-5 -36
t-0.5 -54.5v-310q0 -257 -252 -257z" />
    <glyph glyph-name="V" unicode="V" horiz-adv-x="689" 
d="M314 -10q-160 437 -225 617q-20 53 -34 66t-53 13v15h268v-15q-67 0 -79 -15.5t10 -80.5q24 -68 90 -251.5t81 -226.5q23 62 82 227.5t76 212.5q22 66 23 84q4 31 -18.5 40.5t-87.5 9.5v15h234v-15q-35 0 -51.5 -5.5t-31.5 -26.5q-19 -30 -46 -108q-133 -364 -203 -556
h-35z" />
    <glyph glyph-name="W" unicode="W" horiz-adv-x="976" 
d="M287 -9q-107 336 -197 614q-17 52 -31.5 66.5t-53.5 14.5v15h257v-15q-69 0 -79 -17t14 -90q60 -184 145 -442q10 30 127 393q-11 39 -31 92q-16 44 -29.5 54t-57.5 10v15h271v-15q-72 0 -83.5 -15.5t10.5 -86.5q13 -40 69.5 -215t75.5 -236q110 348 139 443
q13 42 16.5 61.5t-7.5 32t-31.5 14.5t-66.5 2v15h227v-15q-32 0 -47.5 -2t-27.5 -14t-17 -25t-16 -48q-102 -331 -191 -606h-31q-28 85 -82 254.5t-80 249.5q-20 -63 -75.5 -237.5t-84.5 -266.5h-32z" />
    <glyph glyph-name="X" unicode="X" horiz-adv-x="679" 
d="M5 0v16q45 0 69 13t60 63q162 233 168 242q-9 15 -70 119.5t-90 154.5q-30 50 -51.5 64t-59.5 14v15h277v-15q-63 0 -73 -14.5t20 -65.5q26 -46 110 -187q105 165 113 179q35 58 22 73t-95 15v15h246v-15q-56 0 -75.5 -11.5t-55.5 -63.5q-27 -40 -77.5 -113.5
t-65.5 -96.5q94 -164 172 -295q35 -59 58 -74.5t67 -15.5v-16h-290v16q62 0 72.5 16t-19.5 68q-87 152 -123 214q-88 -132 -131 -197q-23 -35 -30.5 -54.5t1.5 -30.5t28.5 -13.5t60.5 -2.5v-16h-238z" />
    <glyph glyph-name="Y" unicode="Y" horiz-adv-x="644" 
d="M167 0v16q70 0 86.5 15.5t16.5 79.5v172q-5 9 -171 326q-28 51 -44 64t-50 13v15h259v-15q-64 0 -72.5 -15t22.5 -74q45 -85 144 -273q104 201 131 256q36 73 25.5 89.5t-91.5 16.5v15h216v-15q-48 0 -67 -16.5t-58 -91.5q-35 -68 -146 -279v-196q0 -58 17 -72.5
t86 -14.5v-16h-304z" />
    <glyph glyph-name="Z" unicode="Z" horiz-adv-x="633" 
d="M35 0v25l439 661h-143q-72 0 -113.5 -6.5t-74.5 -27.5t-48.5 -61t-22.5 -107l-3 -28h-15q3 173 4 245h519v-25l-438 -660h156q52 0 86 3.5t64.5 14t48.5 28.5t34 49.5t26 73.5t19 104h17q-2 -43 -3.5 -91t-3 -107t-2.5 -91h-546z" />
    <glyph glyph-name="bracketleft" unicode="[" horiz-adv-x="324" 
d="M69 -197v898h242v-15q-40 0 -60.5 -0.5t-41 -5t-28 -10.5t-14.5 -21t-8 -32t-1 -47v-644q0 -28 1 -43.5t7.5 -29.5t14 -19.5t27.5 -10t41.5 -5t61.5 -0.5v-15h-242z" />
    <glyph glyph-name="backslash" unicode="\" horiz-adv-x="325" 
d="M312 -93l-302 810h38l301 -810h-37z" />
    <glyph glyph-name="bracketright" unicode="]" horiz-adv-x="324" 
d="M13 -197v15q40 0 60.5 0.5t41 5t28 10.5t14.5 21t8 32t1 47v644q0 28 -1 43.5t-7.5 29.5t-14 19.5t-27.5 10t-41.5 5t-61.5 0.5v15h242v-898h-242z" />
    <glyph glyph-name="asciicircum" unicode="^" horiz-adv-x="708" 
d="M69 243l241 263h88l241 -263h-35l-253 197l-248 -197h-34z" />
    <glyph glyph-name="underscore" unicode="_" horiz-adv-x="504" 
d="M-10 -229v53h524v-53h-524z" />
    <glyph glyph-name="grave" unicode="`" 
d="M269 529q-57 30 -169 90q-30 17 -30 42q0 17 11.5 29t29.5 12q26 0 47 -25q31 -35 118 -138z" />
    <glyph glyph-name="a" unicode="a" horiz-adv-x="514" 
d="M176 -11q-137 0 -137 123q0 38 19 70t53 54t66.5 36t74.5 27q51 14 74 18v19q0 33 -3 55t-13.5 44.5t-33.5 34t-58 11.5q-36 0 -66.5 -14.5t-30.5 -39.5q0 -10 9.5 -16t21.5 -8.5t21.5 -13t9.5 -29.5q0 -22 -17 -36t-39 -14q-32 0 -49.5 19t-17.5 50q0 57 50 88.5
t124 31.5q88 0 132.5 -45.5t44.5 -147.5v-215q0 -31 7.5 -47.5t29.5 -16.5q21 0 32 28.5t11 69.5v19h16v-34q0 -121 -99 -121q-38 0 -60 23t-26 65q-12 -36 -56 -62t-90 -26zM216 25q39 0 67 28t35 58q3 15 3 67q0 11 2 58t2 63q-29 -5 -43 -10q-72 -25 -110.5 -60.5
t-38.5 -102.5q0 -101 83 -101z" />
    <glyph glyph-name="b" unicode="b" horiz-adv-x="536" 
d="M283 -9q-53 0 -90 23.5t-55 59.5l-47 -74h-19v634q0 34 -13.5 43t-58.5 9v15q108 0 165 20v-321q43 97 145 97q86 0 136 -68t50 -183q0 -110 -60 -182.5t-153 -72.5zM279 12q60 0 87 63.5t27 164.5q0 224 -111 224q-48 0 -75 -32q-42 -47 -42 -130v-111q0 -36 3.5 -62.5
t14 -55.5t35 -45t61.5 -16z" />
    <glyph glyph-name="c" unicode="c" horiz-adv-x="460" 
d="M255 -11q-101 0 -162.5 68t-61.5 183q0 122 67 190.5t171 68.5q70 0 116.5 -35.5t46.5 -95.5q0 -32 -17.5 -54t-47.5 -22q-26 0 -42.5 15t-16.5 40q0 19 10 31.5t21.5 18t21.5 12.5t10 16q0 26 -29.5 42t-67.5 16q-138 0 -138 -234q0 -230 138 -230q57 0 98 42t46 105v9
h16q-1 -82 -51.5 -134t-127.5 -52z" />
    <glyph glyph-name="d" unicode="d" horiz-adv-x="547" 
d="M233 -9q-92 0 -142.5 69t-50.5 185q0 110 55 180.5t146 70.5q97 0 133 -81v218q0 33 -13 43t-63 10v15q108 0 168 20v-650q0 -37 12 -46t60 -9v-16q-127 0 -160 -5v85q-17 -42 -56 -65.5t-89 -23.5zM260 20q56 0 85.5 44t29.5 98v114q0 117 -38 161q-28 33 -79 33
q-34 0 -58 -22t-35.5 -59.5t-16.5 -75.5t-5 -82q0 -54 9 -98t36.5 -78.5t71.5 -34.5z" />
    <glyph glyph-name="e" unicode="e" horiz-adv-x="490" 
d="M261 -11q-105 0 -167.5 70.5t-62.5 189.5q0 109 64 179.5t157 70.5q100 0 154.5 -65.5t54.5 -172.5v-5h-325v-21q0 -218 145 -218q64 0 104 41.5t54 103.5h16q-12 -81 -62 -127t-132 -46zM136 276h224v26q0 72 -25.5 126.5t-83.5 54.5q-40 0 -66.5 -32.5t-36.5 -73.5
t-12 -89v-12z" />
    <glyph glyph-name="f" unicode="f" horiz-adv-x="286" 
d="M14 0v16q48 0 59.5 10t11.5 53v390h-75v19h75q-2 97 34 162.5t113 65.5q43 0 77.5 -23.5t34.5 -63.5q0 -27 -15.5 -43t-40.5 -16q-22 0 -36 12.5t-14 33.5t20.5 37t20.5 23q0 12 -14.5 18.5t-32.5 6.5q-32 0 -50.5 -20.5t-18.5 -53.5q0 -21 6 -51q7 -42 8 -88h105v-19
h-105v-393q0 -41 16 -50.5t78 -9.5v-16h-257z" />
    <glyph glyph-name="g" unicode="g" horiz-adv-x="514" 
d="M254 -218q-40 0 -74.5 4.5t-69.5 15.5t-55.5 34t-20.5 55q0 35 31.5 63t70.5 42q-35 9 -59.5 28.5t-25.5 49.5q-2 64 85 92q-85 46 -85 153q0 81 56.5 130.5t139.5 49.5q69 0 117 -29q41 73 111 73q29 0 50.5 -19.5t21.5 -48.5q0 -24 -13 -40t-37 -16q-20 0 -33 10.5
t-13 29.5q0 9 6 20.5t6 18.5q0 17 -19 17t-37.5 -16.5t-29.5 -36.5q32 -22 49.5 -61t17.5 -82q0 -79 -59 -128.5t-138 -49.5q-57 0 -97 17q-41 -10 -41 -41q0 -25 42 -36.5t127 -19.5q119 -10 175 -38t56 -89q0 -51 -38.5 -86.5t-94 -50.5t-122.5 -15zM246 156
q53 0 75.5 46.5t22.5 114.5q0 167 -98 167q-35 0 -57.5 -25.5t-30.5 -60t-8 -78.5q0 -164 96 -164zM264 -203q69 0 126 27t58 75q0 36 -29 51q-33 18 -145 28q-88 8 -119 14q-23 -10 -40.5 -32.5t-17.5 -52.5q0 -110 167 -110z" />
    <glyph glyph-name="h" unicode="h" horiz-adv-x="551" 
d="M9 0v16q48 0 60.5 9.5t12.5 45.5v564q0 34 -13 42.5t-61 8.5v15q104 0 167 20v-319q18 43 56 68.5t89 25.5q74 0 112.5 -41.5t38.5 -107.5v-278q0 -34 12 -43.5t58 -9.5v-16h-228v16q43 0 54 9t11 43v294q0 45 -22.5 72.5t-62.5 27.5q-53 0 -86 -43t-33 -109v-244
q0 -32 11.5 -41t52.5 -9v-16h-229z" />
    <glyph glyph-name="i" unicode="i" horiz-adv-x="267" 
d="M125 582q-26 0 -44.5 17.5t-18.5 43.5t18.5 44.5t44.5 18.5q25 0 44 -18.5t19 -44.5t-19 -43.5t-44 -17.5zM13 0v16q52 0 63.5 9.5t11.5 49.5v326q0 49 -12.5 60t-63.5 11v16q95 0 168 12v-423q0 -41 12.5 -51t64.5 -10v-16h-244z" />
    <glyph glyph-name="j" unicode="j" horiz-adv-x="255" 
d="M122 582q-25 0 -44 17.5t-19 43.5q0 25 18.5 44t44.5 19t44.5 -18.5t18.5 -44.5t-18.5 -43.5t-44.5 -17.5zM35 -220q-45 0 -76 20.5t-31 61.5q0 23 14 38.5t37 15.5q20 0 34 -11t14 -30t-19 -35.5t-19 -22.5q0 -12 13.5 -18.5t29.5 -5.5q33 1 43.5 34.5t10.5 130.5v444
q0 48 -12.5 59t-61.5 11v16q107 0 166 11v-512q0 -207 -143 -207z" />
    <glyph glyph-name="k" unicode="k" horiz-adv-x="546" 
d="M9 0v16q48 0 60.5 9.5t12.5 45.5v564q0 34 -13 42.5t-61 8.5v15q104 0 167 20l-1 -460q46 41 144 128q44 39 44 58q0 17 -15.5 21t-61.5 4v16h228v-16q-44 0 -63.5 -6t-38.5 -23q-42 -35 -123 -106q111 -169 189 -286q22 -35 69 -35v-16h-235v16q49 0 58 10t-12 42
q-74 116 -139 209q-7 -6 -23 -19t-21 -17v-175q0 -32 11.5 -41t52.5 -9v-16h-229z" />
    <glyph glyph-name="l" unicode="l" horiz-adv-x="261" 
d="M9 0v16q49 0 61.5 10t12.5 50v559q0 34 -13 42.5t-62 8.5v15q106 0 167 20v-650q0 -34 15 -44.5t59 -10.5v-16h-240z" />
    <glyph glyph-name="m" unicode="m" horiz-adv-x="794" 
d="M9 0v16q49 0 61 9.5t12 47.5v349q0 33 -13 41.5t-61 8.5v16q110 0 167 5v-93q18 45 55 70.5t86 25.5q58 0 88 -31.5t38 -73.5q39 105 139 105q69 0 104 -43.5t35 -115.5v-256q0 -45 9.5 -55t54.5 -10v-16h-221v16q43 0 53.5 10t10.5 53v276q0 107 -70 107
q-51 0 -81 -44.5t-30 -101.5v-246q0 -35 9 -44.5t47 -9.5v-16h-205v16q39 0 48 8.5t9 44.5v287q0 106 -70 106q-49 0 -79.5 -44.5t-30.5 -101.5v-247q0 -33 11 -43t51 -10v-16h-227z" />
    <glyph glyph-name="n" unicode="n" horiz-adv-x="551" 
d="M9 0v16q48 0 60.5 9.5t12.5 45.5v350q0 34 -13 42.5t-61 8.5v16q102 0 167 4v-90q18 44 56 69t89 25q74 0 112.5 -41.5t38.5 -107.5v-278q0 -34 12 -43.5t58 -9.5v-16h-228v16q43 0 54 9t11 43v294q0 45 -22.5 72.5t-62.5 27.5q-53 0 -86 -43t-33 -109v-244
q0 -32 11.5 -41t52.5 -9v-16h-229z" />
    <glyph glyph-name="o" unicode="o" horiz-adv-x="515" 
d="M259 -11q-101 0 -164.5 69t-63.5 186q0 116 65.5 185.5t162.5 69.5t161 -70t64 -185q0 -113 -65 -184t-160 -71zM259 6q120 0 120 238q0 50 -4.5 88t-17 74t-37.5 55.5t-62 19.5q-122 0 -122 -243q0 -232 123 -232z" />
    <glyph glyph-name="p" unicode="p" horiz-adv-x="540" 
d="M4 -209v16q47 0 59.5 10.5t12.5 51.5v548q0 36 -11.5 45.5t-58.5 9.5v16q93 0 163 4v-92q17 48 54.5 72.5t85.5 24.5q89 0 140 -68.5t51 -176.5q0 -112 -57 -185.5t-148 -73.5q-44 0 -77.5 18.5t-49.5 50.5v-194q0 -36 16 -48.5t60 -12.5v-16h-240zM281 22q43 0 70 35.5
t36.5 83t9.5 106.5q0 217 -111 217q-58 0 -88 -50t-30 -108v-160q0 -52 29 -88t84 -36z" />
    <glyph glyph-name="q" unicode="q" horiz-adv-x="542" 
d="M295 -209v16q50 0 63.5 10.5t13.5 52.5v207q-13 -37 -49.5 -61.5t-82.5 -24.5q-93 0 -146.5 67t-53.5 179q0 110 58 185t152 75q99 0 145 -89l49 90h20v-631q0 -38 12 -49t60 -11v-16h-241zM257 19q59 0 87 51.5t28 112.5v147q0 55 -30.5 100.5t-86.5 45.5
q-112 0 -112 -240q0 -40 5 -74.5t16.5 -68.5t35.5 -54t57 -20z" />
    <glyph glyph-name="r" unicode="r" horiz-adv-x="416" 
d="M9 0v16q48 0 60.5 11t12.5 50v339q0 38 -12 47t-62 9v16q122 0 165 6v-92q16 40 50.5 67.5t84.5 27.5q43 0 68.5 -23t25.5 -61q0 -33 -20 -56.5t-52 -23.5q-23 0 -37 12t-14 34q0 24 25.5 43t25.5 29q0 21 -37 21q-44 0 -76 -35t-43 -76v-282q0 -41 14.5 -52t61.5 -11
v-16h-241z" />
    <glyph glyph-name="s" unicode="s" horiz-adv-x="448" 
d="M245 -8q-38 0 -70 12.5t-52 25t-29 12.5q-21 0 -29 -42h-14q2 58 4 203h15q6 -89 55.5 -141.5t120.5 -52.5q48 0 76.5 22.5t28.5 61.5q0 41 -32 65t-97 44q-79 26 -121 60.5t-42 98.5q0 65 44 100.5t110 35.5q41 0 82 -21t42 -21q20 0 25 33h14q0 -57 2 -165h-14
q-15 72 -56 115t-95 43q-45 0 -71 -20t-26 -55q0 -40 30 -62t100 -45q79 -26 122 -61.5t43 -96.5q0 -70 -47.5 -109.5t-118.5 -39.5z" />
    <glyph glyph-name="t" unicode="t" horiz-adv-x="319" 
d="M185 -9q-49 0 -78.5 33.5t-29.5 103.5v341h-63v18l16 1q39 2 66.5 32t39.5 68.5t15 84.5q0 12 1 17h18v-202h124v-19h-124v-349q0 -91 53 -91q28 0 42 29t14 71v18h17v-27q0 -129 -111 -129z" />
    <glyph glyph-name="u" unicode="u" horiz-adv-x="551" 
d="M223 -6q-71 0 -108.5 39.5t-37.5 109.5v276q0 34 -11.5 43.5t-55.5 9.5v16q111 0 160 4v-365q0 -100 84 -100q52 0 85.5 42.5t33.5 97.5v257q0 33 -11 40.5t-56 7.5v16q116 0 160 4v-425q0 -34 13 -42.5t59 -8.5v-16q-83 0 -165 -5v93q-18 -43 -59.5 -68.5t-90.5 -25.5z
" />
    <glyph glyph-name="v" unicode="v" horiz-adv-x="522" 
d="M248 -7q-10 26 -164 418q-16 40 -29.5 50.5t-49.5 10.5v16h233v-16q-55 0 -64 -11.5t9 -58.5q50 -125 116 -299q70 193 100 279q22 62 12 76t-72 14v16h178v-16q-42 0 -56.5 -13t-34.5 -69q-80 -218 -147 -397h-31z" />
    <glyph glyph-name="w" unicode="w" horiz-adv-x="811" 
d="M247 -7q-103 257 -155 389q-25 61 -38.5 75.5t-48.5 14.5v16h227v-16q-50 0 -60 -12.5t7 -56.5q10 -26 38 -96.5t50.5 -127t30.5 -75.5l91 245q-31 82 -48 102.5t-57 20.5v16h234v-16q-55 0 -64 -13t9 -60q15 -41 56 -151.5t54 -144.5q31 79 97 262q27 73 17 90t-73 17
v16h192v-16q-48 0 -66.5 -16.5t-46.5 -91.5q-22 -57 -76.5 -200.5t-64.5 -170.5h-29q-80 211 -124 327l-123 -327h-29z" />
    <glyph glyph-name="x" unicode="x" horiz-adv-x="533" 
d="M5 0v16q45 0 63.5 11t55.5 58q19 25 106 144q-49 76 -105 165q-34 54 -51.5 66t-60.5 12v16h234v-16q-46 0 -52 -10t17 -45q47 -73 79 -119q9 12 73 108q28 41 17 53.5t-71 12.5v16h194v-16q-45 0 -62.5 -10t-46.5 -48q-20 -26 -55.5 -77t-38.5 -55q3 -4 52 -80t80 -123
q28 -43 42.5 -53t52.5 -10v-16h-242v16q48 0 56 11.5t-14 48.5q-5 7 -38.5 60.5t-48.5 75.5q-12 -15 -42.5 -59t-36.5 -53q-28 -39 -30.5 -56.5t14 -22.5t62.5 -5v-16h-203z" />
    <glyph glyph-name="y" unicode="y" horiz-adv-x="549" 
d="M113 -219q-45 0 -76.5 25.5t-31.5 68.5q0 30 18.5 49.5t48.5 19.5q26 0 42 -14t16 -39q0 -17 -8.5 -28.5t-18 -16t-18 -10.5t-8.5 -13q0 -25 38 -25t72.5 35.5t55 78.5t34.5 91q-41 96 -174 387q-23 50 -40.5 66t-48.5 16v16h238v-16q-56 0 -63.5 -16t14.5 -62
q56 -128 122 -276q86 231 93 249q25 69 13 87t-79 18v16h192v-16q-41 0 -57 -14.5t-40 -74.5q-79 -204 -159 -411q-15 -38 -27.5 -63.5t-34 -59t-50.5 -51t-63 -17.5z" />
    <glyph glyph-name="z" unicode="z" horiz-adv-x="495" 
d="M24 0v20l328 452h-120q-86 0 -117.5 -32.5t-43.5 -121.5h-18q6 146 6 170h392v-20l-325 -452h127q98 0 133.5 40t44.5 151h18q0 -34 -1.5 -103.5t-2.5 -103.5h-421z" />
    <glyph glyph-name="braceleft" unicode="{" horiz-adv-x="359" 
d="M317 -157q-39 0 -68.5 5t-49.5 15t-33 25t-19.5 34.5t-10 43t-3.5 51v59.5v35q0 78 -24 112q-13 19 -43 29t-57 10v19q27 0 57 10t43 29q24 34 24 112q0 125 5 154q12 76 74 100q39 15 105 15h17v-15h-8q-17 0 -31.5 -4t-24.5 -8t-18 -14.5t-13 -16t-8 -22t-4.5 -22.5
t-2.5 -26.5t-1 -26v-28.5q0 -43 -1 -68t-6 -55.5t-16 -47.5t-28.5 -34t-46 -26.5t-67.5 -14.5q39 -5 67.5 -14.5t46 -26.5t28.5 -34t16 -47.5t6 -55.5t1 -68v-36.5t2 -32.5t5.5 -33t10.5 -25t18 -22.5t27.5 -12.5t38.5 -6h9v-15h-17z" />
    <glyph glyph-name="bar" unicode="|" horiz-adv-x="482" 
d="M214 -236v1000h56v-1000h-56z" />
    <glyph glyph-name="braceright" unicode="}" horiz-adv-x="359" 
d="M25 -157v15h10q17 0 30.5 4t23.5 8t17.5 14.5t12.5 16.5t8 22t5 22.5t2.5 27t0.5 25.5v28q0 43 1.5 68t6.5 55t15.5 47.5t28.5 34.5t46.5 26.5t67.5 14.5q-39 5 -67.5 14.5t-46.5 26.5t-28.5 34.5t-15.5 47.5t-6.5 55t-1.5 68v32t-1 29t-3.5 29.5t-7 23.5t-12 22.5
t-18 15.5t-26 12.5t-34.5 3.5h-8v15h17q34 0 61 -4t46 -12t33 -19.5t22 -26.5t13 -33.5t7 -40.5t2.5 -46.5t-0.5 -52.5v-33q0 -78 24 -112q13 -19 43 -29t57 -10v-20q-27 0 -57 -10t-43 -29q-24 -34 -24 -112q0 -124 -5 -153q-13 -76 -75 -100q-40 -15 -104 -15h-17z" />
    <glyph glyph-name="asciitilde" unicode="~" horiz-adv-x="704" 
d="M498 274q-62 0 -154 46q-82 46 -128 46q-103 0 -173 -92v28q28 47 76.5 86.5t96.5 39.5q64 0 152 -46q2 -1 13.5 -7t14 -7.5t13 -6.5t14 -6.5t12.5 -5.5t14 -5t13 -4t14 -3.5t13.5 -1.5t14.5 -1q83 0 158 93v-29q-26 -51 -71 -87.5t-93 -36.5z" />
    <glyph glyph-name="exclamdown" unicode="&#xa1;" horiz-adv-x="265" 
d="M143 517q0 -117 18 -233q3 -22 12.5 -68.5t16 -84t6.5 -59.5q0 -82 -62 -82q-61 0 -61 82q0 20 6.5 57t15.5 84t13 71q16 101 16 233h19zM134 717q28 0 46.5 -18t18.5 -46q0 -27 -19 -46.5t-46 -19.5t-45.5 19.5t-18.5 46.5q0 28 18 46t46 18z" />
    <glyph glyph-name="cent" unicode="&#xa2;" horiz-adv-x="464" 
d="M252 -69v99q-97 1 -159 66t-62 163q0 102 63.5 167.5t157.5 69.5v87h23v-87q66 -4 108 -37.5t42 -88.5q0 -30 -17.5 -51.5t-47.5 -21.5q-25 0 -41 14.5t-16 38.5q0 22 15.5 35t30.5 21.5t15 18.5q0 24 -26.5 39t-62.5 17v0v0v0v0v-1v0v0v-1v0v-1v0v-1v0v-1v0v-1v0v-1v0
v-1v-1v-1v-1v-1v-1v-1v-1v-1v-1v-1v-1v-1v-1v-1v-1v-1v-1v-1v-1v-1v-1v-1v-1v-1v-1v-1v-1v-1v-1v-1v-1v-1v-1v-1v-1v-1v-1v-1v-1v-1v-1v-1v-1v-1v-1v-1v-1v-1v-1v-1v-1v-1v-1v-1v-1v-1v-1v-1v-1v-1v-1v-1v-1v-1v-1v-1v-1v-1v-1v-1v-2v-1v-1v-1v-1v-1v-1v-1v-1v-1v-2v-1v-1
v-1v-1v-1v-1v-1v-2v-1v-1v-1v-1v-1v-2v-1v-1v-1v-1v-2v-1v-1v-1v-2v-1v-1v-1v-2v-1v-1v-1v-2v-1v-1v-1v-2v-1v-1v-1v-2v-1v-1v-2v-1v-1v-2v-1v-1v-2v-1v-1v-2v-1v-1v-2v-1v-1v-2v-1v-2v-1v-1v-2v-1v-1v-2v-1v-2v-1v-2v-1v-1v-2v-1v-2v-1v-2v-1v-1v-2v-1v-2v-1v-2v-1v-2v-1
v-2v-1v-2v-1v-2v-1v-2v-1v-2v-1v-2v-1v-2v-1v-2v-1v-2v-1v-2v-1v-2v-1v-2v-2v-1v-2v-1v-2v-1v-2v-2v-1v-2v-1v-2v-2v-1v-2v-1v-2v-2v-1v-2v-2v-1v-2v-1v-2v-2v-1v-2v-2v-1v-2v-2v-1v-2v-2v-1v-2v-2v-1v-2v-2v-1v-2v-2v-2v-1v-2v-2v-1v-2v-2v-2v-1v-2v-2v-1v-2v-2v-2v-1v-2
v-2v-2v-1v-2v-2v-2v-2v-1v-2v-2v-2v-2v-1v-2v-2v-2v-2v-1v-2v-2v-2v-2v-1v-2v-2v-2v-2v-2v-2v-1v-2v-2v-2v-2v-2v-2v-1v-2v-2v-2v-2v-9q54 4 92.5 44.5t43.5 98.5v9h16q-1 -73 -44 -122t-108 -57v-100h-23zM252 59v421q-114 -11 -114 -212q0 -198 114 -209z" />
    <glyph glyph-name="sterling" unicode="&#xa3;" horiz-adv-x="486" 
d="M367 -12q-26 0 -52 11.5t-36.5 19.5t-42.5 34q-61 -59 -137 -59q-41 0 -66 20.5t-25 60.5q0 41 28 63.5t71 22.5q51 0 139 -46q11 20 11 46q0 81 -76 161h-129v20h110q-89 97 -89 183q0 78 55 128t140 50q69 0 122 -37t53 -104q0 -32 -17 -56.5t-48 -24.5q-25 0 -40 14.5
t-15 39.5t30.5 49t30.5 39q0 29 -36.5 46t-72.5 17q-58 0 -94 -32t-36 -85q0 -47 21.5 -83.5t60.5 -77.5t55 -66h152v-20h-143q24 -44 21 -96q-4 -65 -40 -124q68 -32 105 -32q40 0 64 20.5t37 70.5q1 0 6 -1.5t7 -1.5q-4 -29 -12 -56t-21.5 -54t-37 -43.5t-53.5 -16.5z
M100 10q68 0 118 58q-72 62 -122 62q-28 0 -48 -14.5t-20 -41.5q0 -30 20.5 -47t51.5 -17z" />
    <glyph glyph-name="currency" unicode="&#xa4;" horiz-adv-x="493" 
d="M282 -10q-97 0 -154.5 86.5t-67.5 216.5h-42v20h40q-1 12 -1 38q0 25 1 38h-40v19h43q11 123 72 210.5t150 87.5q32 0 60.5 -12t37.5 -19t26 -24q4 -5 10 -7q8 -2 16 13t11 38h13q1 -47 2 -131.5t1 -125.5h-18q-1 3 -1.5 8.5t-0.5 8.5q-14 104 -53.5 168.5t-99.5 64.5
q-117 0 -127 -280h229v-19h-230q-1 -13 -1 -39q0 -25 1 -37h230v-20h-229q10 -271 143 -271q65 0 105.5 66.5t41.5 180.5h18v-12q-12 -267 -186 -267z" />
    <glyph glyph-name="yen" unicode="&#xa5;" horiz-adv-x="603" 
d="M158 0v16q70 0 86.5 15.5t16.5 79.5v152h-204v20h204q-45 81 -53 95h-151v20h140q-83 145 -112 199q-28 53 -43 65t-57 12v16h260v-16q-64 0 -73 -15t23 -74q18 -32 75.5 -132t72.5 -129q107 203 128 244q16 32 22 49t7 30t-11.5 18t-30 7t-52.5 2v16h216v-16
q-49 0 -67.5 -16t-58.5 -92q-36 -69 -89 -168h148v-20h-159q-6 -11 -15.5 -28.5t-16 -29.5t-10.5 -21v-16h201v-20h-201v-160q0 -58 17 -72.5t86 -14.5v-16h-299z" />
    <glyph glyph-name="brokenbar" unicode="&#xa6;" horiz-adv-x="482" 
d="M214 309v455h56v-455h-56zM214 -236v495h56v-495h-56z" />
    <glyph glyph-name="section" unicode="&#xa7;" horiz-adv-x="494" 
d="M242 -191q-63 0 -111 35.5t-47 94.5q1 32 19 54t48 22q25 0 41.5 -14.5t16.5 -38.5q0 -19 -10 -32t-22 -18t-22 -13t-10 -18q-1 -24 28.5 -40t65.5 -16q46 0 80.5 28.5t34.5 71.5q1 54 -32.5 89t-106.5 67q-161 68 -158 187q1 47 29 86.5t65 60.5q-64 54 -63 136
q1 73 46.5 119t121.5 46q63 0 110.5 -36t46.5 -95q-1 -32 -18.5 -53.5t-47.5 -21.5q-25 0 -42 15t-16 38q0 19 10 31.5t21.5 17.5t21.5 13t10 18q0 23 -29 40t-64 17q-52 0 -83.5 -28t-31.5 -72q0 -51 33.5 -86t105.5 -70q76 -35 117.5 -76t40.5 -111q-1 -47 -29 -87
t-66 -61q64 -54 64 -129q-1 -79 -50.5 -125t-117.5 -46zM334 119q24 18 36.5 45.5t12.5 53.5q1 44 -32.5 76t-98.5 63q-68 33 -88 48q-47 -40 -49 -95q0 -49 32.5 -80.5t97.5 -61.5q66 -32 89 -49z" />
    <glyph glyph-name="dieresis" unicode="&#xa8;" 
d="M332 553q-21 0 -36.5 15t-15.5 36t15 36t37 15q21 0 36 -15t15 -36t-15 -36t-36 -15zM151 553q-21 0 -36 14.5t-15 36.5q0 21 15 36t36 15q22 0 37 -15t15 -36q0 -22 -15 -36.5t-37 -14.5z" />
    <glyph glyph-name="copyright" unicode="&#xa9;" horiz-adv-x="770" 
d="M387 -10q-147 0 -249 101.5t-102 248.5q0 146 102.5 248.5t248.5 102.5t249 -102.5t103 -248.5q0 -147 -102.5 -248.5t-249.5 -101.5zM386 11q135 0 229 97t94 232t-94.5 232.5t-228.5 97.5q-135 0 -228.5 -97.5t-93.5 -232.5t93.5 -232t228.5 -97zM402 119
q-90 0 -149.5 59.5t-59.5 159.5q0 99 61 158t145 59q59 0 97 -25q20 -13 25 -13q15 3 18 33h13q0 -26 0.5 -80t0.5 -80h-14q0 7 -1 11q-23 139 -138 139q-64 0 -98 -55.5t-34 -146.5q0 -92 35 -145.5t106 -53.5q63 0 99.5 41t38.5 108h14v-8q0 -65 -41 -113t-118 -48z" />
    <glyph glyph-name="ordfeminine" unicode="&#xaa;" horiz-adv-x="446" 
d="M159 380q-89 0 -89 77t136 118q30 8 46 10v14q0 42 -12 64.5t-49 22.5q-58 0 -58 -30q0 -8 17 -16t17 -29q0 -13 -11.5 -22t-26.5 -9q-20 0 -32.5 13t-12.5 33q0 36 33.5 55.5t86.5 19.5q62 0 92.5 -28.5t30.5 -92.5v-136q0 -35 22 -35q25 0 25 57v12h15v-21
q0 -77 -70 -77q-62 0 -68 55q-10 -23 -36.5 -39t-55.5 -16zM193 408q19 0 33.5 16.5t20.5 35.5q3 9 3 39q2 46 2 71q-16 -2 -29 -7q-35 -13 -53.5 -33t-18.5 -63q0 -59 42 -59z" />
    <glyph glyph-name="guillemotleft" unicode="&#xab;" horiz-adv-x="534" 
d="M488 1l-252 237v19l252 237v-20l-155 -226l155 -227v-20zM295 1l-252 237v19l252 237v-20l-156 -226l156 -227v-20z" />
    <glyph glyph-name="logicalnot" unicode="&#xac;" horiz-adv-x="601" 
d="M284 577l-14 146l29 -146h-15zM318 574l-12 3l23 144zM264 571l-52 137l65 -132zM337 564l-12 7l61 134zM245 562l-85 117l97 -110zM353 552l-9 10l93 113zM229 547l-113 93l123 -83zM365 534l-6 12l117 85zM220 528l-135 61l139 -48zM372 514l-4 13l137 52zM295 489
q-66 -1 -66 14q0 28 19 47q17 17 47 19q27 0 47 -16q18 -15 19 -50q0 -14 -66 -14zM214 509l-146 23l148 -9zM373 495l1 12l146 14zM405 300q-24 0 -36 10t-11 31q0 39 22 53q20 12 51 12q32 0 48 -8q18 -6 15 -19q-4 -15 -14 -34q-10 -21 -40 -22q-26 0 -32 10q-3 12 0 22
q3 12 11 15q4 2 17 2v-9h-5h-3q-3 0 -7 -4q-1 -1 -1 -3t-1 -3q0 -13 3 -18q2 -2 18 -4q21 0 33 15q11 14 13 36q0 9 -22 13q-7 1 -34 4q-30 0 -47 -14q-17 -12 -17 -42q-1 -30 22 -32h56q21 0 27 6q4 6 22 13q5 2 41 14q26 6 26 29q1 46 -29 51q-23 4 -73 17
q-19 5 -42.5 10.5t-27.5 6.5q-14 3 -74 13h-51q-57 -9 -89 -11q-18 0 -67 -37q-20 -16 -23 -18q-6 -6 -6 -32q0 -31 7 -44q6 -12 37 -12q18 0 37 9q17 9 19 27q0 11 -3 19q-1 6 -17 7q-2 0 -6 -3q-3 -3 -3 -6v-11q0 -3 8 -4q3 0 5 -1q1 0 2 1q0 8 -1 9q0 2 -3 6q1 1 2 1
q2 0 5 1l3 -9q3 -8 -1 -15q-2 -2 -15 -2q-11 1 -14 14q-1 12 3 19q6 8 17 9q12 0 19 -6q6 -6 6 -28q0 -18 -15 -32q-14 -12 -44 -18t-48 18q-16 23 -13 53q3 27 43 67q39 41 184 38q141 -1 215 -34q71 -30 67 -67q-4 -36 -27 -42q-21 -5 -57 -21q-35 -14 -85 -16zM433 -87
q-1 54 -12 71q-13 21 -29 55q-32 64 -44 105q-8 27 -16 139q-2 36 -2 39q0 20 -2 38v43h9v-43q3 -25 3 -38q0 -4 1.5 -17t1.5 -22q8 -110 15 -139q10 -40 44 -105q22 -44 29 -55q9 -14 13 -71h-11zM150 -128q12 24 12 54q0 17 2 61q0 13 1 17q0 10 2 19q4 90 5 103
q2 36 13 97q7 42 8 45q0 5 9 47q4 20 10 53q3 33 8 63h9q-2 -12 -3.5 -26.5t-2.5 -23t-2 -13.5q-1 -13 -9 -53q-6 -39 -10 -47q-2 -3 -8 -45q-9 -64 -12 -97q0 -10 -1.5 -44.5t-2.5 -58.5q0 -14 -2 -19q0 -8 -2 -17q0 -10 -0.5 -30.5t-1.5 -30.5q0 -28 -12 -54h-10z
M209 -143q6 16 22 61q5 18 7 81v20v18q-1 44 -1 94q0 5 4 97q1 19 1 37q0 7 3 36q5 43 6 64q0 25 8 61h11q-6 -42 -9 -61q0 -4 -2 -25.5t-3 -38.5q-1 -10 -2 -21.5t-1 -14.5q0 -2 -0.5 -6.5t-1 -13.5t-0.5 -17q-2 -27 -3 -61t-1 -36q0 -49 1 -94v-18v-20q0 -61 -7 -81
q-5 -16 -21 -61h-11zM324 -207l5 27q0 52 -6 84t-12 77q-3 35 -5 40q0 19 -2 39q-7 91 -7 93q-2 42 -2 100v160h11v-160q0 -78 1 -100q0 -36 7 -93q3 -30 3 -39q0 -5 5 -40q2 -14 5.5 -40t5.5 -37q3 -22 5 -84l-3 -27h-11z" />
    <glyph glyph-name="registered" unicode="&#xae;" horiz-adv-x="770" 
d="M387 -10q-147 0 -249 101.5t-102 248.5q0 146 102.5 248.5t248.5 102.5t249 -102.5t103 -248.5q0 -147 -102.5 -248.5t-249.5 -101.5zM386 10q134 0 228 97.5t94 232.5q0 134 -94 231.5t-228 97.5q-135 0 -228 -97t-93 -232q0 -136 93 -233t228 -97zM526 131
q-74 0 -82 122q-2 36 -6.5 54.5t-20 30.5t-44.5 12h-46v-160q0 -28 8.5 -34.5t47.5 -6.5v-14h-174v14q38 0 46.5 7.5t8.5 37.5v307q0 27 -9 34t-46 7v13h184q143 0 143 -95q0 -50 -31.5 -75t-80.5 -29q69 -9 84 -104q1 -10 3 -27t3.5 -25.5t4 -18t7.5 -13.5t13 -4
q16 0 24 21.5t8 43.5h13v-9q0 -38 -14 -63.5t-44 -25.5zM327 365h55q48 0 67 21.5t19 69.5q0 43 -19 64.5t-63 21.5h-27q-20 0 -26 -8.5t-6 -35.5v-133z" />
    <glyph glyph-name="macron" unicode="&#xaf;" 
d="M108 566v63h265v-63h-265z" />
    <glyph glyph-name="macron" unicode="&#x2c9;" 
d="M108 566v63h265v-63h-265z" />
    <glyph glyph-name="degree" unicode="&#xb0;" horiz-adv-x="310" 
d="M155 452q-53 0 -89 36t-36 89t37 89.5t89 36.5t88.5 -36.5t36.5 -89.5q0 -52 -37 -88.5t-89 -36.5zM156 486q37 0 63.5 27t26.5 65q0 37 -26.5 63.5t-63.5 26.5q-38 0 -64.5 -26.5t-26.5 -63.5q0 -39 26 -65.5t65 -26.5z" />
    <glyph glyph-name="plusminus" unicode="&#xb1;" horiz-adv-x="792" 
d="M394 659q48 57 143 57q35 0 101 -23q26 1 68 16v-631q0 -42 12 -52t63 -10v-16h-232v16q39 0 51 11t12 52v501q-48 0 -48 44q0 15 15.5 31t15.5 20q0 11 -19 18t-38 7q-51 0 -74 -32t-23 -99v-81h108v-19h-108v-397q0 -37 11.5 -46.5t53.5 -9.5v-16h-218v16
q38 0 49.5 10.5t11.5 52.5v390h-171v-393q0 -41 12 -50.5t62 -9.5v-16h-238v16q48 0 59.5 10t11.5 53v390h-75v19h75v11q2 96 53 149.5t142 53.5q81 0 114 -43zM353 564q-42 4 -42 42q0 16 8.5 26.5t17.5 17t9 12.5q0 11 -23 18t-42 7q-50 0 -76.5 -35t-26.5 -96v-68h171v25
q0 30 4 51z" />
    <glyph glyph-name="twosuperior" unicode="&#xb2;" horiz-adv-x="401" 
d="M63 274q-1 51 40 103q16 22 56.5 59.5t62 71.5t21.5 79q0 98 -81 98q-26 0 -47.5 -19t-15.5 -43q1 -6 19 -9.5t35 -12t17 -27.5t-12.5 -31.5t-35.5 -12.5q-26 0 -39.5 21.5t-13.5 53.5q0 44 35.5 71.5t86.5 27.5q60 0 99 -29.5t39 -83.5q0 -19 -7.5 -36.5t-16.5 -30
t-28.5 -28t-30.5 -23t-35 -23t-32 -20.5q-51 -33 -78 -84q19 4 80 4q12 0 39 -2t38 -2q31 0 42.5 10t18.5 41h14l-17 -121q-7 -2 -22 -2q-20 0 -66.5 2.5t-66.5 2.5q-77 0 -98 -5z" />
    <glyph glyph-name="threesuperior" unicode="&#xb3;" horiz-adv-x="383" 
d="M180 271q-52 0 -85.5 26.5t-33.5 71.5q0 23 13 38.5t35 15.5q17 0 28.5 -12t11.5 -29q0 -19 -18.5 -35t-18.5 -24q0 -16 18 -27t44 -11q35 0 54 30.5t19 85.5q0 47 -14 73t-56 26q-12 0 -30 -4t-21 -4q-5 0 -9 4t-4 9q0 13 17 13q8 0 24 -1t25 -1q35 0 46.5 23.5
t11.5 63.5q0 86 -66 86q-22 0 -38 -9.5t-16 -25.5q0 -6 22.5 -17t22.5 -31q0 -15 -11.5 -26.5t-30.5 -11.5q-20 0 -33 15.5t-13 39.5q0 39 32.5 59.5t77.5 20.5q58 0 95 -26t37 -73q0 -39 -30.5 -63t-75.5 -31q57 -6 87.5 -36t30.5 -75q0 -53 -43.5 -90.5t-104.5 -37.5z" />
    <glyph glyph-name="acute" unicode="&#xb4;" 
d="M222 529l-8 10q33 38 119 138q21 25 47 25q18 0 29.5 -12t11.5 -29q0 -25 -30 -42q-28 -15 -84.5 -45t-84.5 -45z" />
    <glyph glyph-name="mu" unicode="&#xb5;" horiz-adv-x="551" 
d="M5 -209v16q47 0 59.5 10.5t12.5 51.5v550q0 34 -11.5 43.5t-56.5 9.5v16q96 0 161 4v-365q0 -100 84 -100q52 0 85.5 42.5t33.5 97.5v257q0 33 -11 40.5t-56 7.5v16q101 0 160 4v-425q0 -34 12.5 -42.5t60.5 -8.5v-16q-84 0 -166 -5v93q-18 -43 -59.5 -68.5t-90.5 -25.5
q-37 0 -54 13v-139q0 -36 16 -48.5t60 -12.5v-16h-240z" />
    <glyph glyph-name="mu" unicode="&#x3bc;" horiz-adv-x="551" 
d="M5 -209v16q47 0 59.5 10.5t12.5 51.5v550q0 34 -11.5 43.5t-56.5 9.5v16q96 0 161 4v-365q0 -100 84 -100q52 0 85.5 42.5t33.5 97.5v257q0 33 -11 40.5t-56 7.5v16q101 0 160 4v-425q0 -34 12.5 -42.5t60.5 -8.5v-16q-84 0 -166 -5v93q-18 -43 -59.5 -68.5t-90.5 -25.5
q-37 0 -54 13v-139q0 -36 16 -48.5t60 -12.5v-16h-240z" />
    <glyph glyph-name="paragraph" unicode="&#xb6;" horiz-adv-x="379" 
d="M212 -46v377q-87 6 -137 56.5t-50 134.5q0 83 56.5 131t140.5 48h154v-15h-59v-659l-21 -14v673q-44 0 -44 -54v-649z" />
    <glyph glyph-name="periodcentered" unicode="&#xb7;" horiz-adv-x="222" 
d="M111 300q-28 0 -46 18.5t-18 46.5q0 27 18.5 46t45.5 19t46 -19t19 -46q0 -29 -18 -47t-47 -18z" />
    <glyph glyph-name="periodcentered" unicode="&#x2219;" horiz-adv-x="222" 
d="M111 300q-28 0 -46 18.5t-18 46.5q0 27 18.5 46t45.5 19t46 -19t19 -46q0 -29 -18 -47t-47 -18z" />
    <glyph glyph-name="cedilla" unicode="&#xb8;" 
d="M257 -226q-78 0 -136 48l10 15q55 -33 112 -33q32 0 49.5 14.5t17.5 40.5q0 24 -17.5 38t-50.5 14q-4 0 -9.5 -0.5t-7.5 -0.5v88h23v-58q18 4 36 4q39 0 64.5 -22t25.5 -57q0 -44 -34 -67.5t-83 -23.5z" />
    <glyph glyph-name="onesuperior" unicode="&#xb9;" horiz-adv-x="331" 
d="M61 275v15q49 0 60.5 9t11.5 46v236q0 24 -9 30t-63 6v14q23 3 39 6t35.5 10.5t33 21t20.5 32.5h20v-361q0 -33 11 -41.5t59 -8.5v-15h-218z" />
    <glyph glyph-name="ordmasculine" unicode="&#xba;" horiz-adv-x="448" 
d="M225 382q-66 0 -111 43.5t-45 115.5q0 71 47 115.5t109 44.5q65 0 109.5 -44t44.5 -116q0 -70 -45 -114.5t-109 -44.5zM225 397q21 0 35 12t20.5 34t9 44.5t2.5 53.5q0 69 -13.5 107t-54.5 38q-67 0 -67 -149q0 -29 2 -49.5t8 -43.5t21 -35t37 -12z" />
    <glyph glyph-name="guillemotright" unicode="&#xbb;" horiz-adv-x="534" 
d="M241 0v20l155 226l-155 227v20l252 -237v-19zM48 0v20l155 226l-155 227v20l252 -237v-19z" />
    <glyph glyph-name="onequarter" unicode="&#xbc;" horiz-adv-x="759" 
d="M61 275v15q49 0 60.5 9t11.5 46v236q0 24 -9 30t-63 6v14q23 3 39 6t35.5 10.5t33 21t20.5 32.5h20v-361q0 -33 11 -41.5t59 -8.5v-15h-218zM170 -16l400 731h35l-400 -731h-35zM508 0v15q46 0 56 7t10 36v53h-154v18l181 295h49v-291h56v-22h-56v-54q0 -28 9.5 -35
t46.5 -7v-15h-198zM441 133h133v218z" />
    <glyph glyph-name="onehalf" unicode="&#xbd;" horiz-adv-x="797" 
d="M61 275v15q49 0 60.5 9t11.5 46v236q0 24 -9 30t-63 6v14q23 3 39 6t35.5 10.5t33 21t20.5 32.5h20v-361q0 -33 11 -41.5t59 -8.5v-15h-218zM170 -16l400 731h35l-400 -731h-35zM472 -2q-1 51 40 103q16 22 56.5 59.5t62 71.5t21.5 79q0 98 -80 98q-27 0 -48 -19t-16 -43
q1 -6 19 -9.5t35 -12t17 -27.5q0 -20 -12.5 -32t-34.5 -12q-26 0 -40 21.5t-14 53.5q0 44 35.5 71.5t86.5 27.5q60 0 99 -29.5t39 -83.5q0 -19 -7.5 -36.5t-16.5 -30t-28.5 -28t-30.5 -23t-35 -23t-32 -20.5q-52 -34 -78 -84q19 4 81 4q11 0 37.5 -2t38.5 -2q31 0 42.5 10
t18.5 41h14l-17 -121q-7 -2 -22 -2q-20 0 -66.5 2.5t-66.5 2.5q-77 0 -98 -5z" />
    <glyph glyph-name="threequarters" unicode="&#xbe;" horiz-adv-x="799" 
d="M187 271q-52 0 -85.5 26.5t-33.5 71.5q0 23 13 38.5t35 15.5q17 0 28.5 -12t11.5 -29q0 -19 -18.5 -35t-18.5 -24q0 -16 18 -27t44 -11q35 0 54 30.5t19 85.5q0 47 -14 73t-56 26q-12 0 -30 -4t-21 -4q-5 0 -9 4t-4 9q0 13 17 13q8 0 24 -1t25 -1q35 0 46.5 23.5
t11.5 63.5q0 86 -66 86q-22 0 -38 -9.5t-16 -25.5q0 -6 22.5 -17t22.5 -31q0 -15 -11.5 -26.5t-30.5 -11.5q-20 0 -33 15.5t-13 39.5q0 39 32.5 59.5t77.5 20.5q58 0 95 -26t37 -73q0 -39 -30.5 -63t-75.5 -31q57 -6 87.5 -36t30.5 -75q0 -53 -43.5 -90.5t-104.5 -37.5z
M210 -16l400 731h35l-400 -731h-35zM548 0v15q46 0 56 7t10 36v53h-154v18l181 295h49v-291h56v-22h-56v-54q0 -28 9.5 -35t46.5 -7v-15h-198zM480 133h134v218z" />
    <glyph glyph-name="questiondown" unicode="&#xbf;" horiz-adv-x="439" 
d="M300 523v-27q0 -40 -12.5 -72t-26 -47.5t-36.5 -35.5q-42 -37 -60 -75t-18 -101q0 -156 128 -156q38 0 71 21.5t33 54.5q0 14 -26 27q-2 1 -7 3l-6 3q-42 18 -42 54q1 23 17.5 36.5t39.5 13.5q35 0 53.5 -26.5t18.5 -62.5q0 -66 -51.5 -104.5t-120.5 -38.5q-93 0 -153 49
t-60 140q0 67 37 111t100 82q31 19 45.5 30t30.5 28.5t21.5 39t5.5 53.5h18zM285 716q28 0 46 -18t18 -46q0 -27 -18.5 -46t-45.5 -19t-45.5 19t-18.5 46q0 28 18 46t46 18z" />
    <glyph glyph-name="Agrave" unicode="&#xc0;" horiz-adv-x="692" 
d="M5 0v16q48 0 69.5 23.5t57.5 119.5q15 40 95.5 254.5t112.5 298.5h44q208 -590 220 -624q17 -46 32.5 -59t50.5 -13v-16h-266v16q67 0 79.5 15t-7.5 77q-7 20 -21.5 63t-18.5 56h-273q-19 -53 -32 -90q-29 -75 -16 -98t97 -23v-16h-224zM188 248h258q-20 57 -62 181.5
t-62 181.5q-9 -23 -59.5 -160t-74.5 -203zM405 747q-57 30 -169 90q-30 17 -30 42q0 17 11.5 29t29.5 12q26 0 47 -25q31 -35 118 -138z" />
    <glyph glyph-name="Aacute" unicode="&#xc1;" horiz-adv-x="692" 
d="M5 0v16q48 0 69.5 23.5t57.5 119.5q15 40 95.5 254.5t112.5 298.5h44q208 -590 220 -624q17 -46 32.5 -59t50.5 -13v-16h-266v16q67 0 79.5 15t-7.5 77q-7 20 -21.5 63t-18.5 56h-273q-19 -53 -32 -90q-29 -75 -16 -98t97 -23v-16h-224zM188 248h258q-20 57 -62 181.5
t-62 181.5q-9 -23 -59.5 -160t-74.5 -203zM305 747l-8 10q33 38 119 138q21 25 47 25q18 0 29.5 -12t11.5 -29q0 -25 -30 -42q-28 -15 -84.5 -45t-84.5 -45z" />
    <glyph glyph-name="Acircumflex" unicode="&#xc2;" horiz-adv-x="692" 
d="M5 0v16q48 0 69.5 23.5t57.5 119.5q15 40 95.5 254.5t112.5 298.5h44q208 -590 220 -624q17 -46 32.5 -59t50.5 -13v-16h-266v16q67 0 79.5 15t-7.5 77q-7 20 -21.5 63t-18.5 56h-273q-19 -53 -32 -90q-29 -75 -16 -98t97 -23v-16h-224zM188 248h258q-20 57 -62 181.5
t-62 181.5q-9 -23 -59.5 -160t-74.5 -203zM231 744l-11 5l99 158h59l101 -158l-13 -5l-118 92z" />
    <glyph glyph-name="Atilde" unicode="&#xc3;" horiz-adv-x="692" 
d="M5 0v16q48 0 69.5 23.5t57.5 119.5q15 40 95.5 254.5t112.5 298.5h44q208 -590 220 -624q17 -46 32.5 -59t50.5 -13v-16h-266v16q67 0 79.5 15t-7.5 77q-7 20 -21.5 63t-18.5 56h-273q-19 -53 -32 -90q-29 -75 -16 -98t97 -23v-16h-224zM188 248h258q-20 57 -62 181.5
t-62 181.5q-9 -23 -59.5 -160t-74.5 -203zM431 770q-33 -2 -81 17q-62 22 -73 22q-30 0 -41 -35l-13 4q6 36 28 63t56 27q22 0 73 -17q58 -20 72 -20q32 0 41 30q2 0 14 -4q-18 -86 -76 -87z" />
    <glyph glyph-name="Adieresis" unicode="&#xc4;" horiz-adv-x="692" 
d="M5 0v16q48 0 69.5 23.5t57.5 119.5q15 40 95.5 254.5t112.5 298.5h44q208 -590 220 -624q17 -46 32.5 -59t50.5 -13v-16h-266v16q67 0 79.5 15t-7.5 77q-7 20 -21.5 63t-18.5 56h-273q-19 -53 -32 -90q-29 -75 -16 -98t97 -23v-16h-224zM188 248h258q-20 57 -62 181.5
t-62 181.5q-9 -23 -59.5 -160t-74.5 -203zM444 771q-21 0 -36.5 15t-15.5 36t15 36t37 15q21 0 36 -15t15 -36t-15 -36t-36 -15zM263 771q-21 0 -36 14.5t-15 36.5q0 21 15 36t36 15q22 0 37 -15t15 -36q0 -22 -15 -36.5t-37 -14.5z" />
    <glyph glyph-name="Aring" unicode="&#xc5;" horiz-adv-x="692" 
d="M5 0v16q48 0 69.5 23.5t57.5 119.5q95 249 202 539q-32 8 -52 34t-20 60q0 41 29 70t70 29t69.5 -29t28.5 -70q0 -33 -20 -58.5t-51 -34.5q88 -247 216 -611q17 -46 32.5 -59t50.5 -13v-16h-266v16q67 0 79.5 15t-7.5 77q-7 20 -21.5 63t-18.5 56h-273q-19 -53 -32 -90
q-29 -75 -16 -98t97 -23v-16h-224zM361 723q29 0 49 20.5t20 49.5t-20 49t-49 20t-49.5 -20t-20.5 -49q0 -30 20 -50t50 -20zM188 248h258q-20 57 -62 181.5t-62 181.5q-9 -23 -59.5 -160t-74.5 -203z" />
    <glyph glyph-name="AE" unicode="&#xc6;" horiz-adv-x="946" 
d="M-71 0v16q49 0 75.5 23.5t82.5 119.5q192 330 276 473q18 30 13.5 42t-35.5 12h-78v15h610q2 -28 6.5 -114t5.5 -99h-16l-3 26q-12 102 -55 136t-152 36h-49q-63 -1 -77 -13.5t-14 -72.5v-219h90q80 0 105 27t26 118h17v-313h-17q-2 91 -27 121t-102 30h-92v-276
q0 -47 16 -59.5t70 -12.5h41q66 0 106.5 8t71 32t45 66t20.5 111h15q-3 -189 -3 -233h-573v16q62 0 77 12.5t15 63.5v135h-269q-4 -8 -21.5 -38.5t-27.5 -47.5q-46 -76 -38.5 -100.5t91.5 -24.5v-16h-226zM164 248h256v424h-12q-68 -119 -244 -424z" />
    <glyph glyph-name="Ccedilla" unicode="&#xc7;" horiz-adv-x="664" 
d="M366 -226q-78 0 -136 48l10 15q55 -33 112 -33q32 0 49.5 14.5t17.5 40.5q0 24 -18 38t-50 14q-4 0 -9.5 -0.5t-7.5 -0.5v77q-137 11 -219 110.5t-82 254.5q0 165 93 264.5t236 99.5q99 0 166 -43q35 -21 41 -21q23 3 28 54h14q0 -30 1 -84.5t1.5 -98.5t0.5 -83h-16
q-1 2 -1.5 8t-0.5 9q-18 116 -78.5 179t-154.5 63q-106 0 -163 -97.5t-57 -249.5t59.5 -246t181.5 -94q100 0 161.5 72.5t63.5 185.5h18v-14q-2 -72 -28 -131t-86 -99t-147 -40h-9v-46q18 4 36 4q39 0 64.5 -22t25.5 -57q0 -44 -34 -67.5t-83 -23.5z" />
    <glyph glyph-name="Egrave" unicode="&#xc8;" horiz-adv-x="628" 
d="M10 0v16q63 0 77.5 12.5t14.5 63.5v532q0 41 -15.5 51.5t-76.5 10.5v15h546q6 -102 11 -213h-15l-4 24q-12 105 -56 139.5t-155 34.5h-45q-63 -1 -77 -13.5t-14 -72.5v-219h91q80 0 104.5 27.5t25.5 117.5h17v-313h-17q-2 91 -27 121t-101 30h-93v-276q0 -47 16 -59.5
t71 -12.5h42q66 0 106 8.5t70.5 32.5t45 66t19.5 110h15q-3 -189 -3 -233h-573zM384 747q-57 30 -169 90q-30 17 -30 42q0 17 11.5 29t29.5 12q26 0 47 -25q31 -35 118 -138z" />
    <glyph glyph-name="Eacute" unicode="&#xc9;" horiz-adv-x="628" 
d="M10 0v16q63 0 77.5 12.5t14.5 63.5v532q0 41 -15.5 51.5t-76.5 10.5v15h546q6 -102 11 -213h-15l-4 24q-12 105 -56 139.5t-155 34.5h-45q-63 -1 -77 -13.5t-14 -72.5v-219h91q80 0 104.5 27.5t25.5 117.5h17v-313h-17q-2 91 -27 121t-101 30h-93v-276q0 -47 16 -59.5
t71 -12.5h42q66 0 106 8.5t70.5 32.5t45 66t19.5 110h15q-3 -189 -3 -233h-573zM272 747l-8 10q33 38 119 138q21 25 47 25q18 0 29.5 -12t11.5 -29q0 -25 -30 -42q-28 -15 -84.5 -45t-84.5 -45z" />
    <glyph glyph-name="Ecircumflex" unicode="&#xca;" horiz-adv-x="628" 
d="M10 0v16q63 0 77.5 12.5t14.5 63.5v532q0 41 -15.5 51.5t-76.5 10.5v15h546q6 -102 11 -213h-15l-4 24q-12 105 -56 139.5t-155 34.5h-45q-63 -1 -77 -13.5t-14 -72.5v-219h91q80 0 104.5 27.5t25.5 117.5h17v-313h-17q-2 91 -27 121t-101 30h-93v-276q0 -47 16 -59.5
t71 -12.5h42q66 0 106 8.5t70.5 32.5t45 66t19.5 110h15q-3 -189 -3 -233h-573zM215 744l-11 5l99 158h59l101 -158l-13 -5l-118 92z" />
    <glyph glyph-name="Edieresis" unicode="&#xcb;" horiz-adv-x="628" 
d="M10 0v16q63 0 77.5 12.5t14.5 63.5v532q0 41 -15.5 51.5t-76.5 10.5v15h546q6 -102 11 -213h-15l-4 24q-12 105 -56 139.5t-155 34.5h-45q-63 -1 -77 -13.5t-14 -72.5v-219h91q80 0 104.5 27.5t25.5 117.5h17v-313h-17q-2 91 -27 121t-101 30h-93v-276q0 -47 16 -59.5
t71 -12.5h42q66 0 106 8.5t70.5 32.5t45 66t19.5 110h15q-3 -189 -3 -233h-573zM412 771q-21 0 -36.5 15t-15.5 36t15 36t37 15q21 0 36 -15t15 -36t-15 -36t-36 -15zM231 771q-21 0 -36 14.5t-15 36.5q0 21 15 36t36 15q22 0 37 -15t15 -36q0 -22 -15 -36.5t-37 -14.5z" />
    <glyph glyph-name="Igrave" unicode="&#xcc;" horiz-adv-x="304" 
d="M11 0v16q61 0 76.5 11.5t15.5 58.5v529q0 49 -14 60t-78 11v15h282v-15q-62 0 -76.5 -11t-14.5 -58v-535q0 -45 15.5 -55.5t75.5 -10.5v-16h-282zM212 747q-57 30 -169 90q-30 17 -30 42q0 17 11.5 29t29.5 12q26 0 47 -25q31 -35 118 -138z" />
    <glyph glyph-name="Iacute" unicode="&#xcd;" horiz-adv-x="304" 
d="M11 0v16q61 0 76.5 11.5t15.5 58.5v529q0 49 -14 60t-78 11v15h282v-15q-62 0 -76.5 -11t-14.5 -58v-535q0 -45 15.5 -55.5t75.5 -10.5v-16h-282zM107 747l-8 10q33 38 119 138q21 25 47 25q18 0 29.5 -12t11.5 -29q0 -25 -30 -42q-28 -15 -84.5 -45t-84.5 -45z" />
    <glyph glyph-name="Icircumflex" unicode="&#xce;" horiz-adv-x="304" 
d="M11 0v16q61 0 76.5 11.5t15.5 58.5v529q0 49 -14 60t-78 11v15h282v-15q-62 0 -76.5 -11t-14.5 -58v-535q0 -45 15.5 -55.5t75.5 -10.5v-16h-282zM39 747l-11 5l99 158h59l101 -158l-13 -5l-118 92z" />
    <glyph glyph-name="Idieresis" unicode="&#xcf;" horiz-adv-x="304" 
d="M12 0v16q61 0 76.5 11.5t15.5 58.5v529q0 49 -14 60t-78 11v15h282v-15q-62 0 -76.5 -11t-14.5 -58v-535q0 -45 15.5 -55.5t75.5 -10.5v-16h-282zM243 772q-21 0 -36.5 15t-15.5 36t15 36t37 15q21 0 36 -15t15 -36t-15 -36t-36 -15zM62 772q-21 0 -36 14.5t-15 36.5
q0 21 15 36t36 15q22 0 37 -15t15 -36q0 -22 -15 -36.5t-37 -14.5z" />
    <glyph glyph-name="Eth" unicode="&#xd0;" horiz-adv-x="702" 
d="M17 0v16q62 0 77 13t15 68v275h-84v22h84v224q0 46 -15.5 57t-76.5 11v15h320q153 0 241.5 -93t88.5 -252q0 -165 -86.5 -260.5t-244.5 -95.5h-319zM318 16q59 0 102.5 19.5t68.5 49.5t39.5 76t19 89.5t4.5 100.5q0 335 -235 335q-75 0 -92 -11.5t-17 -60.5v-220h172v-22
h-172v-282q0 -48 18 -61t92 -13z" />
    <glyph glyph-name="Ntilde" unicode="&#xd1;" horiz-adv-x="714" 
d="M19 0v16q60 0 75 12.5t15 57.5v529q0 48 -15 59.5t-74 11.5v15h183q11 -16 400 -555v467q0 48 -17 60.5t-84 12.5v15h214v-15q-57 0 -73.5 -12.5t-16.5 -61.5v-617h-32q-52 72 -216.5 300t-247.5 343v-554q0 -42 16 -55t80 -13v-16h-207zM453 770q-33 -2 -81 17
q-62 22 -73 22q-30 0 -41 -35l-13 4q6 36 28 63t56 27q22 0 73 -17q58 -20 72 -20q32 0 41 30q2 0 14 -4q-18 -86 -76 -87z" />
    <glyph glyph-name="Ograve" unicode="&#xd2;" horiz-adv-x="732" 
d="M367 -14q-147 0 -240.5 104t-93.5 264q0 157 94.5 259.5t239.5 102.5q144 0 238.5 -104t94.5 -264q0 -155 -94.5 -258.5t-238.5 -103.5zM365 4q62 0 107.5 31.5t69.5 84t35.5 110.5t11.5 123q0 63 -13 122t-38.5 111t-70 83t-102.5 31q-60 0 -104.5 -31t-69 -83
t-36 -110.5t-11.5 -122.5t11.5 -122.5t36 -111t69.5 -84t104 -31.5zM434 747q-57 30 -169 90q-30 17 -30 42q0 17 11.5 29t29.5 12q26 0 47 -25q31 -35 118 -138z" />
    <glyph glyph-name="Oacute" unicode="&#xd3;" horiz-adv-x="732" 
d="M367 -14q-147 0 -240.5 104t-93.5 264q0 157 94.5 259.5t239.5 102.5q144 0 238.5 -104t94.5 -264q0 -155 -94.5 -258.5t-238.5 -103.5zM365 4q62 0 107.5 31.5t69.5 84t35.5 110.5t11.5 123q0 63 -13 122t-38.5 111t-70 83t-102.5 31q-60 0 -104.5 -31t-69 -83
t-36 -110.5t-11.5 -122.5t11.5 -122.5t36 -111t69.5 -84t104 -31.5zM320 747l-8 10q33 38 119 138q21 25 47 25q18 0 29.5 -12t11.5 -29q0 -25 -30 -42q-28 -15 -84.5 -45t-84.5 -45z" />
    <glyph glyph-name="Ocircumflex" unicode="&#xd4;" horiz-adv-x="732" 
d="M367 -14q-147 0 -240.5 104t-93.5 264q0 157 94.5 259.5t239.5 102.5q144 0 238.5 -104t94.5 -264q0 -155 -94.5 -258.5t-238.5 -103.5zM365 4q62 0 107.5 31.5t69.5 84t35.5 110.5t11.5 123q0 63 -13 122t-38.5 111t-70 83t-102.5 31q-60 0 -104.5 -31t-69 -83
t-36 -110.5t-11.5 -122.5t11.5 -122.5t36 -111t69.5 -84t104 -31.5zM244 745l-11 5l99 158h59l101 -158l-13 -5l-118 92z" />
    <glyph glyph-name="Otilde" unicode="&#xd5;" horiz-adv-x="732" 
d="M367 -16q-147 0 -240.5 104t-93.5 264q0 157 94.5 259.5t239.5 102.5q144 0 238.5 -104t94.5 -264q0 -155 -94.5 -258.5t-238.5 -103.5zM365 2q62 0 107.5 31.5t69.5 84t35.5 110.5t11.5 123q0 63 -13 122t-38.5 111t-70 83t-102.5 31q-60 0 -104.5 -31t-69 -83
t-36 -110.5t-11.5 -122.5t11.5 -122.5t36 -111t69.5 -84t104 -31.5zM429 770q-33 -2 -81 17q-62 22 -73 22q-30 0 -41 -35l-13 4q6 36 28 63t56 27q22 0 73 -17q58 -20 72 -20q32 0 41 30q2 0 14 -4q-18 -86 -76 -87z" />
    <glyph glyph-name="Odieresis" unicode="&#xd6;" horiz-adv-x="732" 
d="M374 -14q-147 0 -240.5 104t-93.5 264q0 157 94.5 259.5t239.5 102.5q144 0 238.5 -104t94.5 -264q0 -155 -94.5 -258.5t-238.5 -103.5zM372 4q62 0 107.5 31.5t69.5 84t35.5 110.5t11.5 123q0 63 -13 122t-38.5 111t-70 83t-102.5 31q-60 0 -104.5 -31t-69 -83
t-36 -110.5t-11.5 -122.5t11.5 -122.5t36 -111t69.5 -84t104 -31.5zM459 771q-21 0 -36.5 15t-15.5 36t15 36t37 15q21 0 36 -15t15 -36t-15 -36t-36 -15zM278 771q-21 0 -36 14.5t-15 36.5q0 21 15 36t36 15q22 0 37 -15t15 -36q0 -22 -15 -36.5t-37 -14.5z" />
    <glyph glyph-name="multiply" unicode="&#xd7;" horiz-adv-x="636" 
d="M138 133l-35 36l178 178l-175 175l37 37l175 -175l178 178l36 -36l-178 -177l174 -175l-37 -37l-174 174z" />
    <glyph glyph-name="Oslash" unicode="&#xd8;" horiz-adv-x="732" 
d="M367 -14q-136 0 -228 90l-76 -87l-17 15l77 88q-90 103 -90 262q0 157 94.5 259.5t239.5 102.5q133 0 226 -91l78 89l17 -14q-56 -65 -79 -91q91 -104 91 -261q0 -155 -94.5 -258.5t-238.5 -103.5zM178 154l367 416q-61 130 -180 130q-60 0 -104.5 -31t-69 -83
t-36 -110.5t-11.5 -122.5q0 -113 34 -199zM365 4q62 0 107.5 31.5t69.5 84t35.5 110.5t11.5 123q0 107 -34 194l-92 -104q-92 -104 -184 -209l-92 -104q57 -126 178 -126z" />
    <glyph glyph-name="Ugrave" unicode="&#xd9;" horiz-adv-x="706" 
d="M359 -13q-265 0 -265 266v363q0 45 -14.5 57.5t-68.5 12.5v15h275v-15q-63 0 -78 -12.5t-15 -53.5v-392q0 -100 49.5 -154t149.5 -54t149 64.5t49 165.5v304q0 52 -2 75t-15 38t-30.5 17t-59.5 2v15h220v-15q-24 0 -36 -0.5t-24.5 -5.5t-17 -12t-9 -23.5t-5 -36
t-0.5 -54.5v-310q0 -257 -252 -257zM435 747q-57 30 -169 90q-30 17 -30 42q0 17 11.5 29t29.5 12q26 0 47 -25q31 -35 118 -138z" />
    <glyph glyph-name="Uacute" unicode="&#xda;" horiz-adv-x="706" 
d="M359 -13q-265 0 -265 266v363q0 45 -14.5 57.5t-68.5 12.5v15h275v-15q-63 0 -78 -12.5t-15 -53.5v-392q0 -100 49.5 -154t149.5 -54t149 64.5t49 165.5v304q0 52 -2 75t-15 38t-30.5 17t-59.5 2v15h220v-15q-24 0 -36 -0.5t-24.5 -5.5t-17 -12t-9 -23.5t-5 -36
t-0.5 -54.5v-310q0 -257 -252 -257zM349 747l-8 10q33 38 119 138q21 25 47 25q18 0 29.5 -12t11.5 -29q0 -25 -30 -42q-28 -15 -84.5 -45t-84.5 -45z" />
    <glyph glyph-name="Ucircumflex" unicode="&#xdb;" horiz-adv-x="706" 
d="M359 -13q-265 0 -265 266v363q0 45 -14.5 57.5t-68.5 12.5v15h275v-15q-63 0 -78 -12.5t-15 -53.5v-392q0 -100 49.5 -154t149.5 -54t149 64.5t49 165.5v304q0 52 -2 75t-15 38t-30.5 17t-59.5 2v15h220v-15q-24 0 -36 -0.5t-24.5 -5.5t-17 -12t-9 -23.5t-5 -36
t-0.5 -54.5v-310q0 -257 -252 -257zM269 744l-11 5l99 158h59l101 -158l-13 -5l-118 92z" />
    <glyph glyph-name="Udieresis" unicode="&#xdc;" horiz-adv-x="706" 
d="M366 -13q-265 0 -265 266v363q0 45 -14.5 57.5t-68.5 12.5v15h275v-15q-63 0 -78 -12.5t-15 -53.5v-392q0 -100 49.5 -154t149.5 -54t149 64.5t49 165.5v304q0 52 -2 75t-15 38t-30.5 17t-59.5 2v15h220v-15q-24 0 -36 -0.5t-24.5 -5.5t-17 -12t-9 -23.5t-5 -36
t-0.5 -54.5v-310q0 -257 -252 -257zM476 771q-21 0 -36.5 15t-15.5 36t15 36t37 15q21 0 36 -15t15 -36t-15 -36t-36 -15zM295 771q-21 0 -36 14.5t-15 36.5q0 21 15 36t36 15q22 0 37 -15t15 -36q0 -22 -15 -36.5t-37 -14.5z" />
    <glyph glyph-name="Yacute" unicode="&#xdd;" horiz-adv-x="644" 
d="M167 0v16q70 0 86.5 15.5t16.5 79.5v172q-5 9 -171 326q-28 51 -44 64t-50 13v15h259v-15q-64 0 -72.5 -15t22.5 -74q45 -85 144 -273q104 201 131 256q36 73 25.5 89.5t-91.5 16.5v15h216v-15q-48 0 -67 -16.5t-58 -91.5q-35 -68 -146 -279v-196q0 -58 17 -72.5
t86 -14.5v-16h-304zM310 747l-8 10q33 38 119 138q21 25 47 25q18 0 29.5 -12t11.5 -29q0 -25 -30 -42q-28 -15 -84.5 -45t-84.5 -45z" />
    <glyph glyph-name="Thorn" unicode="&#xde;" horiz-adv-x="611" 
d="M10 0v16q63 0 77.5 11t14.5 60v530q0 47 -15 58t-77 11v15h284v-15q-62 0 -77 -11t-15 -58v-50h134q100 0 170 -45t70 -140q0 -196 -265 -202q-53 -1 -110 5v-98q0 -49 15.5 -60t87.5 -11v-16h-294zM271 198h32q84 2 123.5 47t39.5 135q0 170 -147 171h-38
q-57 0 -68.5 -15t-11.5 -79v-255q52 -4 70 -4z" />
    <glyph glyph-name="germandbls" unicode="&#xdf;" horiz-adv-x="523" 
d="M334 -8q-56 0 -88.5 24.5t-32.5 66.5q0 22 13.5 36.5t35.5 14.5q19 0 32 -11t13 -29q0 -19 -19 -33.5t-19 -19.5q0 -12 18 -23t45 -11q47 0 72.5 28.5t25.5 73.5q0 66 -95 119q-60 33 -90.5 62t-29.5 71q1 31 19 50t61 46q32 20 46 48.5t14 77.5q0 47 -19 82.5t-62 35.5
q-23 0 -40.5 -8t-28 -25.5t-17 -34.5t-9.5 -44.5t-3.5 -46t-0.5 -49.5v-493h-163v16q48 0 59.5 10t11.5 53v394q0 47 9 87.5t29.5 77t60 57.5t93.5 21q71 0 110 -33.5t38 -97.5q-1 -71 -101 -129q-51 -30 -51 -52q0 -5 1.5 -9.5t5 -9.5t6.5 -8.5t9.5 -8.5t11 -8.5t13.5 -9
t14.5 -8.5t16 -9.5t16.5 -9.5q59 -34 93.5 -75.5t34.5 -102.5q0 -66 -45 -109.5t-114 -43.5z" />
    <glyph glyph-name="agrave" unicode="&#xe0;" horiz-adv-x="514" 
d="M176 -11q-137 0 -137 123q0 38 19 70t53 54t66.5 36t74.5 27q51 14 74 18v19q0 33 -3 55t-13.5 44.5t-33.5 34t-58 11.5q-36 0 -66.5 -14.5t-30.5 -39.5q0 -10 9.5 -16t21.5 -8.5t21.5 -13t9.5 -29.5q0 -22 -17 -36t-39 -14q-32 0 -49.5 19t-17.5 50q0 57 50 88.5
t124 31.5q88 0 132.5 -45.5t44.5 -147.5v-215q0 -31 7.5 -47.5t29.5 -16.5q21 0 32 28.5t11 69.5v19h16v-34q0 -121 -99 -121q-38 0 -60 23t-26 65q-12 -36 -56 -62t-90 -26zM216 25q39 0 67 28t35 58q3 15 3 67q0 11 2 58t2 63q-29 -5 -43 -10q-72 -25 -110.5 -60.5
t-38.5 -102.5q0 -101 83 -101zM299 529q-57 30 -169 90q-30 17 -30 42q0 17 11.5 29t29.5 12q26 0 47 -25q31 -35 118 -138z" />
    <glyph glyph-name="aacute" unicode="&#xe1;" horiz-adv-x="514" 
d="M176 -11q-137 0 -137 123q0 38 19 70t53 54t66.5 36t74.5 27q51 14 74 18v19q0 33 -3 55t-13.5 44.5t-33.5 34t-58 11.5q-36 0 -66.5 -14.5t-30.5 -39.5q0 -10 9.5 -16t21.5 -8.5t21.5 -13t9.5 -29.5q0 -22 -17 -36t-39 -14q-32 0 -49.5 19t-17.5 50q0 57 50 88.5
t124 31.5q88 0 132.5 -45.5t44.5 -147.5v-215q0 -31 7.5 -47.5t29.5 -16.5q21 0 32 28.5t11 69.5v19h16v-34q0 -121 -99 -121q-38 0 -60 23t-26 65q-12 -36 -56 -62t-90 -26zM216 25q39 0 67 28t35 58q3 15 3 67q0 11 2 58t2 63q-29 -5 -43 -10q-72 -25 -110.5 -60.5
t-38.5 -102.5q0 -101 83 -101zM188 529l-8 10q33 38 119 138q21 25 47 25q18 0 29.5 -12t11.5 -29q0 -25 -30 -42q-28 -15 -84.5 -45t-84.5 -45z" />
    <glyph glyph-name="acircumflex" unicode="&#xe2;" horiz-adv-x="514" 
d="M176 -11q-137 0 -137 123q0 38 19 70t53 54t66.5 36t74.5 27q51 14 74 18v19q0 33 -3 55t-13.5 44.5t-33.5 34t-58 11.5q-36 0 -66.5 -14.5t-30.5 -39.5q0 -10 9.5 -16t21.5 -8.5t21.5 -13t9.5 -29.5q0 -22 -17 -36t-39 -14q-32 0 -49.5 19t-17.5 50q0 57 50 88.5
t124 31.5q88 0 132.5 -45.5t44.5 -147.5v-215q0 -31 7.5 -47.5t29.5 -16.5q21 0 32 28.5t11 69.5v19h16v-34q0 -121 -99 -121q-38 0 -60 23t-26 65q-12 -36 -56 -62t-90 -26zM216 25q39 0 67 28t35 58q3 15 3 67q0 11 2 58t2 63q-29 -5 -43 -10q-72 -25 -110.5 -60.5
t-38.5 -102.5q0 -101 83 -101zM122 526l-11 5l99 158h59l101 -158l-13 -5l-118 92z" />
    <glyph glyph-name="atilde" unicode="&#xe3;" horiz-adv-x="514" 
d="M176 -11q-137 0 -137 123q0 38 19 70t53 54t66.5 36t74.5 27q51 14 74 18v19q0 33 -3 55t-13.5 44.5t-33.5 34t-58 11.5q-36 0 -66.5 -14.5t-30.5 -39.5q0 -10 9.5 -16t21.5 -8.5t21.5 -13t9.5 -29.5q0 -22 -17 -36t-39 -14q-32 0 -49.5 19t-17.5 50q0 57 50 88.5
t124 31.5q88 0 132.5 -45.5t44.5 -147.5v-215q0 -31 7.5 -47.5t29.5 -16.5q21 0 32 28.5t11 69.5v19h16v-34q0 -121 -99 -121q-38 0 -60 23t-26 65q-12 -36 -56 -62t-90 -26zM216 25q39 0 67 28t35 58q3 15 3 67q0 11 2 58t2 63q-29 -5 -43 -10q-72 -25 -110.5 -60.5
t-38.5 -102.5q0 -101 83 -101zM308 552q-33 -2 -81 17q-62 22 -73 22q-30 0 -41 -35l-13 4q6 36 28 63t56 27q22 0 73 -17q58 -20 72 -20q32 0 41 30q2 0 14 -4q-18 -86 -76 -87z" />
    <glyph glyph-name="adieresis" unicode="&#xe4;" horiz-adv-x="514" 
d="M176 -11q-137 0 -137 123q0 38 19 70t53 54t66.5 36t74.5 27q51 14 74 18v19q0 33 -3 55t-13.5 44.5t-33.5 34t-58 11.5q-36 0 -66.5 -14.5t-30.5 -39.5q0 -10 9.5 -16t21.5 -8.5t21.5 -13t9.5 -29.5q0 -22 -17 -36t-39 -14q-32 0 -49.5 19t-17.5 50q0 57 50 88.5
t124 31.5q88 0 132.5 -45.5t44.5 -147.5v-215q0 -31 7.5 -47.5t29.5 -16.5q21 0 32 28.5t11 69.5v19h16v-34q0 -121 -99 -121q-38 0 -60 23t-26 65q-12 -36 -56 -62t-90 -26zM216 25q39 0 67 28t35 58q3 15 3 67q0 11 2 58t2 63q-29 -5 -43 -10q-72 -25 -110.5 -60.5
t-38.5 -102.5q0 -101 83 -101zM332 553q-21 0 -36.5 15t-15.5 36t15 36t37 15q21 0 36 -15t15 -36t-15 -36t-36 -15zM151 553q-21 0 -36 14.5t-15 36.5q0 21 15 36t36 15q22 0 37 -15t15 -36q0 -22 -15 -36.5t-37 -14.5z" />
    <glyph glyph-name="aring" unicode="&#xe5;" horiz-adv-x="514" 
d="M176 -11q-137 0 -137 123q0 38 19 70t53 54t66.5 36t74.5 27q51 14 74 18v19q0 33 -3 55t-13.5 44.5t-33.5 34t-58 11.5q-36 0 -66.5 -14.5t-30.5 -39.5q0 -10 9.5 -16t21.5 -8.5t21.5 -13t9.5 -29.5q0 -22 -17 -36t-39 -14q-32 0 -49.5 19t-17.5 50q0 57 50 88.5
t124 31.5q88 0 132.5 -45.5t44.5 -147.5v-215q0 -31 7.5 -47.5t29.5 -16.5q21 0 32 28.5t11 69.5v19h16v-34q0 -121 -99 -121q-38 0 -60 23t-26 65q-12 -36 -56 -62t-90 -26zM216 25q39 0 67 28t35 58q3 15 3 67q0 11 2 58t2 63q-29 -5 -43 -10q-72 -25 -110.5 -60.5
t-38.5 -102.5q0 -101 83 -101zM239 532q-41 0 -69.5 28.5t-28.5 69.5t29 70t70 29t69.5 -29t28.5 -70q0 -40 -29 -69t-70 -29zM239 561q29 0 49.5 20.5t20.5 49.5t-20 49t-49 20t-49.5 -20t-20.5 -49q0 -30 20 -50t49 -20z" />
    <glyph glyph-name="ae" unicode="&#xe6;" horiz-adv-x="764" 
d="M176 -11q-137 0 -137 123q0 125 216 158q35 6 71 8v58q0 33 -3 55t-13.5 44.5t-33.5 34t-58 11.5q-36 0 -66.5 -14.5t-30.5 -39.5q0 -10 9.5 -16t21.5 -8.5t21.5 -13t9.5 -29.5q0 -22 -17 -36t-39 -14q-32 0 -49.5 19t-17.5 50q0 57 50 88.5t124 31.5q102 0 144 -64
q62 64 149 64q100 0 154.5 -65.5t54.5 -172.5v-5h-325v-21q0 -218 145 -218q64 0 104 41.5t54 103.5h16q-13 -81 -63 -127t-132 -46q-136 0 -198 116q-19 -58 -64 -87t-97 -29zM411 276h223v26q0 70 -26 125.5t-82 55.5q-30 0 -52.5 -18t-35 -48.5t-19 -61.5t-8.5 -65v-14z
M216 25q39 1 67 28.5t35 57.5q4 17 6 67q1 36 1 81q-9 -1 -26.5 -3t-20.5 -2q-145 -24 -145 -133q0 -46 20.5 -71.5t62.5 -24.5z" />
    <glyph glyph-name="ccedilla" unicode="&#xe7;" horiz-adv-x="460" 
d="M254 -226q-77 0 -137 48l11 15q53 -33 112 -33q31 0 49 14.5t18 40.5q0 24 -18 38t-51 14q-3 0 -9 -0.5t-8 -0.5v81q-86 11 -138 78t-52 171q0 122 67 190.5t171 68.5q70 0 116.5 -35.5t46.5 -95.5q0 -32 -17.5 -54t-47.5 -22q-26 0 -42.5 15t-16.5 40q0 19 10 31.5
t21.5 18t21.5 12.5t10 16q0 26 -29.5 42t-67.5 16q-138 0 -138 -234q0 -230 138 -230q57 0 98 42t46 105v9h16q-1 -82 -51.5 -134t-127.5 -52h-10v-49q16 4 36 4q38 0 64 -22t26 -57q0 -44 -34 -67.5t-83 -23.5z" />
    <glyph glyph-name="egrave" unicode="&#xe8;" horiz-adv-x="490" 
d="M261 -11q-105 0 -167.5 70.5t-62.5 189.5q0 109 64 179.5t157 70.5q100 0 154.5 -65.5t54.5 -172.5v-5h-325v-21q0 -218 145 -218q64 0 104 41.5t54 103.5h16q-12 -81 -62 -127t-132 -46zM136 276h224v26q0 72 -25.5 126.5t-83.5 54.5q-40 0 -66.5 -32.5t-36.5 -73.5
t-12 -89v-12zM312 529q-57 30 -169 90q-30 17 -30 42q0 17 11.5 29t29.5 12q26 0 47 -25q31 -35 118 -138z" />
    <glyph glyph-name="eacute" unicode="&#xe9;" horiz-adv-x="490" 
d="M261 -11q-105 0 -167.5 70.5t-62.5 189.5q0 109 64 179.5t157 70.5q100 0 154.5 -65.5t54.5 -172.5v-5h-325v-21q0 -218 145 -218q64 0 104 41.5t54 103.5h16q-12 -81 -62 -127t-132 -46zM136 276h224v26q0 72 -25.5 126.5t-83.5 54.5q-40 0 -66.5 -32.5t-36.5 -73.5
t-12 -89v-12zM208 529l-8 10q33 38 119 138q21 25 47 25q18 0 29.5 -12t11.5 -29q0 -25 -30 -42q-28 -15 -84.5 -45t-84.5 -45z" />
    <glyph glyph-name="ecircumflex" unicode="&#xea;" horiz-adv-x="490" 
d="M261 -11q-105 0 -167.5 70.5t-62.5 189.5q0 109 64 179.5t157 70.5q100 0 154.5 -65.5t54.5 -172.5v-5h-325v-21q0 -218 145 -218q64 0 104 41.5t54 103.5h16q-12 -81 -62 -127t-132 -46zM136 276h224v26q0 72 -25.5 126.5t-83.5 54.5q-40 0 -66.5 -32.5t-36.5 -73.5
t-12 -89v-12zM133 526l-11 5l99 158h59l101 -158l-13 -5l-118 92z" />
    <glyph glyph-name="edieresis" unicode="&#xeb;" horiz-adv-x="490" 
d="M261 -11q-105 0 -167.5 70.5t-62.5 189.5q0 109 64 179.5t157 70.5q100 0 154.5 -65.5t54.5 -172.5v-5h-325v-21q0 -218 145 -218q64 0 104 41.5t54 103.5h16q-12 -81 -62 -127t-132 -46zM136 276h224v26q0 72 -25.5 126.5t-83.5 54.5q-40 0 -66.5 -32.5t-36.5 -73.5
t-12 -89v-12zM342 553q-21 0 -36.5 15t-15.5 36t15 36t37 15q21 0 36 -15t15 -36t-15 -36t-36 -15zM161 553q-21 0 -36 14.5t-15 36.5q0 21 15 36t36 15q22 0 37 -15t15 -36q0 -22 -15 -36.5t-37 -14.5z" />
    <glyph glyph-name="igrave" unicode="&#xec;" horiz-adv-x="267" 
d="M21 0v16q52 0 63.5 9.5t11.5 49.5v326q0 49 -12.5 60t-63.5 11v16q95 0 168 12v-423q0 -41 12.5 -51t64.5 -10v-16h-244zM166 529q-57 30 -169 90q-30 17 -30 42q0 17 11.5 29t29.5 12q26 0 47 -25q31 -35 118 -138z" />
    <glyph glyph-name="iacute" unicode="&#xed;" horiz-adv-x="267" 
d="M13 0v16q52 0 63.5 9.5t11.5 49.5v326q0 49 -12.5 60t-63.5 11v16q95 0 168 12v-423q0 -41 12.5 -51t64.5 -10v-16h-244zM81 529l-8 10q33 38 119 138q21 25 47 25q18 0 29.5 -12t11.5 -29q0 -25 -30 -42q-28 -15 -84.5 -45t-84.5 -45z" />
    <glyph glyph-name="icircumflex" unicode="&#xee;" horiz-adv-x="267" 
d="M13 0v16q52 0 63.5 9.5t11.5 49.5v326q0 49 -12.5 60t-63.5 11v16q95 0 168 12v-423q0 -41 12.5 -51t64.5 -10v-16h-244zM-2 526l-11 5l99 158h59l101 -158l-13 -5l-118 92z" />
    <glyph glyph-name="idieresis" unicode="&#xef;" horiz-adv-x="267" 
d="M13 0v16q52 0 63.5 9.5t11.5 49.5v326q0 49 -12.5 60t-63.5 11v16q95 0 168 12v-423q0 -41 12.5 -51t64.5 -10v-16h-244zM203 553q-21 0 -36.5 15t-15.5 36t15 36t37 15q21 0 36 -15t15 -36t-15 -36t-36 -15zM22 553q-21 0 -36 14.5t-15 36.5q0 21 15 36t36 15
q22 0 37 -15t15 -36q0 -22 -15 -36.5t-37 -14.5z" />
    <glyph glyph-name="eth" unicode="&#xf0;" horiz-adv-x="515" 
d="M259 -11q-101 0 -164.5 65t-63.5 175q0 109 65.5 174.5t162.5 65.5q57 0 104 -31q-22 88 -74 159l-148 -65l-8 18l145 63q-45 60 -94 88l11 13q71 -26 134 -80l93 41l8 -18l-85 -38q139 -157 139 -373q0 -118 -64.5 -187.5t-160.5 -69.5zM259 5q120 0 120 224
q0 47 -4.5 83t-17 70t-37.5 52.5t-62 18.5q-121 0 -121 -229q0 -219 122 -219z" />
    <glyph glyph-name="ntilde" unicode="&#xf1;" horiz-adv-x="551" 
d="M9 0v16q48 0 60.5 9.5t12.5 45.5v350q0 34 -13 42.5t-61 8.5v16q102 0 167 4v-90q18 44 56 69t89 25q74 0 112.5 -41.5t38.5 -107.5v-278q0 -34 12 -43.5t58 -9.5v-16h-228v16q43 0 54 9t11 43v294q0 45 -22.5 72.5t-62.5 27.5q-53 0 -86 -43t-33 -109v-244
q0 -32 11.5 -41t52.5 -9v-16h-229zM343 552q-33 -2 -81 17q-62 22 -73 22q-30 0 -41 -35l-13 4q6 36 28 63t56 27q22 0 73 -17q58 -20 72 -20q32 0 41 30q2 0 14 -4q-18 -86 -76 -87z" />
    <glyph glyph-name="ograve" unicode="&#xf2;" horiz-adv-x="515" 
d="M259 -11q-101 0 -164.5 69t-63.5 186q0 116 65.5 185.5t162.5 69.5t161 -70t64 -185q0 -113 -65 -184t-160 -71zM259 6q120 0 120 238q0 50 -4.5 88t-17 74t-37.5 55.5t-62 19.5q-122 0 -122 -243q0 -232 123 -232zM309 529q-57 30 -169 90q-30 17 -30 42q0 17 11.5 29
t29.5 12q26 0 47 -25q31 -35 118 -138z" />
    <glyph glyph-name="oacute" unicode="&#xf3;" horiz-adv-x="515" 
d="M259 -11q-101 0 -164.5 69t-63.5 186q0 116 65.5 185.5t162.5 69.5t161 -70t64 -185q0 -113 -65 -184t-160 -71zM259 6q120 0 120 238q0 50 -4.5 88t-17 74t-37.5 55.5t-62 19.5q-122 0 -122 -243q0 -232 123 -232zM215 529l-8 10q33 38 119 138q21 25 47 25
q18 0 29.5 -12t11.5 -29q0 -25 -30 -42q-28 -15 -84.5 -45t-84.5 -45z" />
    <glyph glyph-name="ocircumflex" unicode="&#xf4;" horiz-adv-x="515" 
d="M259 -11q-101 0 -164.5 69t-63.5 186q0 116 65.5 185.5t162.5 69.5t161 -70t64 -185q0 -113 -65 -184t-160 -71zM259 6q120 0 120 238q0 50 -4.5 88t-17 74t-37.5 55.5t-62 19.5q-122 0 -122 -243q0 -232 123 -232zM139 526l-11 5l99 158h59l101 -158l-13 -5l-118 92z
" />
    <glyph glyph-name="otilde" unicode="&#xf5;" horiz-adv-x="515" 
d="M259 -11q-101 0 -164.5 69t-63.5 186q0 116 65.5 185.5t162.5 69.5t161 -70t64 -185q0 -113 -65 -184t-160 -71zM259 6q120 0 120 238q0 50 -4.5 88t-17 74t-37.5 55.5t-62 19.5q-122 0 -122 -243q0 -232 123 -232zM325 552q-33 -2 -81 17q-62 22 -73 22q-30 0 -41 -35
l-13 4q6 36 28 63t56 27q22 0 73 -17q58 -20 72 -20q32 0 41 30q2 0 14 -4q-18 -86 -76 -87z" />
    <glyph glyph-name="odieresis" unicode="&#xf6;" horiz-adv-x="515" 
d="M259 -11q-101 0 -164.5 69t-63.5 186q0 116 65.5 185.5t162.5 69.5t161 -70t64 -185q0 -113 -65 -184t-160 -71zM259 6q120 0 120 238q0 50 -4.5 88t-17 74t-37.5 55.5t-62 19.5q-122 0 -122 -243q0 -232 123 -232zM349 553q-21 0 -36.5 15t-15.5 36t15 36t37 15
q21 0 36 -15t15 -36t-15 -36t-36 -15zM168 553q-21 0 -36 14.5t-15 36.5q0 21 15 36t36 15q22 0 37 -15t15 -36q0 -22 -15 -36.5t-37 -14.5z" />
    <glyph glyph-name="divide" unicode="&#xf7;" horiz-adv-x="636" 
d="M320 468q-22 0 -38.5 16t-16.5 39q0 22 16 39t39 17q21 0 38 -16.5t17 -39.5q0 -22 -16 -38.5t-39 -16.5zM77 322v53h481v-53h-481zM320 118q-22 0 -38.5 16t-16.5 39q0 22 16 39t39 17q22 0 38.5 -16.5t16.5 -39.5q0 -22 -16 -38.5t-39 -16.5z" />
    <glyph glyph-name="oslash" unicode="&#xf8;" horiz-adv-x="515" 
d="M63 -13l-18 15l48 58q-62 70 -62 184q0 116 65.5 185.5t162.5 69.5q85 0 146 -56l47 57l18 -14q-33 -40 -49 -60q63 -71 63 -182q0 -113 -65 -184t-160 -71q-90 0 -150 55zM149 128l213 262q-27 91 -104 91q-121 0 -121 -243q0 -58 12 -110zM259 6q120 0 120 238
q0 68 -11 118l-213 -262q28 -94 104 -94z" />
    <glyph glyph-name="ugrave" unicode="&#xf9;" horiz-adv-x="551" 
d="M223 -6q-71 0 -108.5 39.5t-37.5 109.5v276q0 34 -11.5 43.5t-55.5 9.5v16q111 0 160 4v-365q0 -100 84 -100q52 0 85.5 42.5t33.5 97.5v257q0 33 -11 40.5t-56 7.5v16q116 0 160 4v-425q0 -34 13 -42.5t59 -8.5v-16q-83 0 -165 -5v93q-18 -43 -59.5 -68.5t-90.5 -25.5z
M312 529q-57 30 -169 90q-30 17 -30 42q0 17 11.5 29t29.5 12q26 0 47 -25q31 -35 118 -138z" />
    <glyph glyph-name="uacute" unicode="&#xfa;" horiz-adv-x="551" 
d="M223 -6q-71 0 -108.5 39.5t-37.5 109.5v276q0 34 -11.5 43.5t-55.5 9.5v16q111 0 160 4v-365q0 -100 84 -100q52 0 85.5 42.5t33.5 97.5v257q0 33 -11 40.5t-56 7.5v16q116 0 160 4v-425q0 -34 13 -42.5t59 -8.5v-16q-83 0 -165 -5v93q-18 -43 -59.5 -68.5t-90.5 -25.5z
M223 531l-8 10q33 38 119 138q21 25 47 25q18 0 29.5 -12t11.5 -29q0 -25 -30 -42q-28 -15 -84.5 -45t-84.5 -45z" />
    <glyph glyph-name="ucircumflex" unicode="&#xfb;" horiz-adv-x="551" 
d="M223 -6q-71 0 -108.5 39.5t-37.5 109.5v276q0 34 -11.5 43.5t-55.5 9.5v16q111 0 160 4v-365q0 -100 84 -100q52 0 85.5 42.5t33.5 97.5v257q0 33 -11 40.5t-56 7.5v16q116 0 160 4v-425q0 -34 13 -42.5t59 -8.5v-16q-83 0 -165 -5v93q-18 -43 -59.5 -68.5t-90.5 -25.5z
M145 526l-11 5l99 158h59l101 -158l-13 -5l-118 92z" />
    <glyph glyph-name="udieresis" unicode="&#xfc;" horiz-adv-x="551" 
d="M223 -6q-71 0 -108.5 39.5t-37.5 109.5v276q0 34 -11.5 43.5t-55.5 9.5v16q111 0 160 4v-365q0 -100 84 -100q52 0 85.5 42.5t33.5 97.5v257q0 33 -11 40.5t-56 7.5v16q116 0 160 4v-425q0 -34 13 -42.5t59 -8.5v-16q-83 0 -165 -5v93q-18 -43 -59.5 -68.5t-90.5 -25.5z
M349 553q-21 0 -36.5 15t-15.5 36t15 36t37 15q21 0 36 -15t15 -36t-15 -36t-36 -15zM168 553q-21 0 -36 14.5t-15 36.5q0 21 15 36t36 15q22 0 37 -15t15 -36q0 -22 -15 -36.5t-37 -14.5z" />
    <glyph glyph-name="yacute" unicode="&#xfd;" horiz-adv-x="549" 
d="M113 -219q-45 0 -76.5 25.5t-31.5 68.5q0 30 18.5 49.5t48.5 19.5q26 0 42 -14t16 -39q0 -17 -8.5 -28.5t-18 -16t-18 -10.5t-8.5 -13q0 -25 38 -25t72.5 35.5t55 78.5t34.5 91q-41 96 -174 387q-23 50 -40.5 66t-48.5 16v16h238v-16q-56 0 -63.5 -16t14.5 -62
q56 -128 122 -276q86 231 93 249q25 69 13 87t-79 18v16h192v-16q-41 0 -57 -14.5t-40 -74.5q-79 -204 -159 -411q-15 -38 -27.5 -63.5t-34 -59t-50.5 -51t-63 -17.5zM266 529l-8 10q33 38 119 138q21 25 47 25q18 0 29.5 -12t11.5 -29q0 -25 -30 -42q-28 -15 -84.5 -45
t-84.5 -45z" />
    <glyph glyph-name="thorn" unicode="&#xfe;" horiz-adv-x="539" 
d="M11 -209v16q47 0 59.5 10.5t12.5 51.5v766q0 34 -13 42.5t-62 8.5v15q106 0 167 20v-321q17 48 55 72.5t86 24.5q88 0 139 -68.5t51 -176.5q0 -112 -56.5 -185.5t-147.5 -73.5q-92 0 -127 69v-194q0 -36 16 -48.5t60 -12.5v-16h-240zM287 22q33 0 56.5 19.5t36 53.5
t18 71.5t5.5 80.5q0 217 -111 217q-58 0 -87.5 -49.5t-29.5 -108.5v-160q0 -53 28.5 -88.5t83.5 -35.5z" />
    <glyph glyph-name="ydieresis" unicode="&#xff;" horiz-adv-x="549" 
d="M113 -219q-45 0 -76.5 25.5t-31.5 68.5q0 30 18.5 49.5t48.5 19.5q26 0 42 -14t16 -39q0 -17 -8.5 -28.5t-18 -16t-18 -10.5t-8.5 -13q0 -25 38 -25t72.5 35.5t55 78.5t34.5 91q-41 96 -174 387q-23 50 -40.5 66t-48.5 16v16h238v-16q-56 0 -63.5 -16t14.5 -62
q56 -128 122 -276q86 231 93 249q25 69 13 87t-79 18v16h192v-16q-41 0 -57 -14.5t-40 -74.5q-79 -204 -159 -411q-15 -38 -27.5 -63.5t-34 -59t-50.5 -51t-63 -17.5zM373 553q-21 0 -36.5 15t-15.5 36t15 36t37 15q21 0 36 -15t15 -36t-15 -36t-36 -15zM192 553
q-21 0 -36 14.5t-15 36.5q0 21 15 36t36 15q22 0 37 -15t15 -36q0 -22 -15 -36.5t-37 -14.5z" />
    <glyph glyph-name="dotlessi" unicode="&#x131;" horiz-adv-x="267" 
d="M13 0v16q52 0 63.5 9.5t11.5 49.5v326q0 49 -12.5 60t-63.5 11v16q95 0 168 12v-423q0 -41 12.5 -51t64.5 -10v-16h-244z" />
    <glyph glyph-name="Lslash" unicode="&#x141;" horiz-adv-x="597" 
d="M17 0v16q63 0 77.5 11.5t14.5 58.5v219l-79 -40l-10 19l89 46v281q0 50 -15 62.5t-77 12.5v15h285v-15q-64 0 -79 -11.5t-15 -62.5v-240l163 84l10 -19l-173 -90v-260q0 -50 13.5 -60.5t74.5 -10.5h57q96 0 139.5 51t60.5 166l5 33h17q-2 -47 -6.5 -141t-5.5 -125h-546z
" />
    <glyph glyph-name="lslash" unicode="&#x142;" horiz-adv-x="260" 
d="M9 0v16q49 0 61.5 11t12.5 51v245l-67 -35l-9 19l76 40v288q0 34 -13 42.5t-62 8.5v15q106 0 167 20v-337l68 36l10 -18l-78 -42v-289q0 -34 15 -44.5t59 -10.5v-16h-240z" />
    <glyph glyph-name="OE" unicode="&#x152;" horiz-adv-x="1017" 
d="M368 -13q-153 0 -245 103.5t-92 263.5q0 151 93.5 256t243.5 105q38 0 85.5 -7t62.5 -7h433q6 -102 11 -213h-18v3q-1 3 -1.5 6.5t-0.5 6.5q-11 107 -55.5 142.5t-153.5 36.5h-47q-64 0 -78 -13t-14 -73v-214h88q81 0 105 26.5t25 116.5h20v-313h-20q-2 90 -26.5 119.5
t-101.5 29.5h-90v-271q0 -47 16 -59t71 -12h45q66 0 105 8t68 31.5t43 64.5t19 109h17q-3 -189 -3 -233h-469q-25 0 -64.5 -6.5t-71.5 -6.5zM366 8q133 0 133 90v510q0 44 -40.5 65.5t-92.5 21.5q-60 0 -106 -29t-72.5 -79t-39 -109t-12.5 -125q0 -92 21.5 -167t75 -126.5
t133.5 -51.5z" />
    <glyph glyph-name="oe" unicode="&#x153;" horiz-adv-x="815" 
d="M252 -11q-100 0 -161.5 70t-61.5 184q0 113 63.5 184.5t159.5 71.5q107 0 168 -86q28 40 72 63t93 23q99 0 152 -66.5t53 -173.5v-6h-322v-18q0 -216 146 -216q63 0 101 40.5t52 102.5h18q-13 -81 -61.5 -127t-130.5 -46q-113 0 -173 87q-63 -87 -168 -87zM468 277h228
v25q0 45 -9 82t-35.5 66t-67.5 29q-40 0 -66.5 -31.5t-37 -71.5t-12.5 -89v-10zM252 9q122 0 122 234q0 235 -123 235q-122 0 -122 -240q0 -41 5 -77t17 -72.5t38 -58t63 -21.5z" />
    <glyph glyph-name="Scaron" unicode="&#x160;" horiz-adv-x="572" 
d="M312 -13q-74 0 -142 44q-10 7 -24 18t-22 16t-12 5q-25 0 -38 -70h-15v287h15l3 -18q19 -116 79.5 -190t156.5 -74q68 0 108 36.5t40 99.5q0 70 -41 104.5t-141 71.5q-112 42 -162.5 88.5t-49.5 129.5q1 87 58.5 133.5t138.5 46.5q67 0 128 -38l17.5 -12.5t17 -11.5
t8.5 -4q21 0 38 52h15v-239h-15q0 6 -2 18q-15 92 -73.5 154.5t-134.5 62.5q-57 0 -92 -32t-35 -87q0 -63 42.5 -96.5t138.5 -68.5q116 -44 167.5 -91t51.5 -135q0 -95 -66 -147.5t-158 -52.5zM260 752l-101 158l13 6l118 -92l118 92l11 -6l-100 -158h-59z" />
    <glyph glyph-name="scaron" unicode="&#x161;" horiz-adv-x="448" 
d="M245 -8q-38 0 -70 12.5t-52 25t-29 12.5q-21 0 -29 -42h-14q2 58 4 203h15q6 -89 55.5 -141.5t120.5 -52.5q48 0 76.5 22.5t28.5 61.5q0 41 -32 65t-97 44q-79 26 -121 60.5t-42 98.5q0 65 44 100.5t110 35.5q41 0 82 -21t42 -21q20 0 25 33h14q0 -57 2 -165h-14
q-15 72 -56 115t-95 43q-45 0 -71 -20t-26 -55q0 -40 30 -62t100 -45q79 -26 122 -61.5t43 -96.5q0 -70 -47.5 -109.5t-118.5 -39.5zM200 534l-101 158l13 6l118 -92l118 92l11 -6l-100 -158h-59z" />
    <glyph glyph-name="Ydieresis" unicode="&#x178;" horiz-adv-x="644" 
d="M167 0v16q70 0 86.5 15.5t16.5 79.5v172q-5 9 -171 326q-28 51 -44 64t-50 13v15h259v-15q-64 0 -72.5 -15t22.5 -74q45 -85 144 -273q104 201 131 256q36 73 25.5 89.5t-91.5 16.5v15h216v-15q-48 0 -67 -16.5t-58 -91.5q-35 -68 -146 -279v-196q0 -58 17 -72.5
t86 -14.5v-16h-304zM425 771q-21 0 -36.5 15t-15.5 36t15 36t37 15q21 0 36 -15t15 -36t-15 -36t-36 -15zM244 771q-21 0 -36 14.5t-15 36.5q0 21 15 36t36 15q22 0 37 -15t15 -36q0 -22 -15 -36.5t-37 -14.5z" />
    <glyph glyph-name="Zcaron" unicode="&#x17d;" horiz-adv-x="633" 
d="M35 0v25l439 661h-143q-72 0 -113.5 -6.5t-74.5 -27.5t-48.5 -61t-22.5 -107l-3 -28h-15q3 173 4 245h519v-25l-438 -660h156q52 0 86 3.5t64.5 14t48.5 28.5t34 49.5t26 73.5t19 104h17q-2 -43 -3.5 -91t-3 -107t-2.5 -91h-546zM293 752l-101 158l13 6l118 -92l118 92
l11 -6l-100 -158h-59z" />
    <glyph glyph-name="zcaron" unicode="&#x17e;" horiz-adv-x="495" 
d="M31 0v20l328 452h-120q-86 0 -117.5 -32.5t-43.5 -121.5h-18q6 146 6 170h392v-20l-325 -452h127q98 0 133.5 40t44.5 151h18q-1 -34 -2.5 -103.5t-1.5 -103.5h-421zM221 534l-101 158l13 6l118 -92l118 92l11 -6l-100 -158h-59z" />
    <glyph glyph-name="florin" unicode="&#x192;" horiz-adv-x="430" 
d="M13 -151q-42 0 -69 23.5t-22 62.5q9 55 60 55q20 0 32 -12.5t9 -31.5t-25.5 -34.5t-23.5 -21.5q-3 -25 40 -25q20 0 36.5 14t26 32.5t18 52t12.5 56.5t9 63l45 323h-75l3 20h75q9 53 24 100.5t38 89t56.5 66t72.5 24.5q42 0 69.5 -24t22.5 -63q-4 -25 -20.5 -40
t-39.5 -15q-21 0 -33 12t-9 32t25.5 35t23.5 22q1 12 -10.5 19t-29.5 7q-37 0 -54.5 -38.5t-28.5 -110.5q-2 -19 -7.5 -60.5t-7.5 -55.5h89l-3 -20h-89q-24 -150 -47 -290q-11 -69 -34 -127t-64.5 -99t-94.5 -41z" />
    <glyph glyph-name="circumflex" unicode="&#x2c6;" 
d="M122 526l-11 5l99 158h59l101 -158l-13 -5l-118 92z" />
    <glyph glyph-name="caron" unicode="&#x2c7;" 
d="M209 534l-101 158l13 6l118 -92l118 92l11 -6l-100 -158h-59z" />
    <glyph glyph-name="breve" unicode="&#x2d8;" 
d="M240 536q-34 0 -60.5 14.5t-39.5 36t-22 42.5t-11 35l-2 15h22q1 -3 3.5 -8.5t11.5 -18.5t21 -23t32.5 -18.5t44.5 -8.5t44.5 8t32.5 19t20.5 22.5t12.5 19.5l3 8h21q-1 -6 -2.5 -15.5t-10.5 -34t-22 -43.5t-39 -34.5t-60 -15.5z" />
    <glyph glyph-name="dotaccent" unicode="&#x2d9;" 
d="M240 537q-23 0 -39.5 16.5t-16.5 39.5t16.5 39.5t39.5 16.5t40 -16.5t17 -39.5t-17 -39.5t-40 -16.5z" />
    <glyph glyph-name="ring" unicode="&#x2da;" 
d="M242 532q-41 0 -69.5 28.5t-28.5 69.5t29 70t70 29t69.5 -29t28.5 -70q0 -40 -29 -69t-70 -29zM242 561q29 0 49.5 20.5t20.5 49.5t-20 49t-49 20t-49.5 -20t-20.5 -49q0 -30 20 -50t49 -20z" />
    <glyph glyph-name="ogonek" unicode="&#x2db;" 
d="M267 -227q-53 -2 -89.5 21.5t-36.5 72.5q0 76 142 133h17q-4 -2 -10 -6.5t-21 -18t-27 -28t-21.5 -36t-9.5 -42.5q0 -32 23 -50t57 -18q31 0 57 11l4 -13q-41 -25 -85 -26z" />
    <glyph glyph-name="tilde" unicode="&#x2dc;" 
d="M308 552q-33 -2 -81 17q-62 22 -73 22q-30 0 -41 -35l-13 4q6 36 28 63t56 27q22 0 73 -17q58 -20 72 -20q32 0 41 30q2 0 14 -4q-18 -86 -76 -87z" />
    <glyph glyph-name="hungarumlaut" unicode="&#x2dd;" 
d="M310 533q-1 1 -4.5 6t-4.5 6q78 88 117 131q21 25 45 25q19 0 29.5 -11t10.5 -29q0 -23 -31 -40q-54 -30 -162 -88zM182 533l-11 11q18 24 47.5 64.5t46.5 63.5q18 27 42 28q19 2 30.5 -8t13.5 -28q3 -23 -27 -42q-29 -19 -76 -48t-66 -41z" />
    <glyph glyph-name="Delta" unicode="&#x394;" horiz-adv-x="601" 
d="M284 577l-14 146l29 -146h-15zM318 574l-12 3l23 144zM264 571l-52 137l65 -132zM337 564l-12 7l61 134zM245 562l-85 117l97 -110zM353 552l-9 10l93 113zM229 547l-113 93l123 -83zM365 534l-6 12l117 85zM220 528l-135 61l139 -48zM372 514l-4 13l137 52zM295 489
q-66 -1 -66 14q0 28 19 47q17 17 47 19q27 0 47 -16q18 -15 19 -50q0 -14 -66 -14zM214 509l-146 23l148 -9zM373 495l1 12l146 14zM405 300q-24 0 -36 10t-11 31q0 39 22 53q20 12 51 12q32 0 48 -8q18 -6 15 -19q-4 -15 -14 -34q-10 -21 -40 -22q-26 0 -32 10q-3 12 0 22
q3 12 11 15q4 2 17 2v-9h-5h-3q-3 0 -7 -4q-1 -1 -1 -3t-1 -3q0 -13 3 -18q2 -2 18 -4q21 0 33 15q11 14 13 36q0 9 -22 13q-7 1 -34 4q-30 0 -47 -14q-17 -12 -17 -42q-1 -30 22 -32h56q21 0 27 6q4 6 22 13q5 2 41 14q26 6 26 29q1 46 -29 51q-23 4 -73 17
q-19 5 -42.5 10.5t-27.5 6.5q-14 3 -74 13h-51q-57 -9 -89 -11q-18 0 -67 -37q-20 -16 -23 -18q-6 -6 -6 -32q0 -31 7 -44q6 -12 37 -12q18 0 37 9q17 9 19 27q0 11 -3 19q-1 6 -17 7q-2 0 -6 -3q-3 -3 -3 -6v-11q0 -3 8 -4q3 0 5 -1q1 0 2 1q0 8 -1 9q0 2 -3 6q1 1 2 1
q2 0 5 1l3 -9q3 -8 -1 -15q-2 -2 -15 -2q-11 1 -14 14q-1 12 3 19q6 8 17 9q12 0 19 -6q6 -6 6 -28q0 -18 -15 -32q-14 -12 -44 -18t-48 18q-16 23 -13 53q3 27 43 67q39 41 184 38q141 -1 215 -34q71 -30 67 -67q-4 -36 -27 -42q-21 -5 -57 -21q-35 -14 -85 -16zM433 -87
q-1 54 -12 71q-13 21 -29 55q-32 64 -44 105q-8 27 -16 139q-2 36 -2 39q0 20 -2 38v43h9v-43q3 -25 3 -38q0 -4 1.5 -17t1.5 -22q8 -110 15 -139q10 -40 44 -105q22 -44 29 -55q9 -14 13 -71h-11zM150 -128q12 24 12 54q0 17 2 61q0 13 1 17q0 10 2 19q4 90 5 103
q2 36 13 97q7 42 8 45q0 5 9 47q4 20 10 53q3 33 8 63h9q-2 -12 -3.5 -26.5t-2.5 -23t-2 -13.5q-1 -13 -9 -53q-6 -39 -10 -47q-2 -3 -8 -45q-9 -64 -12 -97q0 -10 -1.5 -44.5t-2.5 -58.5q0 -14 -2 -19q0 -8 -2 -17q0 -10 -0.5 -30.5t-1.5 -30.5q0 -28 -12 -54h-10z
M209 -143q6 16 22 61q5 18 7 81v20v18q-1 44 -1 94q0 5 4 97q1 19 1 37q0 7 3 36q5 43 6 64q0 25 8 61h11q-6 -42 -9 -61q0 -4 -2 -25.5t-3 -38.5q-1 -10 -2 -21.5t-1 -14.5q0 -2 -0.5 -6.5t-1 -13.5t-0.5 -17q-2 -27 -3 -61t-1 -36q0 -49 1 -94v-18v-20q0 -61 -7 -81
q-5 -16 -21 -61h-11zM324 -207l5 27q0 52 -6 84t-12 77q-3 35 -5 40q0 19 -2 39q-7 91 -7 93q-2 42 -2 100v160h11v-160q0 -78 1 -100q0 -36 7 -93q3 -30 3 -39q0 -5 5 -40q2 -14 5.5 -40t5.5 -37q3 -22 5 -84l-3 -27h-11z" />
    <glyph glyph-name="Delta" unicode="&#x2206;" horiz-adv-x="601" 
d="M284 577l-14 146l29 -146h-15zM318 574l-12 3l23 144zM264 571l-52 137l65 -132zM337 564l-12 7l61 134zM245 562l-85 117l97 -110zM353 552l-9 10l93 113zM229 547l-113 93l123 -83zM365 534l-6 12l117 85zM220 528l-135 61l139 -48zM372 514l-4 13l137 52zM295 489
q-66 -1 -66 14q0 28 19 47q17 17 47 19q27 0 47 -16q18 -15 19 -50q0 -14 -66 -14zM214 509l-146 23l148 -9zM373 495l1 12l146 14zM405 300q-24 0 -36 10t-11 31q0 39 22 53q20 12 51 12q32 0 48 -8q18 -6 15 -19q-4 -15 -14 -34q-10 -21 -40 -22q-26 0 -32 10q-3 12 0 22
q3 12 11 15q4 2 17 2v-9h-5h-3q-3 0 -7 -4q-1 -1 -1 -3t-1 -3q0 -13 3 -18q2 -2 18 -4q21 0 33 15q11 14 13 36q0 9 -22 13q-7 1 -34 4q-30 0 -47 -14q-17 -12 -17 -42q-1 -30 22 -32h56q21 0 27 6q4 6 22 13q5 2 41 14q26 6 26 29q1 46 -29 51q-23 4 -73 17
q-19 5 -42.5 10.5t-27.5 6.5q-14 3 -74 13h-51q-57 -9 -89 -11q-18 0 -67 -37q-20 -16 -23 -18q-6 -6 -6 -32q0 -31 7 -44q6 -12 37 -12q18 0 37 9q17 9 19 27q0 11 -3 19q-1 6 -17 7q-2 0 -6 -3q-3 -3 -3 -6v-11q0 -3 8 -4q3 0 5 -1q1 0 2 1q0 8 -1 9q0 2 -3 6q1 1 2 1
q2 0 5 1l3 -9q3 -8 -1 -15q-2 -2 -15 -2q-11 1 -14 14q-1 12 3 19q6 8 17 9q12 0 19 -6q6 -6 6 -28q0 -18 -15 -32q-14 -12 -44 -18t-48 18q-16 23 -13 53q3 27 43 67q39 41 184 38q141 -1 215 -34q71 -30 67 -67q-4 -36 -27 -42q-21 -5 -57 -21q-35 -14 -85 -16zM433 -87
q-1 54 -12 71q-13 21 -29 55q-32 64 -44 105q-8 27 -16 139q-2 36 -2 39q0 20 -2 38v43h9v-43q3 -25 3 -38q0 -4 1.5 -17t1.5 -22q8 -110 15 -139q10 -40 44 -105q22 -44 29 -55q9 -14 13 -71h-11zM150 -128q12 24 12 54q0 17 2 61q0 13 1 17q0 10 2 19q4 90 5 103
q2 36 13 97q7 42 8 45q0 5 9 47q4 20 10 53q3 33 8 63h9q-2 -12 -3.5 -26.5t-2.5 -23t-2 -13.5q-1 -13 -9 -53q-6 -39 -10 -47q-2 -3 -8 -45q-9 -64 -12 -97q0 -10 -1.5 -44.5t-2.5 -58.5q0 -14 -2 -19q0 -8 -2 -17q0 -10 -0.5 -30.5t-1.5 -30.5q0 -28 -12 -54h-10z
M209 -143q6 16 22 61q5 18 7 81v20v18q-1 44 -1 94q0 5 4 97q1 19 1 37q0 7 3 36q5 43 6 64q0 25 8 61h11q-6 -42 -9 -61q0 -4 -2 -25.5t-3 -38.5q-1 -10 -2 -21.5t-1 -14.5q0 -2 -0.5 -6.5t-1 -13.5t-0.5 -17q-2 -27 -3 -61t-1 -36q0 -49 1 -94v-18v-20q0 -61 -7 -81
q-5 -16 -21 -61h-11zM324 -207l5 27q0 52 -6 84t-12 77q-3 35 -5 40q0 19 -2 39q-7 91 -7 93q-2 42 -2 100v160h11v-160q0 -78 1 -100q0 -36 7 -93q3 -30 3 -39q0 -5 5 -40q2 -14 5.5 -40t5.5 -37q3 -22 5 -84l-3 -27h-11z" />
    <glyph glyph-name="Omega" unicode="&#x3a9;" horiz-adv-x="601" 
d="M284 577l-14 146l29 -146h-15zM318 574l-12 3l23 144zM264 571l-52 137l65 -132zM337 564l-12 7l61 134zM245 562l-85 117l97 -110zM353 552l-9 10l93 113zM229 547l-113 93l123 -83zM365 534l-6 12l117 85zM220 528l-135 61l139 -48zM372 514l-4 13l137 52zM295 489
q-66 -1 -66 14q0 28 19 47q17 17 47 19q27 0 47 -16q18 -15 19 -50q0 -14 -66 -14zM214 509l-146 23l148 -9zM373 495l1 12l146 14zM405 300q-24 0 -36 10t-11 31q0 39 22 53q20 12 51 12q32 0 48 -8q18 -6 15 -19q-4 -15 -14 -34q-10 -21 -40 -22q-26 0 -32 10q-3 12 0 22
q3 12 11 15q4 2 17 2v-9h-5h-3q-3 0 -7 -4q-1 -1 -1 -3t-1 -3q0 -13 3 -18q2 -2 18 -4q21 0 33 15q11 14 13 36q0 9 -22 13q-7 1 -34 4q-30 0 -47 -14q-17 -12 -17 -42q-1 -30 22 -32h56q21 0 27 6q4 6 22 13q5 2 41 14q26 6 26 29q1 46 -29 51q-23 4 -73 17
q-19 5 -42.5 10.5t-27.5 6.5q-14 3 -74 13h-51q-57 -9 -89 -11q-18 0 -67 -37q-20 -16 -23 -18q-6 -6 -6 -32q0 -31 7 -44q6 -12 37 -12q18 0 37 9q17 9 19 27q0 11 -3 19q-1 6 -17 7q-2 0 -6 -3q-3 -3 -3 -6v-11q0 -3 8 -4q3 0 5 -1q1 0 2 1q0 8 -1 9q0 2 -3 6q1 1 2 1
q2 0 5 1l3 -9q3 -8 -1 -15q-2 -2 -15 -2q-11 1 -14 14q-1 12 3 19q6 8 17 9q12 0 19 -6q6 -6 6 -28q0 -18 -15 -32q-14 -12 -44 -18t-48 18q-16 23 -13 53q3 27 43 67q39 41 184 38q141 -1 215 -34q71 -30 67 -67q-4 -36 -27 -42q-21 -5 -57 -21q-35 -14 -85 -16zM433 -87
q-1 54 -12 71q-13 21 -29 55q-32 64 -44 105q-8 27 -16 139q-2 36 -2 39q0 20 -2 38v43h9v-43q3 -25 3 -38q0 -4 1.5 -17t1.5 -22q8 -110 15 -139q10 -40 44 -105q22 -44 29 -55q9 -14 13 -71h-11zM150 -128q12 24 12 54q0 17 2 61q0 13 1 17q0 10 2 19q4 90 5 103
q2 36 13 97q7 42 8 45q0 5 9 47q4 20 10 53q3 33 8 63h9q-2 -12 -3.5 -26.5t-2.5 -23t-2 -13.5q-1 -13 -9 -53q-6 -39 -10 -47q-2 -3 -8 -45q-9 -64 -12 -97q0 -10 -1.5 -44.5t-2.5 -58.5q0 -14 -2 -19q0 -8 -2 -17q0 -10 -0.5 -30.5t-1.5 -30.5q0 -28 -12 -54h-10z
M209 -143q6 16 22 61q5 18 7 81v20v18q-1 44 -1 94q0 5 4 97q1 19 1 37q0 7 3 36q5 43 6 64q0 25 8 61h11q-6 -42 -9 -61q0 -4 -2 -25.5t-3 -38.5q-1 -10 -2 -21.5t-1 -14.5q0 -2 -0.5 -6.5t-1 -13.5t-0.5 -17q-2 -27 -3 -61t-1 -36q0 -49 1 -94v-18v-20q0 -61 -7 -81
q-5 -16 -21 -61h-11zM324 -207l5 27q0 52 -6 84t-12 77q-3 35 -5 40q0 19 -2 39q-7 91 -7 93q-2 42 -2 100v160h11v-160q0 -78 1 -100q0 -36 7 -93q3 -30 3 -39q0 -5 5 -40q2 -14 5.5 -40t5.5 -37q3 -22 5 -84l-3 -27h-11z" />
    <glyph glyph-name="Omega" unicode="&#x2126;" horiz-adv-x="601" 
d="M284 577l-14 146l29 -146h-15zM318 574l-12 3l23 144zM264 571l-52 137l65 -132zM337 564l-12 7l61 134zM245 562l-85 117l97 -110zM353 552l-9 10l93 113zM229 547l-113 93l123 -83zM365 534l-6 12l117 85zM220 528l-135 61l139 -48zM372 514l-4 13l137 52zM295 489
q-66 -1 -66 14q0 28 19 47q17 17 47 19q27 0 47 -16q18 -15 19 -50q0 -14 -66 -14zM214 509l-146 23l148 -9zM373 495l1 12l146 14zM405 300q-24 0 -36 10t-11 31q0 39 22 53q20 12 51 12q32 0 48 -8q18 -6 15 -19q-4 -15 -14 -34q-10 -21 -40 -22q-26 0 -32 10q-3 12 0 22
q3 12 11 15q4 2 17 2v-9h-5h-3q-3 0 -7 -4q-1 -1 -1 -3t-1 -3q0 -13 3 -18q2 -2 18 -4q21 0 33 15q11 14 13 36q0 9 -22 13q-7 1 -34 4q-30 0 -47 -14q-17 -12 -17 -42q-1 -30 22 -32h56q21 0 27 6q4 6 22 13q5 2 41 14q26 6 26 29q1 46 -29 51q-23 4 -73 17
q-19 5 -42.5 10.5t-27.5 6.5q-14 3 -74 13h-51q-57 -9 -89 -11q-18 0 -67 -37q-20 -16 -23 -18q-6 -6 -6 -32q0 -31 7 -44q6 -12 37 -12q18 0 37 9q17 9 19 27q0 11 -3 19q-1 6 -17 7q-2 0 -6 -3q-3 -3 -3 -6v-11q0 -3 8 -4q3 0 5 -1q1 0 2 1q0 8 -1 9q0 2 -3 6q1 1 2 1
q2 0 5 1l3 -9q3 -8 -1 -15q-2 -2 -15 -2q-11 1 -14 14q-1 12 3 19q6 8 17 9q12 0 19 -6q6 -6 6 -28q0 -18 -15 -32q-14 -12 -44 -18t-48 18q-16 23 -13 53q3 27 43 67q39 41 184 38q141 -1 215 -34q71 -30 67 -67q-4 -36 -27 -42q-21 -5 -57 -21q-35 -14 -85 -16zM433 -87
q-1 54 -12 71q-13 21 -29 55q-32 64 -44 105q-8 27 -16 139q-2 36 -2 39q0 20 -2 38v43h9v-43q3 -25 3 -38q0 -4 1.5 -17t1.5 -22q8 -110 15 -139q10 -40 44 -105q22 -44 29 -55q9 -14 13 -71h-11zM150 -128q12 24 12 54q0 17 2 61q0 13 1 17q0 10 2 19q4 90 5 103
q2 36 13 97q7 42 8 45q0 5 9 47q4 20 10 53q3 33 8 63h9q-2 -12 -3.5 -26.5t-2.5 -23t-2 -13.5q-1 -13 -9 -53q-6 -39 -10 -47q-2 -3 -8 -45q-9 -64 -12 -97q0 -10 -1.5 -44.5t-2.5 -58.5q0 -14 -2 -19q0 -8 -2 -17q0 -10 -0.5 -30.5t-1.5 -30.5q0 -28 -12 -54h-10z
M209 -143q6 16 22 61q5 18 7 81v20v18q-1 44 -1 94q0 5 4 97q1 19 1 37q0 7 3 36q5 43 6 64q0 25 8 61h11q-6 -42 -9 -61q0 -4 -2 -25.5t-3 -38.5q-1 -10 -2 -21.5t-1 -14.5q0 -2 -0.5 -6.5t-1 -13.5t-0.5 -17q-2 -27 -3 -61t-1 -36q0 -49 1 -94v-18v-20q0 -61 -7 -81
q-5 -16 -21 -61h-11zM324 -207l5 27q0 52 -6 84t-12 77q-3 35 -5 40q0 19 -2 39q-7 91 -7 93q-2 42 -2 100v160h11v-160q0 -78 1 -100q0 -36 7 -93q3 -30 3 -39q0 -5 5 -40q2 -14 5.5 -40t5.5 -37q3 -22 5 -84l-3 -27h-11z" />
    <glyph glyph-name="pi" unicode="&#x3c0;" horiz-adv-x="770" 
d="M387 -10q-147 0 -249 101.5t-102 248.5q0 146 102.5 248.5t248.5 102.5t249 -102.5t103 -248.5q0 -147 -102.5 -248.5t-249.5 -101.5zM386 10q134 0 228 97.5t94 232.5q0 134 -94 231.5t-228 97.5q-135 0 -228 -97t-93 -232q0 -136 93 -233t228 -97zM232 126v13
q38 0 46.5 7.5t8.5 37.5v308q0 27 -9 34t-46 7v13h183q57 0 100 -25.5t43 -81.5q0 -54 -40.5 -84.5t-113.5 -30.5h-55v-144q0 -28 8.5 -34.5t47.5 -6.5v-13h-173zM349 339h49q93 0 93 97t-83 97h-27q-20 0 -26 -8.5t-6 -35.5v-150z" />
    <glyph glyph-name="endash" unicode="&#x2013;" horiz-adv-x="520" 
d="M20 228v62h480v-62h-480z" />
    <glyph glyph-name="emdash" unicode="&#x2014;" horiz-adv-x="1020" 
d="M20 228v62h980v-62h-980z" />
    <glyph glyph-name="quoteleft" unicode="&#x2018;" horiz-adv-x="233" 
d="M125 458q-35 0 -55 27t-20 63q0 44 31 92.5t72 86.5l13 -13q-25 -24 -51 -63.5t-27 -66.5q0 -10 5 -11q4 0 15.5 3t19.5 3q28 0 44 -15t16 -43q0 -26 -18.5 -44.5t-44.5 -18.5z" />
    <glyph glyph-name="quoteright" unicode="&#x2019;" horiz-adv-x="233" 
d="M86 447l-14 12q26 24 52 64t27 67q2 10 -5 10q-4 1 -15.5 -2.5t-19.5 -3.5q-28 0 -44 15t-16 43q0 27 19 45.5t45 18.5q34 0 54.5 -27.5t20.5 -63.5q0 -44 -31 -92t-73 -86z" />
    <glyph glyph-name="quotesinglbase" unicode="&#x201a;" horiz-adv-x="222" 
d="M78 -156l-14 14q28 27 56 68.5t28 69.5q0 9 -6 9q-4 0 -16 -5t-24 -5q-28 0 -44 16t-16 43t19.5 45.5t46.5 18.5q35 0 54.5 -26.5t19.5 -62.5q0 -85 -104 -185z" />
    <glyph glyph-name="quotedblleft" unicode="&#x201c;" horiz-adv-x="412" 
d="M303 458q-35 0 -55 27t-20 63q0 44 31 92.5t72 86.5l14 -13q-26 -25 -51.5 -64.5t-26.5 -65.5q-1 -10 4 -11q4 0 15.5 3t20.5 3q27 0 43 -15.5t16 -42.5q0 -26 -18.5 -44.5t-44.5 -18.5zM124 458q-35 0 -54.5 27t-19.5 63q0 44 31 92.5t72 86.5l13 -13q-25 -24 -51 -63.5
t-27 -66.5q0 -10 5 -11q4 0 15.5 3t19.5 3q27 0 43.5 -15.5t16.5 -42.5q0 -26 -19 -44.5t-45 -18.5z" />
    <glyph glyph-name="quotedblright" unicode="&#x201d;" horiz-adv-x="412" 
d="M265 447l-13 12q25 24 51 64t27 67q0 10 -5 10q-4 1 -15.5 -2.5t-19.5 -3.5q-27 0 -43.5 15.5t-16.5 42.5t19 45.5t45 18.5q35 0 54.5 -27.5t19.5 -63.5q0 -44 -31 -92t-72 -86zM87 447l-14 12q26 25 51.5 65t26.5 66q2 10 -4 10q-4 1 -16 -2.5t-20 -3.5
q-27 0 -43.5 15.5t-16.5 42.5t19 45.5t45 18.5q35 0 55 -27.5t20 -63.5q0 -82 -103 -178z" />
    <glyph glyph-name="quotedblbase" unicode="&#x201e;" horiz-adv-x="429" 
d="M258 -156l-15 14q28 26 56.5 68t28.5 70q0 9 -7 9q-4 0 -15.5 -5t-23.5 -5q-28 0 -44 16t-16 43t19 45.5t46 18.5q35 0 55 -26.5t20 -62.5q0 -85 -104 -185zM78 -156l-14 14q28 27 56 68.5t28 69.5q0 9 -6 9q-4 0 -16 -5t-24 -5q-28 0 -44 16t-16 43t19.5 45.5t46.5 18.5
q35 0 54.5 -26.5t19.5 -62.5q0 -85 -104 -185z" />
    <glyph glyph-name="dagger" unicode="&#x2020;" horiz-adv-x="454" 
d="M219 -98q-6 190 -19 288q-15 112 -32 177q26 12 39 49t13 78h-8q-22 0 -63.5 -22.5t-60.5 -22.5q-22 0 -35.5 14t-13.5 36q0 21 14.5 36t35.5 15q19 0 60.5 -21.5t63.5 -21.5h7v5q0 36 -24 86t-24 66q0 21 17 36.5t39 15.5q23 0 39.5 -15t16.5 -37q0 -16 -24 -66t-24 -85
v-6h7q22 0 63.5 21.5t60.5 21.5q21 0 35 -15t14 -36q0 -22 -13 -36t-35 -14q-19 0 -60.5 22.5t-64.5 22.5h-6q0 -41 13 -78t38 -49q-17 -65 -32 -177q-13 -111 -19 -288h-18z" />
    <glyph glyph-name="daggerdbl" unicode="&#x2021;" horiz-adv-x="454" 
d="M228 -98q-23 0 -39.5 15t-16.5 37q0 17 24 67t24 85v6h-8q-22 0 -63 -22t-60 -22q-21 0 -35.5 15t-14.5 36q0 22 13.5 36t35.5 14q18 0 60 -22t64 -22h7q0 48 -14 113.5t-37 80.5q24 11 38 69.5t14 105.5h-8q-22 0 -63.5 -22.5t-60.5 -22.5q-22 0 -35.5 14t-13.5 36
q0 21 14.5 36t35.5 15q19 0 60.5 -21.5t63.5 -21.5h7v5q0 36 -24 86t-24 66q0 21 17 36.5t39 15.5q23 0 39.5 -15t16.5 -37q0 -16 -24 -66t-24 -85v-6h7q22 0 63.5 21.5t60.5 21.5q21 0 35 -15t14 -36q0 -22 -13 -36t-35 -14q-19 0 -60.5 22.5t-64.5 22.5h-6
q0 -48 13.5 -106t37.5 -69q-25 -15 -38.5 -79.5t-13.5 -114.5h7q23 0 64.5 22t60.5 22q22 0 35 -14t13 -36q0 -21 -14 -36t-35 -15q-19 0 -60.5 22t-63.5 22h-7v-6q0 -35 24 -85t24 -67q0 -21 -17 -36.5t-39 -15.5z" />
    <glyph glyph-name="bullet" unicode="&#x2022;" horiz-adv-x="420" 
d="M210 185q-64 0 -108 45t-44 109q0 63 45 107.5t108 44.5q62 0 107 -44.5t45 -107.5q0 -64 -45 -109t-108 -45z" />
    <glyph glyph-name="ellipsis" unicode="&#x2026;" horiz-adv-x="697" 
d="M586 -12q-27 0 -45 17.5t-18 45.5q0 27 18 45.5t45 18.5q25 0 43.5 -19t18.5 -45q0 -27 -18 -45t-44 -18zM350 -12q-27 0 -44.5 17.5t-17.5 45.5q0 26 18 45t44 19q27 0 45 -18.5t18 -45.5t-18 -45t-45 -18zM111 -12q-27 0 -44.5 17.5t-17.5 45.5q0 26 18 45t44 19
q27 0 45 -18.5t18 -45.5q0 -28 -17.5 -45.5t-45.5 -17.5z" />
    <glyph glyph-name="perthousand" unicode="&#x2030;" horiz-adv-x="1109" 
d="M242 0q106 291 226 594q-45 -29 -87 -29q-48 0 -84 25q16 -48 16 -115q0 -54 -13 -103t-48 -87t-86 -38t-84.5 37.5t-46 85.5t-12.5 102q0 39 7.5 78t23.5 75t45.5 58.5t68.5 22.5q60 0 101 -59q14 -21 18 -29q34 -37 95 -37q24 0 52 11.5t44 27.5q2 4 10.5 27t14.5 38
q4 12 17 12q14 0 14 -18q0 -5 -5 -17.5t-17.5 -40.5t-22.5 -54q-43 -109 -120.5 -315t-94.5 -252h-32zM939 -8q-38 0 -67.5 21.5t-45.5 56t-23.5 72t-7.5 75.5q0 55 12.5 105t47 89.5t86.5 39.5q38 0 67.5 -22t45 -58t23 -74t7.5 -77t-7.5 -77t-23.5 -73t-45.5 -56.5
t-68.5 -21.5zM603 -8q-50 0 -84 38t-46.5 86t-12.5 101q0 40 7.5 78.5t23.5 74.5t45.5 58.5t68.5 22.5q51 0 85 -39t46.5 -88.5t12.5 -103.5t-12.5 -103t-47 -87t-86.5 -38zM168 261q46 0 57 70q9 55 9 145q0 89 -9 145q-11 72 -58 72q-46 0 -57 -69q-8 -53 -8 -157
q0 -88 9 -143q12 -63 57 -63zM941 6q46 0 57 69q9 55 9 145t-9 146q-11 71 -58 71q-46 0 -57 -68q-8 -49 -8 -162q0 -86 9 -139q12 -62 57 -62zM605 6q46 0 57 69q9 55 9 145t-9 146q-11 71 -58 71q-46 0 -57 -68q-8 -49 -8 -162q0 -86 9 -139q12 -62 57 -62z" />
    <glyph glyph-name="guilsinglleft" unicode="&#x2039;" horiz-adv-x="341" 
d="M295 1l-252 237v19l252 237v-20l-156 -226l156 -227v-20z" />
    <glyph glyph-name="guilsinglright" unicode="&#x203a;" horiz-adv-x="341" 
d="M48 1v20l155 226l-155 227v20l251 -237v-19z" />
    <glyph glyph-name="fraction" unicode="&#x2044;" horiz-adv-x="284" 
d="M-76 -16l400 731h35l-400 -731h-35z" />
    <glyph glyph-name="fraction" unicode="&#x2215;" horiz-adv-x="284" 
d="M-76 -16l400 731h35l-400 -731h-35z" />
    <glyph glyph-name="Euro" unicode="&#x20ac;" horiz-adv-x="493" 
d="M282 -10q-97 0 -154.5 86.5t-67.5 216.5h-42v20h40q-1 12 -1 38q0 25 1 38h-40v19h43q11 123 72 210.5t150 87.5q32 0 60.5 -12t37.5 -19t26 -24q4 -5 10 -7q8 -2 16 13t11 38h13q1 -47 2 -131.5t1 -125.5h-18q-1 3 -1.5 8.5t-0.5 8.5q-14 104 -53.5 168.5t-99.5 64.5
q-117 0 -127 -280h229v-19h-230q-1 -13 -1 -39q0 -25 1 -37h230v-20h-229q10 -271 143 -271q65 0 105.5 66.5t41.5 180.5h18v-12q-12 -267 -186 -267z" />
    <glyph glyph-name="trademark" unicode="&#x2122;" horiz-adv-x="715" 
d="M91 422v14q34 0 42.5 7.5t8.5 36.5v170q0 22 -4 29t-22 7q-39 0 -52.5 -19t-19.5 -68h-15v102h284v-102h-16q-4 48 -18.5 67.5t-52.5 19.5q-16 0 -21 -7.5t-5 -28.5v-171q0 -29 8 -36t42 -7v-14h-159zM489 421l-95 250v-194q0 -27 8 -34.5t35 -7.5v-13h-103v13q27 0 35 8
t8 36v169q0 26 -6.5 32t-36.5 6v15h107l76 -201q4 10 39 100.5t39 100.5h105v-15q-29 0 -36 -5t-7 -25v-182q0 -26 7 -32.5t36 -6.5v-13h-142v13q29 0 36 6.5t7 34.5v196q-22 -66 -96 -251h-16z" />
    <glyph glyph-name="partialdiff" unicode="&#x2202;" horiz-adv-x="601" 
d="M284 577l-14 146l29 -146h-15zM318 574l-12 3l23 144zM264 571l-52 137l65 -132zM337 564l-12 7l61 134zM245 562l-85 117l97 -110zM353 552l-9 10l93 113zM229 547l-113 93l123 -83zM365 534l-6 12l117 85zM220 528l-135 61l139 -48zM372 514l-4 13l137 52zM295 489
q-66 -1 -66 14q0 28 19 47q17 17 47 19q27 0 47 -16q18 -15 19 -50q0 -14 -66 -14zM214 509l-146 23l148 -9zM373 495l1 12l146 14zM405 300q-24 0 -36 10t-11 31q0 39 22 53q20 12 51 12q32 0 48 -8q18 -6 15 -19q-4 -15 -14 -34q-10 -21 -40 -22q-26 0 -32 10q-3 12 0 22
q3 12 11 15q4 2 17 2v-9h-5h-3q-3 0 -7 -4q-1 -1 -1 -3t-1 -3q0 -13 3 -18q2 -2 18 -4q21 0 33 15q11 14 13 36q0 9 -22 13q-7 1 -34 4q-30 0 -47 -14q-17 -12 -17 -42q-1 -30 22 -32h56q21 0 27 6q4 6 22 13q5 2 41 14q26 6 26 29q1 46 -29 51q-23 4 -73 17
q-19 5 -42.5 10.5t-27.5 6.5q-14 3 -74 13h-51q-57 -9 -89 -11q-18 0 -67 -37q-20 -16 -23 -18q-6 -6 -6 -32q0 -31 7 -44q6 -12 37 -12q18 0 37 9q17 9 19 27q0 11 -3 19q-1 6 -17 7q-2 0 -6 -3q-3 -3 -3 -6v-11q0 -3 8 -4q3 0 5 -1q1 0 2 1q0 8 -1 9q0 2 -3 6q1 1 2 1
q2 0 5 1l3 -9q3 -8 -1 -15q-2 -2 -15 -2q-11 1 -14 14q-1 12 3 19q6 8 17 9q12 0 19 -6q6 -6 6 -28q0 -18 -15 -32q-14 -12 -44 -18t-48 18q-16 23 -13 53q3 27 43 67q39 41 184 38q141 -1 215 -34q71 -30 67 -67q-4 -36 -27 -42q-21 -5 -57 -21q-35 -14 -85 -16zM433 -87
q-1 54 -12 71q-13 21 -29 55q-32 64 -44 105q-8 27 -16 139q-2 36 -2 39q0 20 -2 38v43h9v-43q3 -25 3 -38q0 -4 1.5 -17t1.5 -22q8 -110 15 -139q10 -40 44 -105q22 -44 29 -55q9 -14 13 -71h-11zM150 -128q12 24 12 54q0 17 2 61q0 13 1 17q0 10 2 19q4 90 5 103
q2 36 13 97q7 42 8 45q0 5 9 47q4 20 10 53q3 33 8 63h9q-2 -12 -3.5 -26.5t-2.5 -23t-2 -13.5q-1 -13 -9 -53q-6 -39 -10 -47q-2 -3 -8 -45q-9 -64 -12 -97q0 -10 -1.5 -44.5t-2.5 -58.5q0 -14 -2 -19q0 -8 -2 -17q0 -10 -0.5 -30.5t-1.5 -30.5q0 -28 -12 -54h-10z
M209 -143q6 16 22 61q5 18 7 81v20v18q-1 44 -1 94q0 5 4 97q1 19 1 37q0 7 3 36q5 43 6 64q0 25 8 61h11q-6 -42 -9 -61q0 -4 -2 -25.5t-3 -38.5q-1 -10 -2 -21.5t-1 -14.5q0 -2 -0.5 -6.5t-1 -13.5t-0.5 -17q-2 -27 -3 -61t-1 -36q0 -49 1 -94v-18v-20q0 -61 -7 -81
q-5 -16 -21 -61h-11zM324 -207l5 27q0 52 -6 84t-12 77q-3 35 -5 40q0 19 -2 39q-7 91 -7 93q-2 42 -2 100v160h11v-160q0 -78 1 -100q0 -36 7 -93q3 -30 3 -39q0 -5 5 -40q2 -14 5.5 -40t5.5 -37q3 -22 5 -84l-3 -27h-11z" />
    <glyph glyph-name="product" unicode="&#x220f;" horiz-adv-x="601" 
d="M284 577l-14 146l29 -146h-15zM318 574l-12 3l23 144zM264 571l-52 137l65 -132zM337 564l-12 7l61 134zM245 562l-85 117l97 -110zM353 552l-9 10l93 113zM229 547l-113 93l123 -83zM365 534l-6 12l117 85zM220 528l-135 61l139 -48zM372 514l-4 13l137 52zM295 489
q-66 -1 -66 14q0 28 19 47q17 17 47 19q27 0 47 -16q18 -15 19 -50q0 -14 -66 -14zM214 509l-146 23l148 -9zM373 495l1 12l146 14zM405 300q-24 0 -36 10t-11 31q0 39 22 53q20 12 51 12q32 0 48 -8q18 -6 15 -19q-4 -15 -14 -34q-10 -21 -40 -22q-26 0 -32 10q-3 12 0 22
q3 12 11 15q4 2 17 2v-9h-5h-3q-3 0 -7 -4q-1 -1 -1 -3t-1 -3q0 -13 3 -18q2 -2 18 -4q21 0 33 15q11 14 13 36q0 9 -22 13q-7 1 -34 4q-30 0 -47 -14q-17 -12 -17 -42q-1 -30 22 -32h56q21 0 27 6q4 6 22 13q5 2 41 14q26 6 26 29q1 46 -29 51q-23 4 -73 17
q-19 5 -42.5 10.5t-27.5 6.5q-14 3 -74 13h-51q-57 -9 -89 -11q-18 0 -67 -37q-20 -16 -23 -18q-6 -6 -6 -32q0 -31 7 -44q6 -12 37 -12q18 0 37 9q17 9 19 27q0 11 -3 19q-1 6 -17 7q-2 0 -6 -3q-3 -3 -3 -6v-11q0 -3 8 -4q3 0 5 -1q1 0 2 1q0 8 -1 9q0 2 -3 6q1 1 2 1
q2 0 5 1l3 -9q3 -8 -1 -15q-2 -2 -15 -2q-11 1 -14 14q-1 12 3 19q6 8 17 9q12 0 19 -6q6 -6 6 -28q0 -18 -15 -32q-14 -12 -44 -18t-48 18q-16 23 -13 53q3 27 43 67q39 41 184 38q141 -1 215 -34q71 -30 67 -67q-4 -36 -27 -42q-21 -5 -57 -21q-35 -14 -85 -16zM433 -87
q-1 54 -12 71q-13 21 -29 55q-32 64 -44 105q-8 27 -16 139q-2 36 -2 39q0 20 -2 38v43h9v-43q3 -25 3 -38q0 -4 1.5 -17t1.5 -22q8 -110 15 -139q10 -40 44 -105q22 -44 29 -55q9 -14 13 -71h-11zM150 -128q12 24 12 54q0 17 2 61q0 13 1 17q0 10 2 19q4 90 5 103
q2 36 13 97q7 42 8 45q0 5 9 47q4 20 10 53q3 33 8 63h9q-2 -12 -3.5 -26.5t-2.5 -23t-2 -13.5q-1 -13 -9 -53q-6 -39 -10 -47q-2 -3 -8 -45q-9 -64 -12 -97q0 -10 -1.5 -44.5t-2.5 -58.5q0 -14 -2 -19q0 -8 -2 -17q0 -10 -0.5 -30.5t-1.5 -30.5q0 -28 -12 -54h-10z
M209 -143q6 16 22 61q5 18 7 81v20v18q-1 44 -1 94q0 5 4 97q1 19 1 37q0 7 3 36q5 43 6 64q0 25 8 61h11q-6 -42 -9 -61q0 -4 -2 -25.5t-3 -38.5q-1 -10 -2 -21.5t-1 -14.5q0 -2 -0.5 -6.5t-1 -13.5t-0.5 -17q-2 -27 -3 -61t-1 -36q0 -49 1 -94v-18v-20q0 -61 -7 -81
q-5 -16 -21 -61h-11zM324 -207l5 27q0 52 -6 84t-12 77q-3 35 -5 40q0 19 -2 39q-7 91 -7 93q-2 42 -2 100v160h11v-160q0 -78 1 -100q0 -36 7 -93q3 -30 3 -39q0 -5 5 -40q2 -14 5.5 -40t5.5 -37q3 -22 5 -84l-3 -27h-11z" />
    <glyph glyph-name="summation" unicode="&#x2211;" horiz-adv-x="601" 
d="M284 577l-14 146l29 -146h-15zM318 574l-12 3l23 144zM264 571l-52 137l65 -132zM337 564l-12 7l61 134zM245 562l-85 117l97 -110zM353 552l-9 10l93 113zM229 547l-113 93l123 -83zM365 534l-6 12l117 85zM220 528l-135 61l139 -48zM372 514l-4 13l137 52zM295 489
q-66 -1 -66 14q0 28 19 47q17 17 47 19q27 0 47 -16q18 -15 19 -50q0 -14 -66 -14zM214 509l-146 23l148 -9zM373 495l1 12l146 14zM405 300q-24 0 -36 10t-11 31q0 39 22 53q20 12 51 12q32 0 48 -8q18 -6 15 -19q-4 -15 -14 -34q-10 -21 -40 -22q-26 0 -32 10q-3 12 0 22
q3 12 11 15q4 2 17 2v-9h-5h-3q-3 0 -7 -4q-1 -1 -1 -3t-1 -3q0 -13 3 -18q2 -2 18 -4q21 0 33 15q11 14 13 36q0 9 -22 13q-7 1 -34 4q-30 0 -47 -14q-17 -12 -17 -42q-1 -30 22 -32h56q21 0 27 6q4 6 22 13q5 2 41 14q26 6 26 29q1 46 -29 51q-23 4 -73 17
q-19 5 -42.5 10.5t-27.5 6.5q-14 3 -74 13h-51q-57 -9 -89 -11q-18 0 -67 -37q-20 -16 -23 -18q-6 -6 -6 -32q0 -31 7 -44q6 -12 37 -12q18 0 37 9q17 9 19 27q0 11 -3 19q-1 6 -17 7q-2 0 -6 -3q-3 -3 -3 -6v-11q0 -3 8 -4q3 0 5 -1q1 0 2 1q0 8 -1 9q0 2 -3 6q1 1 2 1
q2 0 5 1l3 -9q3 -8 -1 -15q-2 -2 -15 -2q-11 1 -14 14q-1 12 3 19q6 8 17 9q12 0 19 -6q6 -6 6 -28q0 -18 -15 -32q-14 -12 -44 -18t-48 18q-16 23 -13 53q3 27 43 67q39 41 184 38q141 -1 215 -34q71 -30 67 -67q-4 -36 -27 -42q-21 -5 -57 -21q-35 -14 -85 -16zM433 -87
q-1 54 -12 71q-13 21 -29 55q-32 64 -44 105q-8 27 -16 139q-2 36 -2 39q0 20 -2 38v43h9v-43q3 -25 3 -38q0 -4 1.5 -17t1.5 -22q8 -110 15 -139q10 -40 44 -105q22 -44 29 -55q9 -14 13 -71h-11zM150 -128q12 24 12 54q0 17 2 61q0 13 1 17q0 10 2 19q4 90 5 103
q2 36 13 97q7 42 8 45q0 5 9 47q4 20 10 53q3 33 8 63h9q-2 -12 -3.5 -26.5t-2.5 -23t-2 -13.5q-1 -13 -9 -53q-6 -39 -10 -47q-2 -3 -8 -45q-9 -64 -12 -97q0 -10 -1.5 -44.5t-2.5 -58.5q0 -14 -2 -19q0 -8 -2 -17q0 -10 -0.5 -30.5t-1.5 -30.5q0 -28 -12 -54h-10z
M209 -143q6 16 22 61q5 18 7 81v20v18q-1 44 -1 94q0 5 4 97q1 19 1 37q0 7 3 36q5 43 6 64q0 25 8 61h11q-6 -42 -9 -61q0 -4 -2 -25.5t-3 -38.5q-1 -10 -2 -21.5t-1 -14.5q0 -2 -0.5 -6.5t-1 -13.5t-0.5 -17q-2 -27 -3 -61t-1 -36q0 -49 1 -94v-18v-20q0 -61 -7 -81
q-5 -16 -21 -61h-11zM324 -207l5 27q0 52 -6 84t-12 77q-3 35 -5 40q0 19 -2 39q-7 91 -7 93q-2 42 -2 100v160h11v-160q0 -78 1 -100q0 -36 7 -93q3 -30 3 -39q0 -5 5 -40q2 -14 5.5 -40t5.5 -37q3 -22 5 -84l-3 -27h-11z" />
    <glyph glyph-name="minus" unicode="&#x2212;" horiz-adv-x="636" 
d="M77 322v53h481v-53h-481z" />
    <glyph glyph-name="radical" unicode="&#x221a;" horiz-adv-x="601" 
d="M284 577l-14 146l29 -146h-15zM318 574l-12 3l23 144zM264 571l-52 137l65 -132zM337 564l-12 7l61 134zM245 562l-85 117l97 -110zM353 552l-9 10l93 113zM229 547l-113 93l123 -83zM365 534l-6 12l117 85zM220 528l-135 61l139 -48zM372 514l-4 13l137 52zM295 489
q-66 -1 -66 14q0 28 19 47q17 17 47 19q27 0 47 -16q18 -15 19 -50q0 -14 -66 -14zM214 509l-146 23l148 -9zM373 495l1 12l146 14zM405 300q-24 0 -36 10t-11 31q0 39 22 53q20 12 51 12q32 0 48 -8q18 -6 15 -19q-4 -15 -14 -34q-10 -21 -40 -22q-26 0 -32 10q-3 12 0 22
q3 12 11 15q4 2 17 2v-9h-5h-3q-3 0 -7 -4q-1 -1 -1 -3t-1 -3q0 -13 3 -18q2 -2 18 -4q21 0 33 15q11 14 13 36q0 9 -22 13q-7 1 -34 4q-30 0 -47 -14q-17 -12 -17 -42q-1 -30 22 -32h56q21 0 27 6q4 6 22 13q5 2 41 14q26 6 26 29q1 46 -29 51q-23 4 -73 17
q-19 5 -42.5 10.5t-27.5 6.5q-14 3 -74 13h-51q-57 -9 -89 -11q-18 0 -67 -37q-20 -16 -23 -18q-6 -6 -6 -32q0 -31 7 -44q6 -12 37 -12q18 0 37 9q17 9 19 27q0 11 -3 19q-1 6 -17 7q-2 0 -6 -3q-3 -3 -3 -6v-11q0 -3 8 -4q3 0 5 -1q1 0 2 1q0 8 -1 9q0 2 -3 6q1 1 2 1
q2 0 5 1l3 -9q3 -8 -1 -15q-2 -2 -15 -2q-11 1 -14 14q-1 12 3 19q6 8 17 9q12 0 19 -6q6 -6 6 -28q0 -18 -15 -32q-14 -12 -44 -18t-48 18q-16 23 -13 53q3 27 43 67q39 41 184 38q141 -1 215 -34q71 -30 67 -67q-4 -36 -27 -42q-21 -5 -57 -21q-35 -14 -85 -16zM433 -87
q-1 54 -12 71q-13 21 -29 55q-32 64 -44 105q-8 27 -16 139q-2 36 -2 39q0 20 -2 38v43h9v-43q3 -25 3 -38q0 -4 1.5 -17t1.5 -22q8 -110 15 -139q10 -40 44 -105q22 -44 29 -55q9 -14 13 -71h-11zM150 -128q12 24 12 54q0 17 2 61q0 13 1 17q0 10 2 19q4 90 5 103
q2 36 13 97q7 42 8 45q0 5 9 47q4 20 10 53q3 33 8 63h9q-2 -12 -3.5 -26.5t-2.5 -23t-2 -13.5q-1 -13 -9 -53q-6 -39 -10 -47q-2 -3 -8 -45q-9 -64 -12 -97q0 -10 -1.5 -44.5t-2.5 -58.5q0 -14 -2 -19q0 -8 -2 -17q0 -10 -0.5 -30.5t-1.5 -30.5q0 -28 -12 -54h-10z
M209 -143q6 16 22 61q5 18 7 81v20v18q-1 44 -1 94q0 5 4 97q1 19 1 37q0 7 3 36q5 43 6 64q0 25 8 61h11q-6 -42 -9 -61q0 -4 -2 -25.5t-3 -38.5q-1 -10 -2 -21.5t-1 -14.5q0 -2 -0.5 -6.5t-1 -13.5t-0.5 -17q-2 -27 -3 -61t-1 -36q0 -49 1 -94v-18v-20q0 -61 -7 -81
q-5 -16 -21 -61h-11zM324 -207l5 27q0 52 -6 84t-12 77q-3 35 -5 40q0 19 -2 39q-7 91 -7 93q-2 42 -2 100v160h11v-160q0 -78 1 -100q0 -36 7 -93q3 -30 3 -39q0 -5 5 -40q2 -14 5.5 -40t5.5 -37q3 -22 5 -84l-3 -27h-11z" />
    <glyph glyph-name="infinity" unicode="&#x221e;" horiz-adv-x="792" 
d="M395 657q51 59 147 59q54 0 97.5 -22t43.5 -62q0 -25 -15 -40.5t-40 -15.5q-23 0 -37.5 11t-14.5 33q0 21 18 35.5t18 19.5q0 11 -23 18t-45 7q-49 0 -76 -35t-27 -93v-84h119q82 0 146 8v-422q0 -39 12 -48.5t61 -9.5v-16h-230v16q40 0 51.5 10t11.5 50v329q0 44 -9 54
t-45 10h-117v-397q0 -36 11 -46t54 -10v-16h-218v16q38 0 49.5 10.5t11.5 52.5v390h-171v-393q0 -41 12 -50.5t62 -9.5v-16h-238v16q48 0 59.5 10t11.5 53v390h-75v19h75v11q2 96 53 149.5t142 53.5q34 0 66.5 -11.5t48.5 -33.5zM353 564q-43 4 -43 42q0 16 9 26.5t18 17
t9 12.5q0 11 -23 18t-42 7q-50 0 -76.5 -35t-26.5 -96v-68h171v23q0 30 4 53z" />
    <glyph glyph-name="integral" unicode="&#x222b;" horiz-adv-x="601" 
d="M284 577l-14 146l29 -146h-15zM318 574l-12 3l23 144zM264 571l-52 137l65 -132zM337 564l-12 7l61 134zM245 562l-85 117l97 -110zM353 552l-9 10l93 113zM229 547l-113 93l123 -83zM365 534l-6 12l117 85zM220 528l-135 61l139 -48zM372 514l-4 13l137 52zM295 489
q-66 -1 -66 14q0 28 19 47q17 17 47 19q27 0 47 -16q18 -15 19 -50q0 -14 -66 -14zM214 509l-146 23l148 -9zM373 495l1 12l146 14zM405 300q-24 0 -36 10t-11 31q0 39 22 53q20 12 51 12q32 0 48 -8q18 -6 15 -19q-4 -15 -14 -34q-10 -21 -40 -22q-26 0 -32 10q-3 12 0 22
q3 12 11 15q4 2 17 2v-9h-5h-3q-3 0 -7 -4q-1 -1 -1 -3t-1 -3q0 -13 3 -18q2 -2 18 -4q21 0 33 15q11 14 13 36q0 9 -22 13q-7 1 -34 4q-30 0 -47 -14q-17 -12 -17 -42q-1 -30 22 -32h56q21 0 27 6q4 6 22 13q5 2 41 14q26 6 26 29q1 46 -29 51q-23 4 -73 17
q-19 5 -42.5 10.5t-27.5 6.5q-14 3 -74 13h-51q-57 -9 -89 -11q-18 0 -67 -37q-20 -16 -23 -18q-6 -6 -6 -32q0 -31 7 -44q6 -12 37 -12q18 0 37 9q17 9 19 27q0 11 -3 19q-1 6 -17 7q-2 0 -6 -3q-3 -3 -3 -6v-11q0 -3 8 -4q3 0 5 -1q1 0 2 1q0 8 -1 9q0 2 -3 6q1 1 2 1
q2 0 5 1l3 -9q3 -8 -1 -15q-2 -2 -15 -2q-11 1 -14 14q-1 12 3 19q6 8 17 9q12 0 19 -6q6 -6 6 -28q0 -18 -15 -32q-14 -12 -44 -18t-48 18q-16 23 -13 53q3 27 43 67q39 41 184 38q141 -1 215 -34q71 -30 67 -67q-4 -36 -27 -42q-21 -5 -57 -21q-35 -14 -85 -16zM433 -87
q-1 54 -12 71q-13 21 -29 55q-32 64 -44 105q-8 27 -16 139q-2 36 -2 39q0 20 -2 38v43h9v-43q3 -25 3 -38q0 -4 1.5 -17t1.5 -22q8 -110 15 -139q10 -40 44 -105q22 -44 29 -55q9 -14 13 -71h-11zM150 -128q12 24 12 54q0 17 2 61q0 13 1 17q0 10 2 19q4 90 5 103
q2 36 13 97q7 42 8 45q0 5 9 47q4 20 10 53q3 33 8 63h9q-2 -12 -3.5 -26.5t-2.5 -23t-2 -13.5q-1 -13 -9 -53q-6 -39 -10 -47q-2 -3 -8 -45q-9 -64 -12 -97q0 -10 -1.5 -44.5t-2.5 -58.5q0 -14 -2 -19q0 -8 -2 -17q0 -10 -0.5 -30.5t-1.5 -30.5q0 -28 -12 -54h-10z
M209 -143q6 16 22 61q5 18 7 81v20v18q-1 44 -1 94q0 5 4 97q1 19 1 37q0 7 3 36q5 43 6 64q0 25 8 61h11q-6 -42 -9 -61q0 -4 -2 -25.5t-3 -38.5q-1 -10 -2 -21.5t-1 -14.5q0 -2 -0.5 -6.5t-1 -13.5t-0.5 -17q-2 -27 -3 -61t-1 -36q0 -49 1 -94v-18v-20q0 -61 -7 -81
q-5 -16 -21 -61h-11zM324 -207l5 27q0 52 -6 84t-12 77q-3 35 -5 40q0 19 -2 39q-7 91 -7 93q-2 42 -2 100v160h11v-160q0 -78 1 -100q0 -36 7 -93q3 -30 3 -39q0 -5 5 -40q2 -14 5.5 -40t5.5 -37q3 -22 5 -84l-3 -27h-11z" />
    <glyph glyph-name="approxequal" unicode="&#x2248;" horiz-adv-x="729" 
d="M514 359q-47 0 -89.5 15.5t-69 33.5t-62 33.5t-71.5 15.5q-95 0 -148 -95v64q49 89 147 89q40 0 79 -15.5t66 -33.5t66.5 -33.5t80.5 -15.5q48 0 86.5 26.5t61.5 68.5v-63q-19 -38 -59 -64t-88 -26zM514 181q-47 0 -89.5 15.5t-69 33.5t-62 33.5t-71.5 15.5
q-95 0 -148 -95v64q49 89 147 89q40 0 79 -15.5t66 -33.5t66.5 -33.5t80.5 -15.5q48 0 86.5 26.5t61.5 68.5v-63q-19 -38 -59 -64t-88 -26z" />
    <glyph glyph-name="notequal" unicode="&#x2260;" horiz-adv-x="551" 
d="M391 662q39 54 105 54q43 0 77.5 -23.5t34.5 -63.5q0 -27 -15.5 -43t-40.5 -16q-21 0 -35 13t-14 34t20.5 36.5t20.5 22.5q0 12 -14.5 18.5t-33.5 6.5q-32 0 -50 -20t-18 -54q0 -26 5 -51q7 -42 8 -88h105v-19h-105v-393q0 -41 16 -50.5t79 -9.5v-16h-248v16
q38 0 49.5 10.5t11.5 52.5v390h-171v-393q0 -41 12 -50.5t62 -9.5v-16h-238v16q48 0 59.5 10t11.5 53v390h-75v19h75v9q2 97 52.5 151t142.5 54q78 0 111 -40zM354 564q-19 1 -31.5 12t-12.5 30q0 16 9 26.5t18 17t9 12.5q0 11 -23 18t-42 7q-50 0 -76.5 -35t-26.5 -96v-68
h171v8q0 31 5 68z" />
    <glyph glyph-name="lessequal" unicode="&#x2264;" horiz-adv-x="636" 
d="M553 152l-482 184v56l482 184v-26l-395 -186l395 -186v-26zM71 53v53h497v-53h-497z" />
    <glyph glyph-name="greaterequal" unicode="&#x2265;" horiz-adv-x="636" 
d="M84 152v26l394 186l-394 186v26l482 -184v-56zM69 53v53h497v-53h-497z" />
    <glyph glyph-name="lozenge" unicode="&#x25ca;" horiz-adv-x="389" 
d="M194 -7l-146 277l147 278l146 -279zM194 37l123 232l-122 235l-123 -234z" />
    <glyph glyph-name="apple" unicode="&#xf8ff;" horiz-adv-x="601" 
d="M284 577l-14 146l29 -146h-15zM318 574l-12 3l23 144zM264 571l-52 137l65 -132zM337 564l-12 7l61 134zM245 562l-85 117l97 -110zM353 552l-9 10l93 113zM229 547l-113 93l123 -83zM365 534l-6 12l117 85zM220 528l-135 61l139 -48zM372 514l-4 13l137 52zM295 489
q-66 -1 -66 14q0 28 19 47q17 17 47 19q27 0 47 -16q18 -15 19 -50q0 -14 -66 -14zM214 509l-146 23l148 -9zM373 495l1 12l146 14zM405 300q-24 0 -36 10t-11 31q0 39 22 53q20 12 51 12q32 0 48 -8q18 -6 15 -19q-4 -15 -14 -34q-10 -21 -40 -22q-26 0 -32 10q-3 12 0 22
q3 12 11 15q4 2 17 2v-9h-5h-3q-3 0 -7 -4q-1 -1 -1 -3t-1 -3q0 -13 3 -18q2 -2 18 -4q21 0 33 15q11 14 13 36q0 9 -22 13q-7 1 -34 4q-30 0 -47 -14q-17 -12 -17 -42q-1 -30 22 -32h56q21 0 27 6q4 6 22 13q5 2 41 14q26 6 26 29q1 46 -29 51q-23 4 -73 17
q-19 5 -42.5 10.5t-27.5 6.5q-14 3 -74 13h-51q-57 -9 -89 -11q-18 0 -67 -37q-20 -16 -23 -18q-6 -6 -6 -32q0 -31 7 -44q6 -12 37 -12q18 0 37 9q17 9 19 27q0 11 -3 19q-1 6 -17 7q-2 0 -6 -3q-3 -3 -3 -6v-11q0 -3 8 -4q3 0 5 -1q1 0 2 1q0 8 -1 9q0 2 -3 6q1 1 2 1
q2 0 5 1l3 -9q3 -8 -1 -15q-2 -2 -15 -2q-11 1 -14 14q-1 12 3 19q6 8 17 9q12 0 19 -6q6 -6 6 -28q0 -18 -15 -32q-14 -12 -44 -18t-48 18q-16 23 -13 53q3 27 43 67q39 41 184 38q141 -1 215 -34q71 -30 67 -67q-4 -36 -27 -42q-21 -5 -57 -21q-35 -14 -85 -16zM433 -87
q-1 54 -12 71q-13 21 -29 55q-32 64 -44 105q-8 27 -16 139q-2 36 -2 39q0 20 -2 38v43h9v-43q3 -25 3 -38q0 -4 1.5 -17t1.5 -22q8 -110 15 -139q10 -40 44 -105q22 -44 29 -55q9 -14 13 -71h-11zM150 -128q12 24 12 54q0 17 2 61q0 13 1 17q0 10 2 19q4 90 5 103
q2 36 13 97q7 42 8 45q0 5 9 47q4 20 10 53q3 33 8 63h9q-2 -12 -3.5 -26.5t-2.5 -23t-2 -13.5q-1 -13 -9 -53q-6 -39 -10 -47q-2 -3 -8 -45q-9 -64 -12 -97q0 -10 -1.5 -44.5t-2.5 -58.5q0 -14 -2 -19q0 -8 -2 -17q0 -10 -0.5 -30.5t-1.5 -30.5q0 -28 -12 -54h-10z
M209 -143q6 16 22 61q5 18 7 81v20v18q-1 44 -1 94q0 5 4 97q1 19 1 37q0 7 3 36q5 43 6 64q0 25 8 61h11q-6 -42 -9 -61q0 -4 -2 -25.5t-3 -38.5q-1 -10 -2 -21.5t-1 -14.5q0 -2 -0.5 -6.5t-1 -13.5t-0.5 -17q-2 -27 -3 -61t-1 -36q0 -49 1 -94v-18v-20q0 -61 -7 -81
q-5 -16 -21 -61h-11zM324 -207l5 27q0 52 -6 84t-12 77q-3 35 -5 40q0 19 -2 39q-7 91 -7 93q-2 42 -2 100v160h11v-160q0 -78 1 -100q0 -36 7 -93q3 -30 3 -39q0 -5 5 -40q2 -14 5.5 -40t5.5 -37q3 -22 5 -84l-3 -27h-11z" />
    <glyph glyph-name="NUL" horiz-adv-x="0" 
 />
    <glyph glyph-name="nbspace" horiz-adv-x="113" 
 />
    </font>
</defs>
</svg>
